<svg xmlns="http://www.w3.org/2000/svg" viewBox="0 0 500 140.8"><path d="M496.5,136c0,1-.4,1.7-1.4,1.8a23.5,23.5,0,0,1-7,.2,3.4,3.4,0,0,1-2.7-3.5l-.6-9.1h.1V124c0-8.1,0-8.1,8-7.8,1.8.1,3.7.7,3.6,2.8s-2.1,1.3-3.5,1.5-4.2-.9-3.9,2.5c.1,1.7.5,2.5,2.4,2.3a11.5,11.5,0,0,1,3.2.2c1.2.1,1.3,1,1.2,1.9a1.2,1.2,0,0,1-1.1,1.3h-3.5a2.2,2.2,0,0,0-2.4,2v.6c0,1.7.4,3,2.3,3.1h3.7a1.4,1.4,0,0,1,1.6,1.2h0Z" transform="translate(0)" style="fill:#053762"/><path d="M475.2,128.3a5.2,5.2,0,0,0,2.4-4.7c.1-2.7-.8-4.8-3.3-6a13.8,13.8,0,0,0-10-.6c-.6.1-.6.9-.6,1.5v17.3c0,1.3.5,2.1,1.9,2s1.9-.8,2-2.1-.4-2.6.4-3.8c6.3,5.8,6.3,5.8,8.9,5.3-.2-1.6-1.2-2.6-2.2-3.7S472.5,129.9,475.2,128.3Zm-5.1-1.1c-2.3.3-2.6-1.2-2.5-3s-.7-3.9,2.4-3.7,3.9.4,3.9,3.1S472.2,126.9,470.1,127.2Z" transform="translate(0)" style="fill:#053762"/><path d="M456.8,118.3c0,1.1-.2,2.2-1.5,2.1s-2.6,1.8-2.5,3.8c.1,3.5.1,7,.1,10.6,0,1.4.1,3.1-2.1,3s-1.9-1.5-1.8-2.9V129c0-1.8-.1-3.6,0-5.5s.1-3.2-2.4-3.1-1.4-1-1.4-2a1.8,1.8,0,0,1,1.6-1.8H455C456.1,116.6,456.8,117.1,456.8,118.3Z" transform="translate(0)" style="fill:#053762"/><path d="M437,137.7a3.2,3.2,0,0,1-4.1-1.7,93.7,93.7,0,0,0-6.7-10.9l-1.5-1.7v11.9c.1,1.3,0,2.5-1.8,2.5s-2-.9-2-2.4c.1-5.6.1-11.2.1-16.8-.1-1.2.3-1.8,1.5-2a3.1,3.1,0,0,1,3.8,1.6l5.4,9.6c.6,1,.9,2.2,2.6,3.2V119.6c0-1.4-.1-2.9,1.8-3s2.1,1.6,2.1,3.1v15C438.2,135.8,438.7,137.3,437,137.7Z" transform="translate(0)" style="fill:#053762"/><path d="M412.9,136.2a1.4,1.4,0,0,1-1.2,1.6h-8.4c-1.5,0-1.6-1.3-1.6-2.4V122.9c0-6.4,1.8-7.8,8.2-6.6,1.5.3,3.2.9,3.1,2.6s-1.9,1.6-3.2,1.6h-2.2c-1.5-.1-2.2.7-2.2,2.2s.5,2.6,2.2,2.7h3.3c1.3,0,1.8.7,1.8,1.9s-.8,1.4-1.8,1.4H408c-1.8,0-2.6.9-2.6,2.7s.5,2.9,2.4,3h3.3C412.3,134.4,412.9,134.9,412.9,136.2Z" transform="translate(0)" style="fill:#053762"/><path d="M393.1,132.6q-4.5,6.8-11.7,4.8a11.2,11.2,0,0,1-8.2-9.7,11.1,11.1,0,0,1,6.9-10.3c4.9-1.9,9.2-.6,13.3,4.4-2.3,1.5-4-.1-5.8-1-3.6-1.7-7.2-.9-9.2,2a7.6,7.6,0,0,0,.9,9.7c2.4,2.3,5.2,3,8.3,1.2A6.4,6.4,0,0,1,393.1,132.6Z" transform="translate(0)" style="fill:#053762"/><path d="M352,137.8a3.5,3.5,0,0,1-4.2-2.1c-1.9-3.5-4-7-5.9-10.5l-1.9-2.5c0,4.3.1,7.5,0,10.8,0,1.6.8,4.2-2,4.3s-2-2.8-2.1-4.5c-.1-4.4.1-8.8.2-13.2,0-1.4-.8-3,1.3-3.5s3.3.5,4.2,2.1l5.1,8.5,2.5,3.3c.7-3.8.2-7.2.4-10.5.1-1.4-.7-3.6,1.9-3.5s1.7,2.2,1.8,3.7c0,4.8,0,9.5-.1,14.3C353.2,135.7,354,137.4,352,137.8Z" transform="translate(0)" style="fill:#053762"/><path d="M317.1,116.4a11.3,11.3,0,0,0-10.8,10.8,11.1,11.1,0,0,0,10.8,10.7c5.8,0,11-4.9,11.2-10.5S322.9,116.4,317.1,116.4Zm.2,18.3a7.2,7.2,0,0,1-7.2-7.2h0a7,7,0,0,1,6.3-7.6h.7a7.2,7.2,0,0,1,7.3,7.1h0a7.4,7.4,0,0,1-7.1,7.7Z" transform="translate(0)" style="fill:#053762"/><path d="M298.2,135.3c0,1.4-.2,2.5-1.8,2.7s-2.1-1.4-2.1-2.8v-8h.1c0-2.7-.1-5.4,0-8.1,0-1.2.1-2.6,1.8-2.7s2,1.3,2,2.8Z" transform="translate(0)" style="fill:#053762"/><path d="M287.9,118.3c0,1.1-.2,2.2-1.4,2.1-2.8-.1-2.8,1.7-2.7,3.6,0,3.8-.1,7.6,0,11.4,0,1.3-.1,2.5-1.9,2.4s-1.9-1.1-1.8-2.5V123.2c0-1.3.1-2.8-2-2.7s-1.9-1.1-1.8-2.4,1.3-1.5,2.4-1.5H286C287.2,116.6,287.9,117.1,287.9,118.3Z" transform="translate(0)" style="fill:#053762"/><path d="M272.4,136.1c-2.6-6.1-5-12.1-7.8-18.1-1-2.1-2.9-2.1-3.8,0-2.7,5.9-5,11.9-7.6,17.8-.7,1.7.2,2,1.5,2.1s2.3-.9,2.7-2.4,2.6-3.3,5.1-3.3,5,.7,5.7,3.9a2.3,2.3,0,0,0,2.6,1.9h.5C272.1,137.6,272.9,137.3,272.4,136.1Zm-8.5-7.5a1.6,1.6,0,0,1-2.3,0h0c-1.9-2.2.3-3.7,1.1-5.7C263.8,124.8,265.6,126.4,263.9,128.6Z" transform="translate(0)" style="fill:#053762"/><path d="M245.2,132.5c-1.8,4-5.5,5.9-10,5.2a11.7,11.7,0,0,1-9.5-9.4c-.5-4.4,2.6-9.3,7-11s9.5-.3,13.1,4.7c-2.1.9-3.6-.1-5.1-.8-4.2-2-7.2-1.6-9.5,1.3a7.4,7.4,0,0,0,0,9.5c2.4,3,5.3,3.4,9.4,1.3A6.7,6.7,0,0,1,245.2,132.5Z" transform="translate(0)" style="fill:#053762"/><path d="M218.1,120.5c.1,3.2.1,6.4,0,9.5-.1,4.6-3.2,7.9-7.1,7.9s-6.7-3.1-7-7.5-.2-7.6-.3-11.4c0-1.3.5-2.3,2.1-2.4s2.1.9,2.1,2.3v6.3h0V131c0,1.9.7,3.4,2.9,3.6s3.4-1.3,3.6-3.3c.2-3.5,0-7.1.1-10.6.1-1.6-1-4.3,1.9-4.2S218.1,119,218.1,120.5Z" transform="translate(0)" style="fill:#053762"/><path d="M192.4,119.4c-3.3-2.9-7.5-3.3-11.7-2.7-1.4.2-1.5,1.3-1.5,2.5v7.7h.1c0,2.7-.1,5.4,0,8.1s.3,2.6,1.9,3.1c5.4,1.6,13.1-2.9,14.5-8.5A9.8,9.8,0,0,0,192.4,119.4Zm-.7,10.4c-1,3.1-3.8,4.3-6.8,4.6-1.3.1-2-.7-2-2.1v-4.7a11.3,11.3,0,0,1,0-2.6c.1-1.6-.5-3.6,1.5-4.4s3.6.3,5,1.4A6.3,6.3,0,0,1,191.7,129.8Z" transform="translate(0)" style="fill:#053762"/><path d="M171.1,136.2a1.4,1.4,0,0,1-1.2,1.6h-.3c-2.2.2-4.4.4-6.6.4s-3.5-1.6-3.6-3.8v-7.7h.2v-2.2c0-8.7.6-9.2,9.4-8,1.3.2,2.1.7,2.1,2s-1,1.8-2.4,2.1-4.9-1.7-5.1,2.1,3.1,2.3,5.1,2.7,1.9.4,1.9,1.7a1.4,1.4,0,0,1-1.2,1.6h-.6c-1,0-2,.1-3,0s-2.3,1.2-2.4,2.6.3,3,2.3,3.1h3.6C170.5,134.4,171.2,135,171.1,136.2Z" transform="translate(0)" style="fill:#053762"/><path d="M494.9,95.1c-5.1,2.5-5.5,2.2-5.5-3.3,0-16-.1-32.1,0-48.1,0-3-.9-4.2-4-4s-6.6.1-9.9.1c-33.6.1-46,30-39.7,54.2,3.1,12.3,11.6,15,22,7.8,5.6-3.8,10-8.8,15.4-13.5.2,1.9.5,3.5.5,5a11.9,11.9,0,0,0,1.7,6.6c3,4.7,7.2,6.9,11.6,6s12.4-8,13-13.5ZM473.7,74.2a5.9,5.9,0,0,1-2.9,5.9c-3.3,2.4-6.8,4.4-10.9,4.9s-6-.3-7.4-3.3c-5.8-12.4,2.1-32.7,17-35.3,3.7-.7,4.5-.2,4.1,3.6a116.1,116.1,0,0,0,.1,11.8A64.2,64.2,0,0,0,473.7,74.2Z" transform="translate(0)" style="fill:#053762"/><path d="M418.4,25.8c-3.5,2.9-7.5,5.3-12,3.1s-4.2-7-4.6-10.2c0-7.5,2-10.4,7.2-11.8s10,.6,12.2,4.9A11.4,11.4,0,0,1,418.4,25.8Z" transform="translate(0)" style="fill:#053762"/><path d="M430.1,92.5c-.3,8-11.8,16-19.1,13.4-3.6-1.3-5.4-4.2-6.1-7.7a32.3,32.3,0,0,1-.7-6.9c-.1-13,0-25.9,0-38.9,0-1.2.4-2.7-.8-3.4s-2.5.4-3.6,1.1-3.8,2.5-6.1,4.2c1.2-7.6,11.6-15.9,18.2-15.2,3.5.4,6.4,3.2,7.5,7.2a28.1,28.1,0,0,1,.7,6.5V92.1c0,1.7-.6,3.9,1.6,4.8s3.3-.9,4.8-1.9S428.6,92.9,430.1,92.5Z" transform="translate(0)" style="fill:#053762"/><path d="M378.3,20.8c.1,23.6,0,47.2.1,70.8,0,3.1.9,3.5,3.8,2.1s6.3-4.8,10.1-7.2c-.1,1,0,1.5-.2,1.8-3.6,6.8-8.3,12.5-15,16.2s-14,1.3-14.9-7.5c-.5-5.3-.5-10.7-.5-16.1-.1-17.4-.5-34.8.2-52.1a29.5,29.5,0,0,1,5.7-16.4c3.6-4.7,8.2-7.8,14.2-8.1s10.7,0,16.4,0c-1.9,5.9-5.9,9-11.4,10.5-1.4.4-2.9.6-4.3.9S378.3,17.8,378.3,20.8Z" transform="translate(0)" style="fill:#053762"/><path d="M353.1,55.2a26.5,26.5,0,0,0-34.4-14.3c-13.7,5.3-23.2,19.3-23.2,34.6-.3,2,.3,4.3.6,6.6,3.6,21.5,23.1,30.6,41.9,19.6A37.1,37.1,0,0,0,353.1,55.2ZM340,85.4a14.6,14.6,0,0,1-4.1,8.1,12.4,12.4,0,0,1-17.5.7,11.3,11.3,0,0,1-2.4-3,39.3,39.3,0,0,1-5.4-21.4,62.3,62.3,0,0,1,.9-10.6c1.2-6.1,5.1-10.2,10.6-11.1s10.1,1.5,13.1,6.8C340.4,64.5,341.6,74.8,340,85.4Z" transform="translate(0)" style="fill:#053762"/><path d="M291.4,85.8c-4.1,8.6-8.8,16.6-18.6,19.7-6.8,2.2-10.6-.1-12.1-6.9a51,51,0,0,1-.7-10.3V52.4c0-4-.8-4.8-4.8-4.4-1.3.1-2.8.8-3.5-.8s.1-3.1,1.3-4.3a9.5,9.5,0,0,1,2-1.5c8.5-4.7,13.9-12.1,17.4-21,.5-1.1.4-3.2,2.1-3s.9,2.5,1,3.7c.1,5,.2,10,0,15-.1,3,1,4,3.8,3.8s4.4-.1,6.6-.1,2.1.9,1.3,2.3a10.5,10.5,0,0,1-7.9,5.3c-2.9.4-3.9,1.7-3.8,4.6.1,12.6,0,25.2.1,37.8,0,5,1.1,5.6,5.6,3.2S287.7,87.9,291.4,85.8Z" transform="translate(0)" style="fill:#053762"/><path d="M246.8,95.5c-3.9,1.9-4.4,1.6-4.4-2.6,0-15.7.1-31.5.2-47.3.1-5.5-1.5-6.9-7.1-6.2a59.5,59.5,0,0,1-7.3.4c-21.6.1-37,12.9-40.5,34.2-1.3,8.4-1.7,17.1,2.9,25s10.4,9.1,17.8,4.3a49.4,49.4,0,0,0,5.9-4.3l12.1-11.1c0,2.8-.1,4.8,0,6.7.5,7.2,7,12.7,13.5,11s11.1-6.8,14.4-14ZM226.4,49.4c-.2,4.2-.1,8.5-.1,12.8V74a8.1,8.1,0,0,1,0,2.2c-.4,3.7-8.5,8.6-14.8,9-3.7.2-6.3-2.2-7.6-7-3-12.1,4.3-27,15.2-31a20,20,0,0,1,3.5-.9C225.2,45.7,226.5,46.4,226.4,49.4Z" transform="translate(0)" style="fill:#053762"/><path d="M184.5,91.3A20.5,20.5,0,0,1,171,105.8c-7.1,2.5-13.3-1.9-13.5-9.8-.2-11.4,0-22.8.1-34.1,0-2.2.6-4.6-1.9-5.8s-4.7.1-6.6,1.9a61.8,61.8,0,0,0-8.5,10.6,10.9,10.9,0,0,0-1.8,6.1c.1,6.2.1,12.3,0,18.4A13.9,13.9,0,0,1,125,106.4c-2.4-.1-2.1-2-2.1-3.6V70.9c.1-4.7.1-9.5.2-14.3.1-3.1-1.3-3.9-4.1-2.4a57,57,0,0,1-6.9,3.7c4.1-6.7,8.9-12.6,15.5-16.7,4.6-2.9,9-1.1,10,4.2s1.1,9.7,1.6,14.7c1.2.1,1.3-1.1,1.8-1.8A72.8,72.8,0,0,1,152.5,45a21.8,21.8,0,0,1,5.7-3.8c8.1-3.5,13.8-.5,15.1,8.1.8,5.1.6,10.3.5,15.4l-.3,28.9c0,1.3-.3,2.9,1.3,3.5a3.7,3.7,0,0,0,3.7-1Z" transform="translate(0)" style="fill:#053762"/><path d="M149.9,138.1c-12.2-5.3-21.4-14-28.4-25.1C108,91.3,99.9,67.4,94.2,42.7,91,28.7,88.1,14.6,85,0c-1.4,3.7-1.2,7.1-2.4,10.4C74.7,32.8,62.8,53,48.6,72c-1.6,2.2-3.4,2.4-5.7,2.1C30.7,72.3,19.5,74,10.8,84c5-1.9,9.8-4.6,15.3-5.4a42.7,42.7,0,0,1,16.7,1.2c-1.9,1.6-3.5,2.9-4.9,4.3C28,93.7,17.3,102.2,4.6,107.8c-3.9,1.7-5.4,5.1-4.2,8.6s4.1,4.4,8.3,3.4,7.3-3.4,10.5-6c10.4-8.2,19.2-18,27.3-28.4,2.3-2.9,4.5-3.6,7.9-2.4,18,6,32.5,16.7,44.2,31.3,3.9,4.9,7.7,9.9,12.2,14.2,10.8,10.5,27.8,15,40.4,10.7C151.1,138.4,150.4,138.3,149.9,138.1Zm-64-49.2A119.1,119.1,0,0,0,57.2,77.3c-2.3-.7-3.1-1.6-1.5-3.8A203.1,203.1,0,0,0,75,42.8c.1-.2.3-.3.9-.7C78.9,57.9,82,73.6,87,88.3,86.6,89.3,86.2,89,85.9,88.9Z" transform="translate(0)" style="fill:#053762"/></svg>