<svg xmlns="http://www.w3.org/2000/svg" viewBox="0 0 500 136.1"><path d="M279.2,72.5c-7-.1-13.9.3-20.7-.3a23.4,23.4,0,0,1-6.4-1.2,13.4,13.4,0,0,1-10.3-12,83.3,83.3,0,0,1,.8-28.6c1.7-7.5,5.1-10.5,12.8-11.6,5.3-.7,10.7-.6,15.9-.9s14.9.3,22.3.5a28.6,28.6,0,0,1,7.7,1,12.3,12.3,0,0,1,9.2,10.1,34.9,34.9,0,0,1,.6,6.5c0,.6-.2.9-.9.9H295.9c-.6,0-.9-.2-.9-.8a5.9,5.9,0,0,0-.2-1.3,3.5,3.5,0,0,0-2.8-3.2,33.2,33.2,0,0,0-4.4-.6h-22l-2.4.3a5.5,5.5,0,0,0-4.8,4.4,30,30,0,0,0-.8,6.7,66.2,66.2,0,0,0,.3,10.9c.8,4.3,2.8,6.1,7.1,6.6,7.7.4,15.4.1,23,.1a10.9,10.9,0,0,0,2.6-.4c3.8-.9,4.5-3.5,4.4-7.1,0-.7-.8-.4-1.1-.4H276c-2,0-1.7.1-1.7-1.7s0-5-.1-7.4.1-1.2,1.1-1.2H310c.5,0,1.1-.3,1.1.6,0,6.7.7,13.4-.9,20.1s-5.6,9.6-12.7,9.9S285.2,72.4,279.2,72.5Z" style="fill:#023573"/><path d="M400.6,45.1V70.6c0,1-.1,1.3-1.3,1.3H385.6c-.9,0-1.2-.1-1.2-1.2v-18c0-1.1-.2-1.4-1.2-1.4H349.1c-.9,0-1.2.3-1.2,1.2V70.7c0,1.1-.1,1.2-1.2,1.2H333c-.9,0-1.2-.1-1.2-1V19.6c0-.9.2-1.2,1.1-1.2h13.8c1.1,0,1.2.3,1.2,1.2V36.7c0,.9.3,1.2,1.2,1.2h34.1c1,0,1.2-.1,1.2-1.2v-17c0-1,.1-1.3,1.2-1.3h13.8c.9,0,1.2.1,1.2,1.2Z" style="fill:#023573"/><path d="M450.6,18.4h31.1c1.1,0,1.4.3,1.4,1.3a100.9,100.9,0,0,0,0,11c0,.9-.3,1.2-1.4,1.2H460.4c-1.2,0-1.5.3-1.5,1.5.1,12.4,0,24.8.1,37.3,0,1.2-.4,1.4-1.5,1.4H443.7c-1.1,0-1.2-.3-1.2-1.4V33.3c0-1.2-.3-1.5-1.4-1.5H419.4c-.9,0-1.2-.3-1.2-1.4v-11c0-1,.3-1.2,1.4-1.2Z" style="fill:#023573"/><path d="M126.4,19c-2.4,2.7-4.7,5.4-6.8,8.2a84,84,0,0,0-11.2,28c-1.1,5.1-1.5,10.3-2.3,15.4-1.8,10.7-5.9,20.1-13.7,27.8A49.3,49.3,0,0,1,73,110h-.5a.2.2,0,0,1,.2-.2c5.9-5.1,8.9-11.6,11.1-18.8a83.1,83.1,0,0,0,3-26.3,51.7,51.7,0,0,1,2-17.9C91.8,37.6,98,31,106.2,26A55.9,55.9,0,0,1,126.4,19Z" style="fill:#023573"/><path d="M66.4,110a16.8,16.8,0,0,1-3.2-.9C45.9,102.3,36,89.5,32.8,71.5c-1-6.2-1.5-12.5-3-18.5-2.6-10.6-6.5-20.5-13.2-29.1l-2.3-2.5L12,19a14.3,14.3,0,0,1,5,.9,52,52,0,0,1,21.4,10c9.2,7.6,13.4,17.5,13.5,29.2,0,5.2-.3,10.3.2,15.4.7,9.6,2.7,18.8,7.3,27.1A31.4,31.4,0,0,0,66.4,110Z" style="fill:#023573"/><path d="M69.4,110.2a66.8,66.8,0,0,1-4.7-9.7,77,77,0,0,1-5.9-29.6c0-3.6.6-7.2.9-10.9a38.9,38.9,0,0,0-9-29.8,1.5,1.5,0,0,1-.6-.9c12.8,6.7,25.4,6.5,38.2-.1a58.1,58.1,0,0,0-4,5.7,36.9,36.9,0,0,0-5.4,26.7c1.9,11.7.3,23.1-3.4,34.3A105.9,105.9,0,0,1,69.4,110.2Z" style="fill:#1967b2"/><path d="M133.3,45.1V19.7c0-1,.2-1.3,1.4-1.3h13.7c1.2,0,1.3.3,1.3,1.5V57c0,1.2.3,1.5,1.5,1.5h34.2c1.1,0,1.4.2,1.4,1.4V71c0,.8-.2.9-.9.9H134.4c-.9,0-1.1-.3-1.1-1Z" style="fill:#023573"/><path d="M203.8,45.1V19.9c0-1.4.3-1.5,1.5-1.5h13.8c.9,0,1.4.1,1.4,1.2-.2,17.1-.2,34.1,0,51.3,0,.9-.5,1-1.2,1H204.8c-.9,0-1-.3-1-1.2Z" style="fill:#023573"/><path d="M69.4,13.7a8.4,8.4,0,0,1,8.3,8.6,8.5,8.5,0,0,1-8.6,8.2,8.4,8.4,0,0,1-8.3-8.4,8.6,8.6,0,0,1,8.4-8.4Z" style="fill:#1967b2"/><path d="M426.8,97.4a12.7,12.7,0,0,1,1.8-7.4,8.5,8.5,0,0,1,8.4-3.8,7.8,7.8,0,0,1,7.1,5.6,13.4,13.4,0,0,1,0,10.4c-1.6,4-5,5.9-9.8,5.6s-6.3-2.9-7.2-7A19.5,19.5,0,0,1,426.8,97.4Zm14.3-.6a9.6,9.6,0,0,0-.8-4.4,4.6,4.6,0,0,0-4.3-2.9,4.3,4.3,0,0,0-4.2,2.6,11.6,11.6,0,0,0-.3,9.3,3.6,3.6,0,0,0,3.4,3,5,5,0,0,0,5.1-2.5,10,10,0,0,0,1.1-5.1Z" style="fill:#1967b2"/><path d="M402.7,97.2a11.5,11.5,0,0,1,2-7.4,8.5,8.5,0,0,1,8.3-3.6,8.3,8.3,0,0,1,7.2,5.8,14.3,14.3,0,0,1-.2,10,8.5,8.5,0,0,1-9.2,5.8c-4.2-.3-6.7-2.8-7.6-7A14.9,14.9,0,0,1,402.7,97.2Zm14.3-.3a11.1,11.1,0,0,0-.4-3.6,4.8,4.8,0,0,0-4.7-3.8,4.6,4.6,0,0,0-4.7,3.5,12.5,12.5,0,0,0,0,8.1,4.7,4.7,0,0,0,3.6,3.3,4.9,4.9,0,0,0,5.3-2.7A9.8,9.8,0,0,0,417,96.9Z" style="fill:#1967b2"/><path d="M195.9,96.8a10.9,10.9,0,0,1-2.5,8.1c-2.4,2.9-5.6,3.3-9,2.7a7.6,7.6,0,0,1-6.1-5.9,15.2,15.2,0,0,1,.6-10.5,9,9,0,0,1,11.9-4.1,8.8,8.8,0,0,1,4.8,6.4A18.4,18.4,0,0,1,195.9,96.8Zm-3.9-.3a7.7,7.7,0,0,0-.3-3,5,5,0,0,0-6.1-3.5,4.9,4.9,0,0,0-3.5,3.3,13,13,0,0,0,.1,7.8,4.3,4.3,0,0,0,3.7,3.3,5,5,0,0,0,5.1-2.5A10.1,10.1,0,0,0,192,96.5Z" style="fill:#1967b2"/><path d="M270,97.1a11.8,11.8,0,0,1,1.9-7.3,8.8,8.8,0,0,1,8.5-3.6,8.2,8.2,0,0,1,7,5.6,14.2,14.2,0,0,1-.3,10.7,8.5,8.5,0,0,1-9,5.3,7.9,7.9,0,0,1-7.5-6.4A15.4,15.4,0,0,1,270,97.1Zm3.9,0a15.2,15.2,0,0,0,.6,4.2,4.3,4.3,0,0,0,3.6,3.1,4.8,4.8,0,0,0,5.1-2.4,11,11,0,0,0,0-10c-1.5-3.2-6.1-3.2-8.1-.3A10.2,10.2,0,0,0,273.9,97.1Z" style="fill:#1967b2"/><path d="M173.4,107.3h-.3c-2.9.5-4.8-.3-6.1-3.2s-2.1-3-3-4.6-1.5-.9-2.4-.8-.3.6-.3.9-.1,4.4,0,6.6-.3,1.1-1,1.1-2.9,0-2.9-2.9V87.9c-.1-1.2.2-1.5,1.4-1.5a47,47,0,0,1,7.5.1c2.7.6,4.4,2.1,4.7,4.5a6.2,6.2,0,0,1-2.9,6.7c-.8.4-.8.6-.3,1.2ZM161.3,92.7c0,3.3.3,3.5,3.6,2.7h.5a2.3,2.3,0,0,0,1.5-1,3,3,0,0,0-.3-3.4,5.5,5.5,0,0,0-4.8-1c-1.1.6-.3,1.7-.5,2.4Z" style="fill:#1967b2"/><path d="M150.5,101v3.7c0,.6,0,.9-.5,1.2-2.8,2-10,3.2-14-.9s-4.3-16.1,4.6-18.3a10,10,0,0,1,8.1.9c.7.4,1,.7.4,1.8s-.9,1.8-2.7.9a6.4,6.4,0,0,0-8.5,2.7h0a5.4,5.4,0,0,0-.6,2.5c-.4,2.7-.2,5.2,2.1,7.3a5.7,5.7,0,0,0,6.1,1.2c.9-.3,1.5-.9,1.2-1.8v-.6c0-2.1,0-2.2-2.1-2.4s-.7-.1-.7-.7-.2-2.4,2.4-2.4h3.4c.6,0,.8.1.8.9Z" style="fill:#1967b2"/><path d="M380.1,97.1c0-3,.2-6.1,0-9.1s.2-1.5,1.1-1.5,1.8,0,1.8,2.6v4.7c0,.7.2.9.8.9h4.9c.5,0,.6-.3.6-.9V87.7c-.1-.9.2-1.2.8-1.2s2.1,0,2.1,2.7v17c0,1-.2,1.3-.9,1.3s-2,0-2-2.6V99.2c0-.8-.1-1.1-.7-1.1h-4.8c-.6,0-.8.3-.8,1.1v7.2c0,.9-.1,1.1-.7,1.1s-2.2,0-2.2-2.6Z" style="fill:#1967b2"/><path d="M206.6,94.4v6.3a3.5,3.5,0,0,0,3.2,3.7h.4c2.7,0,4.3-1.3,4.3-3.7s.1-8.4,0-12.7c0-1.2.3-1.5,1.5-1.5s2.4.2,2.4,2.4.1,8.3-.2,12.5a6.3,6.3,0,0,1-5.6,6.2,10.3,10.3,0,0,1-5.5-.3,6.2,6.2,0,0,1-4.4-5.9V87.6c0-.8.3-.9.9-1.1,3,0,3,0,3,2.9Z" style="fill:#1967b2"/><path d="M226,96.9V87.7c0-.7.2-1.2,1.1-1.2a30.5,30.5,0,0,1,8,.5c3.4.7,4.8,2.5,4.8,5.9s-1.7,5.8-4.8,6.6a16,16,0,0,1-4.4.3c-.7,0-.9.3-.9.9v5.8c0,.7,0,1-.7,1s-3.1.1-3.1-2.9Zm5.2-7.1c-1-.3-1.5.2-1.4,1.4a9.6,9.6,0,0,1,0,2.4c0,3.2.5,3.5,3.6,2.7h.3a2.9,2.9,0,0,0,2.4-3.1,3,3,0,0,0-2.2-3.1Z" style="fill:#1967b2"/><path d="M295,96.9V87.7c0-.7.1-1.2,1-1.2h11.8c.9,0,1,.3,1,1.2s0,2.3-2.2,2.3h-7c-.6,0-.9.1-.9.9s-.4,2.7.3,3.6,2.3.2,3.3.2h3.1c.6,0,.7.3.7.7a2.3,2.3,0,0,1-1.8,2.6h-4.4c-.9-.2-1.2.1-1.2,1v7.4c0,2.4-.1,1.1-1,1.1s-2.7,0-2.7-2.8Z" style="fill:#1b68b3"/><path d="M481.1,90.9a9.7,9.7,0,0,0-4-1.5,2.4,2.4,0,0,0-2.6,1.5c-.6,1.2,0,2,.9,2.9a33.5,33.5,0,0,0,4.5,2.7,5.9,5.9,0,0,1,3,3.9,5.5,5.5,0,0,1-3.4,6.8,10.6,10.6,0,0,1-8.2-.3,1,1,0,0,1-.6-1.1c0-.2.1-.3.2-.5s.4-1.8.9-2.1,1.4.5,2.1.8a6.9,6.9,0,0,0,3.2.4,2.2,2.2,0,0,0,2.4-2h0a2.7,2.7,0,0,0-.5-1.5,3.9,3.9,0,0,0-1.8-1.8l-3.6-1.9a6.1,6.1,0,0,1-3-6.5,5.8,5.8,0,0,1,5.1-4.2,10.7,10.7,0,0,1,5.6.6c.7.3,1,.6.6,1.5A11.3,11.3,0,0,0,481.1,90.9Z" style="fill:#1967b2"/><path d="M371.6,90.7a6,6,0,0,0-8.3,1.1,6.4,6.4,0,0,0-.8,1.4,9.6,9.6,0,0,0-.1,7.8,5.5,5.5,0,0,0,7,3.2,6.2,6.2,0,0,0,1.7-1.1c.8-.6,1.1-.6,1.4.1v.3c0,.2,1.2,2.4-1.2,3.5-6.5,3-12.9-.9-13.5-8.4a11.7,11.7,0,0,1,3.1-9.8c3.3-3.5,8.8-2.9,11.5-1.5s.7.6.3,1Z" style="fill:#1967b2"/><path d="M344.9,107.8a10.4,10.4,0,0,1-4.9-1.1c-.5-.3-.6-.5-.3-1.1s.4-1.9,1-2.4,1.4.6,2.1.8a6.9,6.9,0,0,0,3.2.4,2.4,2.4,0,0,0,2.3-2.5h0a3.6,3.6,0,0,0-.4-1.1A8.1,8.1,0,0,0,346,99l-3.6-2.1a5.5,5.5,0,0,1-2.9-6.2,5.4,5.4,0,0,1,4.8-4.3,9.3,9.3,0,0,1,5.7.6c.8.3,1.1.7.8,1.5s-.3,1.6-.9,1.9-1.2-.4-1.8-.6a7,7,0,0,0-2.9-.3,2,2,0,0,0-1.9,1.4,2.4,2.4,0,0,0,.4,2.4,15.1,15.1,0,0,0,2.6,1.8l2.5,1.4a5.9,5.9,0,0,1-2.4,11.1Z" style="fill:#1967b2"/><path d="M451.8,96.9V87.6c0-.8.1-.9.9-1.1s2.8,0,2.8,2.7v13.4c0,1.4.3,1.5,1.5,1.5h6.8c2.3,0,1.2.2,1.2,1.1s0,2.3-2.2,2.3H453c-.9,0-1.4-.2-1.2-1.3Z" style="fill:#1967b2"/></svg>