<svg xmlns="http://www.w3.org/2000/svg" viewBox="0 0 808.7 786.1"><path d="M164.4,232.2H161a161,161,0,0,0,0,322h3.4a161,161,0,0,0,0-322Zm0,297H161a136,136,0,0,1,0-272h3.4a136,136,0,0,1,0,272Z" transform="translate(0 0)" style="fill:#f05c2b"/><path d="M164.4,261.7A131.5,131.5,0,1,0,295.9,393.2,131.5,131.5,0,0,0,164.4,261.7Zm0,258.5a127,127,0,1,1,127-127A127.1,127.1,0,0,1,164.4,520.2Z" transform="translate(0 0)" style="fill:#f05c2b"/><path d="M232.7,150.1v63.2h-2.6V150.1Z" transform="translate(0 0)" style="fill:#8d8f91"/><path d="M357.4,254.4l-36.9,26.8-1.6-2.1,37-26.9Z" transform="translate(0 0)" style="fill:#8d8f91"/><path d="M356.6,393.5h63.2v2.6H356.6Z" transform="translate(0 0)" style="fill:#8d8f91"/><path d="M317.9,507.5,356,532.2l-1.4,2.2-38.1-24.6Z" transform="translate(0 0)" style="fill:#8d8f91"/><path d="M232.3,571.8v66.5h-2.6V571.9Z" transform="translate(0 0)" style="fill:#8d8f91"/><path d="M299.7,682.1a75,75,0,1,0,5.8,29A75.8,75.8,0,0,0,299.7,682.1Zm-13.7,53a60.2,60.2,0,1,1,5-24A60.2,60.2,0,0,1,286,735.1Z" transform="translate(0 0)" style="fill:#435600"/><polygon points="547.3 711.5 517.8 740.9 517.8 682.1 547.3 711.5" style="fill:#435600"/><path d="M517.8,682.1v58.8H299.3a74.4,74.4,0,0,0,6.2-29.8,75.8,75.8,0,0,0-5.8-29Z" transform="translate(0 0)" style="fill:#435600"/><path d="M487.1,537.3a74.2,74.2,0,1,0,5.9,29A74.2,74.2,0,0,0,487.1,537.3Zm-13.7,53a59,59,0,1,1,5.1-24A58.1,58.1,0,0,1,473.4,590.3Z" transform="translate(0 0)" style="fill:#b2860b"/><polygon points="734.7 566.8 705.3 596.2 705.3 537.3 734.7 566.8" style="fill:#b2860b"/><path d="M705.3,537.3v58.9H486.7a74,74,0,0,0,.4-58.9Z" transform="translate(0 0)" style="fill:#b2860b"/><path d="M561.1,364.2a74,74,0,1,0-.4,58.9,74.9,74.9,0,0,0,6.3-29.9A74.1,74.1,0,0,0,561.1,364.2Zm-13.7,53a59.4,59.4,0,1,1,.3-47.3A59.3,59.3,0,0,1,547.4,417.2Z" transform="translate(0 0)" style="fill:#005b5c"/><polygon points="808.7 393.6 779.3 423.1 779.3 364.2 808.7 393.6" style="fill:#005b5c"/><path d="M779.3,364.2v58.9H560.7a74.9,74.9,0,0,0,6.3-29.9,74.1,74.1,0,0,0-5.9-29Z" transform="translate(0 0)" style="fill:#005b5c"/><path d="M489.2,191.1a74.3,74.3,0,1,0-.4,58.8,72.8,72.8,0,0,0,6.3-29.8A74.1,74.1,0,0,0,489.2,191.1Zm-13.6,53a59.5,59.5,0,1,1,.3-47.4A59.5,59.5,0,0,1,475.6,244.1Z" transform="translate(0 0)" style="fill:#9e8bbb"/><polygon points="736.8 220.5 707.4 249.9 707.4 191.1 736.8 220.5" style="fill:#9e8bbb"/><path d="M707.4,191.1v58.8H488.8a72.8,72.8,0,0,0,6.3-29.8,74.1,74.1,0,0,0-5.9-29Z" transform="translate(0 0)" style="fill:#9e8bbb"/><path d="M299.7,46.3a75.3,75.3,0,1,0,5.8,29A75.3,75.3,0,0,0,299.7,46.3ZM286,99.3a60.1,60.1,0,1,1,5-24A60.1,60.1,0,0,1,286,99.3Z" transform="translate(0 0)" style="fill:#8d8f91"/><polygon points="547.3 75.8 517.8 105.2 517.8 46.3 547.3 75.8" style="fill:#8d8f91"/><path d="M517.8,46.3v58.9H299.3a74.8,74.8,0,0,0,6.2-29.9,75.8,75.8,0,0,0-5.8-29Z" transform="translate(0 0)" style="fill:#8d8f91"/><path d="M163.6,554.2v18.4H161V554.2Z" transform="translate(0 0)" style="fill:#000201"/><path d="M350.4,393.2v2.3h-2.6v-2.3c0-99.1-80.4-179.5-179.5-179.5h-4.7v18.5H161V208.7h4.8C267.7,208.6,350.4,291.2,350.4,393.2Z" transform="translate(0 0)" style="fill:#000201"/><path d="M350.4,395.5C349.1,496.4,267,577.8,165.8,577.8H161v-5.1h7.3c98.4,0,178.2-79.1,179.5-177.2Z" transform="translate(0 0)" style="fill:#000201"/><path d="M163.6,554.2v18.4H161V554.2Z" transform="translate(0 0)" style="fill:#000201"/><path d="M350.4,393.2v2.3h-2.6v-2.3c0-99.1-80.4-179.5-179.5-179.5h-4.7v18.5H161V208.7h4.8C267.7,208.6,350.4,291.2,350.4,393.2Z" transform="translate(0 0)" style="fill:#000201"/><path d="M350.4,395.5C349.1,496.4,267,577.8,165.8,577.8H161v-5.1h7.3c98.4,0,178.2-79.1,179.5-177.2Z" transform="translate(0 0)" style="fill:#000201"/><path d="M231.5,213.6a8.5,8.5,0,1,0,8.5,8.5h0A8.6,8.6,0,0,0,231.5,213.6Zm0,14a5.5,5.5,0,0,1-5.5-5.5h0a5.5,5.5,0,0,1,5.5-5.5h0a5.5,5.5,0,0,1,5.5,5.5h0a5.4,5.4,0,0,1-5.3,5.5h-.2Z" transform="translate(0 0)" style="fill:#f05c2b"/><circle cx="231.5" cy="222.1" r="3" style="fill:#8d8f91"/><path d="M313,274.3a8.5,8.5,0,1,0,8.5,8.5,8.5,8.5,0,0,0-8.5-8.5Zm0,14a5.5,5.5,0,0,1-5.5-5.5h0a5.4,5.4,0,0,1,5.3-5.5h.2a5.5,5.5,0,0,1,5.5,5.5h0a5.5,5.5,0,0,1-5.5,5.5Z" transform="translate(0 0)" style="fill:#f05c2b"/><circle cx="313" cy="282.8" r="3" style="fill:#9e8bbb"/><path d="M349.8,386.3a8.5,8.5,0,1,0,8.5,8.5h0A8.5,8.5,0,0,0,349.8,386.3Zm0,14a5.5,5.5,0,1,1,5.5-5.5h0A5.5,5.5,0,0,1,349.8,400.3Z" transform="translate(0 0)" style="fill:#f05c2b"/><circle cx="349.8" cy="394.8" r="3" style="fill:#005b5c"/><path d="M312.4,495.7a8.5,8.5,0,1,0,8.5,8.5,8.5,8.5,0,0,0-8.5-8.5Zm0,14a5.5,5.5,0,1,1,5.5-5.5,5.5,5.5,0,0,1-5.5,5.5Z" transform="translate(0 0)" style="fill:#f05c2b"/><circle cx="312.4" cy="504.2" r="3" style="fill:#f7c018"/><path d="M230.4,555.6a8.5,8.5,0,1,0,8.5,8.5h0A8.5,8.5,0,0,0,230.4,555.6Zm0,14a5.5,5.5,0,0,1-5.5-5.5h0a5.5,5.5,0,1,1,5.5,5.5Z" transform="translate(0 0)" style="fill:#f05c2b"/><circle cx="230.4" cy="564.1" r="3" style="fill:#9ebc44"/><path d="M335.7,60.7c-.7-2.8-2.1-4.2-4.1-4.2a2.3,2.3,0,0,0-2.5,2.1h0v.2c0,2.2,3.2,3.1,5.6,4.7a4,4,0,0,1,2,3.6c0,2.6-2.3,4.2-4.9,4.2-.6,0-2.9-.7-3.5-.7s-.8.2-.8.6h-.4l-.7-4.9h.6c1,2.7,2.6,4,4.7,4a2.7,2.7,0,0,0,2.8-2.4h0c0-2.6-3.1-3.4-5.5-4.9a3.9,3.9,0,0,1-1.9-3.4,4.2,4.2,0,0,1,4.3-4.1h.1c.6,0,2.6.8,3.2.8s.7-.3.8-.8h.4l.4,5.2Z" transform="translate(0 0)" style="fill:#fff"/><path d="M350.2,59.8c-.2-1.5-1-2.9-2.2-2.9h-2.7V68.3c0,1.8.1,2.2,2,2.2V71h-6.4v-.5c2,0,2.1-.4,2.1-2.2V56.9h-2.7c-1.2,0-2,1.4-2.2,2.9h-.6v-4h13.3v4Z" transform="translate(0 0)" style="fill:#fff"/><path d="M365.4,58.6v6.7c0,3.9-2.2,6-6.1,6s-5.7-2-5.7-5.7v-7c0-1.9-.1-2.3-2-2.3v-.5H358v.5c-1.9,0-2,.4-2,2.3v7.8a3.6,3.6,0,0,0,3,3.9h.9q4.5,0,4.5-5.1V58.6c0-2.1-.4-2.3-2.1-2.3v-.5h5.1v.5C365.6,56.3,365.4,56.7,365.4,58.6Z" transform="translate(0 0)" style="fill:#fff"/><path d="M374.6,71h-6.5v-.5c1.9,0,2.1-.4,2.1-2.2V58.6c0-1.9-.2-2.3-2.1-2.3v-.5h7.3a9.7,9.7,0,0,1,3.4.6c3.2,1.2,4.7,3.6,4.7,7S380.2,71,374.6,71Zm-.2-14.4c-1.9,0-1.9.3-1.9,2.1v9.2c0,1.8.1,2.2,1.9,2.2,4.3,0,6.7-2.3,6.7-6.6S378.6,56.6,374.4,56.6Z" transform="translate(0 0)" style="fill:#fff"/><path d="M397,58.6l-3.6,5.6v4.1c0,1.8.1,2.2,2.1,2.2V71H389v-.5c1.9,0,2.1-.4,2.1-2.2V64.4l-3.7-5.8c-1.2-1.9-1.7-2.3-2.9-2.3v-.5H391v.5h-.3c-.9,0-1.4.2-1.4.7a3.3,3.3,0,0,0,.7,1.6l2.9,4.6,3.1-4.6a4.6,4.6,0,0,0,.7-1.6c0-.5-.4-.7-1.2-.7h-.4v-.5h5.1v.5C399,56.3,397.9,57.1,397,58.6Z" transform="translate(0 0)" style="fill:#fff"/><path d="M335.8,93v-.5c1.1,0,1.6-.3,1.6-.9a11.2,11.2,0,0,0-1.2-3.5h-6.1a14.8,14.8,0,0,0-1.3,3.5c0,.6.6.9,1.6.9V93h-4.6v-.5a2.4,2.4,0,0,0,2-1.5l5.7-13.5h.6l5.3,12.7c.9,2.1,1.1,2.3,2.2,2.3V93Zm-5.2-6h5.2l-2.6-6Z" transform="translate(0 0)" style="fill:#fff"/><path d="M355.6,88.8c0,2.4-2.5,4.2-4.9,4.2h-8.4v-.5c1.9,0,2.1-.4,2.1-2.2V80.6c0-1.9-.2-2.3-2.1-2.3v-.5H350c2.7,0,4.9,1.7,4.9,4a3.6,3.6,0,0,1-2.9,3.3A4.2,4.2,0,0,1,355.6,88.8Zm-2.9-7a2.9,2.9,0,0,0-2.9-2.9h-1.7c-1.2,0-1.4.4-1.4,1.6v4.2h3a2.8,2.8,0,0,0,3-2.6h0Zm-5.8,10a5.4,5.4,0,0,0,2.5.3c3,0,3.6-1.8,3.6-3.4a3.1,3.1,0,0,0-3.2-3h-3.1v5.2A2.9,2.9,0,0,0,346.9,91.8Z" transform="translate(0 0)" style="fill:#fff"/><path d="M365.8,78.3c1.9.8,2.7,1.9,2.7,3.5a4.7,4.7,0,0,1-4,4l4.2,5.4a2.8,2.8,0,0,0,2.3,1.3V93h-3.7l-4.9-6.8h-1.7v4.2c0,1.8.1,2.2,2.1,2.2v.5h-6.5v-.5c1.9,0,2.1-.4,2.1-2.2V80.7c0-1.9-.2-2.3-2.1-2.3v-.5h7.4A5.2,5.2,0,0,1,365.8,78.3Zm-3.3.5c-1.5,0-1.8.3-1.8,1.3v5.1h1c2.8,0,4.4-1.2,4.4-3.3S364.9,78.8,362.5,78.8Z" transform="translate(0 0)" style="fill:#fff"/><path d="M371.9,85.4a7.6,7.6,0,1,1,7.6,7.9A8,8,0,0,1,371.9,85.4Zm2.5,0c0,4,2,7,5.1,7s5.1-3,5.1-7-2-7-5.1-7S374.4,81.4,374.4,85.4Z" transform="translate(0 0)" style="fill:#fff"/><path d="M397.9,93v-.5q1.5,0,1.5-.9a11.2,11.2,0,0,0-1.2-3.5h-6a11.4,11.4,0,0,0-1.3,3.5q0,.9,1.5.9V93h-4.6v-.5a2.4,2.4,0,0,0,2-1.5l5.7-13.5h.6l5.3,12.7c.9,2.1,1.2,2.3,2.3,2.3V93Zm-5.2-6h5.2l-2.7-6Z" transform="translate(0 0)" style="fill:#fff"/><path d="M410.8,93h-6.4v-.5c1.9,0,2.1-.4,2.1-2.2V80.6c0-1.9-.2-2.3-2.1-2.3v-.5h7.3a9.6,9.6,0,0,1,3.3.6,6.9,6.9,0,0,1,4.8,7C419.8,90.2,416.4,93,410.8,93Zm-.2-14.4c-1.8,0-1.8.3-1.8,2.1v9.2c0,1.8,0,2.2,1.9,2.2,4.3,0,6.6-2.3,6.6-6.6S414.9,78.6,410.6,78.6Z" transform="translate(0 0)" style="fill:#fff"/><path d="M509.5,200.8H516v.6h-1.3l-.6.2a1.4,1.4,0,0,0-.2.6,4.9,4.9,0,0,0-.1,1.2v10a8.6,8.6,0,0,0,.1,1.6.9.9,0,0,0,.1.5l.4.2,1.5.2h.1v.6h-6.6v-.6h1.5l.5-.2.2-.5V202.4c-.1-.3-.1-.4-.2-.5l-.4-.2-1.5-.2h-.1v-.6Z" transform="translate(0 0)" style="fill:#fff"/><path d="M517.4,200.9H529c-.1.7-.3,1.8-.4,3.4h-.7v-.2a10.9,10.9,0,0,0-.1-1.8,4.5,4.5,0,0,0-2-.4h-4.1V208h4.7c.1-.1.2-.1.2-.3s.1-.4.1-.7v-.8h.7a19.3,19.3,0,0,0-.1,2.4v2.6h-.7v-.7c-.1-.5-.1-.8-.2-.9l-.2-.3-.8-.2h-3.8c-.1,1-.1,2.1-.1,3.1s0,2.3.1,3.5H527a2.8,2.8,0,0,0,1.3-.3,5.6,5.6,0,0,0,.4-1.2l.2-1.1h.8a4.4,4.4,0,0,0-.2,1.6,14.8,14.8,0,0,0-.1,2.1H518.3v-.4h.1l.8-.4a13.4,13.4,0,0,0,.1-2c.1-1.2.1-2.2.1-2.8v-8.1a1.7,1.7,0,0,1-.1-.7c-.1-.2-.1-.3-.2-.3l-.2-.2h-1.5Z" transform="translate(0 0)" style="fill:#fff"/><path d="M531.1,200.9h6.6v.6h-1.3l-.6.2c-.2.1-.2.3-.3.6v8.9a22.6,22.6,0,0,0,.1,2.6v1.9h5.7a2.8,2.8,0,0,0,1.3-.3,6.5,6.5,0,0,0,.4-1.3l.2-1.1h.8a5,5,0,0,0-.2,1.7,14.8,14.8,0,0,0-.1,2.1H532.2v-.4h.1l.8-.4a7.6,7.6,0,0,0,.1-1.5c.1-1.1.1-2.2.1-3.3v-7c0-.8-.1-1.4-.1-1.6a.8.8,0,0,0-.2-.5l-.4-.2-1.5-.2h0Z" transform="translate(0 0)" style="fill:#fff"/><path d="M557.1,200.8h.1c0,.7-.1,1.9-.1,3.6h-.7v-1a3.6,3.6,0,0,0-.2-1,.4.4,0,0,0-.1-.3h-4.2c-.1,1.7-.1,2.7-.1,3v10.1c.1.3.1.5.2.5l.4.2,1.5.2h.1v.6h-6.6v-.6h1.5l.5-.2.2-.5V204.9c0-.2-.1-1.1-.1-3H546a1.5,1.5,0,0,0-.9.2l-.2,1.2v1h-.7c0-1.2,0-2.4-.1-3.6h13Z" transform="translate(0 0)" style="fill:#fff"/><path d="M558.5,212.8h.8c0,1,.1,1.6.1,1.8l.6.7,1.4.5a4.7,4.7,0,0,0,1.7.3,5.4,5.4,0,0,0,2.1-.5,2.7,2.7,0,0,0,1.5-1.3,2.5,2.5,0,0,0,.5-1.9,3,3,0,0,0-.2-1.3,2.7,2.7,0,0,0-.7-.8l-1-.5-1.8-.4-1.7-.3-1.3-.5a4.1,4.1,0,0,1-1.1-.7,3.4,3.4,0,0,1-.6-1.2,3.2,3.2,0,0,1-.3-1.4,4.7,4.7,0,0,1,1.5-3.5,5.6,5.6,0,0,1,3.9-1.3l2.1.2,2.1.7v.2a14.3,14.3,0,0,0-.3,2.9H567a9.7,9.7,0,0,0-.1-1.7c0-.2-.3-.5-1-.8a3.1,3.1,0,0,0-2.1-.5l-1.8.3a3.4,3.4,0,0,0-1.2,1.2,3.4,3.4,0,0,0-.5,1.7,2.7,2.7,0,0,0,.3,1.2,2.7,2.7,0,0,0,.7.8l.9.4,2,.4a9.5,9.5,0,0,1,2.9.7,2.8,2.8,0,0,1,1.4,1.2,3.9,3.9,0,0,1,.6,2.1,4.8,4.8,0,0,1-2,4,6.7,6.7,0,0,1-4.7,1.6,11.5,11.5,0,0,1-4.1-.8v-.2C558.4,215,558.5,213.9,558.5,212.8Z" transform="translate(0 0)" style="fill:#fff"/><path d="M569.6,219.9l1-1.7a6.1,6.1,0,0,0,.5-1.2,1.7,1.7,0,0,0,.3-1,7.7,7.7,0,0,0,.2-1.5h.6l1.7-.5.3.3a24.6,24.6,0,0,1-3.4,5.6l-.9.4Z" transform="translate(0 0)" style="fill:#fff"/><path d="M589,200.8h.1c0,.7-.1,1.9-.1,3.6h-.7v-1a3.4,3.4,0,0,1-.1-1l-.2-.3h-4.2c-.1,1.7-.1,2.7-.1,3v8.7a8.6,8.6,0,0,0,.1,1.6c0,.3,0,.5.1.5l.4.2,1.5.2h.1v.6h-6.6v-.6h1.5l.5-.2c.1-.1.1-.2.2-.5a7.6,7.6,0,0,0,.1-1.5v-8.9c0-.2-.1-1.1-.1-3H578c-.5,0-.8.1-.8.2a2.7,2.7,0,0,0-.3,1.2v1h-.7c0-1.2,0-2.4-.1-3.6h13.1Z" transform="translate(0 0)" style="fill:#fff"/><path d="M590.1,209a11.3,11.3,0,0,1,.5-3.2,7.4,7.4,0,0,1,1.6-2.7,8.7,8.7,0,0,1,2.8-1.9,9.9,9.9,0,0,1,3.8-.7,8.2,8.2,0,0,1,6,2.1,7.3,7.3,0,0,1,2.3,5.7,10,10,0,0,1-1.1,4.5,7.1,7.1,0,0,1-3.2,3.2,10.4,10.4,0,0,1-4.6,1.1,9.7,9.7,0,0,1-3.4-.6,6.8,6.8,0,0,1-2.6-1.8,7.8,7.8,0,0,1-1.6-2.8A9.3,9.3,0,0,1,590.1,209Zm2.4-.8a10.3,10.3,0,0,0,.4,3,8.4,8.4,0,0,0,1.3,2.7,6.5,6.5,0,0,0,2.1,1.6,5.8,5.8,0,0,0,2.6.6,6.8,6.8,0,0,0,3.1-.8,5.5,5.5,0,0,0,2-2.5,9.4,9.4,0,0,0,.7-3.7,8.4,8.4,0,0,0-.8-4.1,4.7,4.7,0,0,0-2.3-2.7,6.2,6.2,0,0,0-3.3-.8,5.4,5.4,0,0,0-4.3,1.7A7.4,7.4,0,0,0,592.5,208.2Z" transform="translate(0 0)" style="fill:#fff"/><path d="M608.5,200.9h11.6a19.7,19.7,0,0,0-.4,3.4H619v-.2a11,11,0,0,0-.2-1.8,4.1,4.1,0,0,0-1.9-.4h-4.2V208h4.7l.2-.3c0-.2.1-.5.1-.7v-.8h.7v5h-.7v-.7l-.2-.9-.2-.3-.8-.2h-3.9v6.6h5.5a2.8,2.8,0,0,0,1.3-.3,2.7,2.7,0,0,0,.3-1.2l.3-1.1h.7c0,.3-.1.8-.2,1.6a14.8,14.8,0,0,0-.1,2.1h-11v-.4h.1l.7-.4a4.4,4.4,0,0,0,.2-2c0-1.2.1-2.2.1-2.8v-8.1c0-.3,0-.6-.1-.7s0-.3-.1-.3l-.2-.2h-1.5Z" transform="translate(0 0)" style="fill:#fff"/><path d="M626.6,209.1v4.5a8.6,8.6,0,0,0,.1,1.6.9.9,0,0,0,.1.5l.5.2,1.4.2h.1v.6h-6.6v-.6h1.5l.5-.2c.1-.1.1-.3.2-.5v-13c-.1-.3-.1-.4-.2-.5a.5.5,0,0,0-.4-.2l-1.5-.2h-.1v-.6h11.2a5.9,5.9,0,0,0-.2,1.3c0,.5-.1,1.1-.1,2h-.7a2.8,2.8,0,0,1-.1-.9c-.1-.4-.1-.8-.2-1.1a8.5,8.5,0,0,0-3.2-.4h-2.2c-.1,1.4-.1,2.9-.1,4.3V208H631l.2-.3c.1-.1.1-.4.2-.8v-.6h.8V210c0,.6.1,1.1.1,1.4h-.9v-.9c0-.4-.1-.7-.1-.9l-.3-.3h-4.4Z" transform="translate(0 0)" style="fill:#fff"/><path d="M634.9,200.9h6.6v.6h-1.3l-.6.2a1.4,1.4,0,0,0-.2.6,4.9,4.9,0,0,0-.1,1.2v12.1H645a1.3,1.3,0,0,0,1.6-.9.9.9,0,0,0,0-.7l.3-1.1h.7c0,.3-.1.8-.2,1.7a14.8,14.8,0,0,0-.1,2.1H636.1v-.4h.1l.7-.4a7.7,7.7,0,0,0,.2-1.5v-12c-.1-.3-.1-.4-.2-.5l-.4-.2-1.5-.2h-.1Z" transform="translate(0 0)" style="fill:#fff"/><path d="M648.4,219.9a9.5,9.5,0,0,0,1-1.7,6.1,6.1,0,0,0,.5-1.2,1.7,1.7,0,0,0,.3-1,7.7,7.7,0,0,0,.2-1.5h.7l1.6-.5.3.3a21.5,21.5,0,0,1-3.4,5.6l-.9.4Z" transform="translate(0 0)" style="fill:#fff"/><path d="M509.7,234.8h.8a10.9,10.9,0,0,0,.1,1.8l.6.7,1.4.5a4.6,4.6,0,0,0,3.8-.2,2.7,2.7,0,0,0,1.5-1.3,2.5,2.5,0,0,0,.5-1.9,5.9,5.9,0,0,0-.2-1.3,2.7,2.7,0,0,0-.7-.8,2.2,2.2,0,0,0-1.1-.5l-1.7-.4-1.8-.3-1.2-.5a4.1,4.1,0,0,1-1.1-.7,7.5,7.5,0,0,1-.7-1.2,6.8,6.8,0,0,1-.2-1.4,4.7,4.7,0,0,1,1.5-3.5,5.6,5.6,0,0,1,3.9-1.3l2.1.2,2.1.7v.2a14.3,14.3,0,0,0-.3,2.9h-.8a9.7,9.7,0,0,0-.1-1.7c0-.2-.3-.5-1-.8a3.8,3.8,0,0,0-2.1-.5l-1.8.3a3.7,3.7,0,0,0-1.3,1.2,4.7,4.7,0,0,0-.4,1.7,2.7,2.7,0,0,0,.3,1.2,1.6,1.6,0,0,0,.6.8l1,.4,2,.4a9.5,9.5,0,0,1,2.9.7,2.8,2.8,0,0,1,1.4,1.2,3.9,3.9,0,0,1,.6,2.1,4.8,4.8,0,0,1-2,4,6.7,6.7,0,0,1-4.7,1.6,11.5,11.5,0,0,1-4.1-.8v-.2A18.3,18.3,0,0,0,509.7,234.8Z" transform="translate(0 0)" style="fill:#fff"/><path d="M521.4,238.8h-.1v-.6h1.2c.2,0,.3-.1.4-.3a6.1,6.1,0,0,0,.7-1.4l1.2-2.5,3.1-7c.5-1.3,1.1-2.7,1.7-4h.7l4.8,11.2.6,1.5.7,1.4a4.1,4.1,0,0,0,.5.9l.3.2h1.1v.6h-6.1v-.6h1.7c.2,0,.3-.2.3-.4a1.4,1.4,0,0,0-.2-.6l-1.4-3.5h-6.5l-1.2,2.9a2.7,2.7,0,0,0-.3,1.2c0,.2.1.3.3.4h1.6v.6Zm5.1-6.3h5.7l-2.8-6.8Z" transform="translate(0 0)" style="fill:#fff"/><path d="M550.7,222.8h.1c-.1,1.2-.1,2.4-.1,3.6h-.8v-1a3.4,3.4,0,0,0-.1-1l-.2-.3h-4.2c-.1,1.7-.1,2.7-.1,3v8.7a8.6,8.6,0,0,0,.1,1.6.9.9,0,0,0,.1.5l.4.2,1.5.2h.1v.6h-6.6v-.6h1.5l.5-.2c.1-.1.1-.2.2-.5a7.6,7.6,0,0,0,.1-1.5v-8.9c0-.2,0-1.1-.1-3h-3.5c-.5,0-.7.1-.8.2a2.5,2.5,0,0,0-.2,1.2l-.2,1h-.7c0-1.2,0-2.4-.1-3.6h13.2Z" transform="translate(0 0)" style="fill:#fff"/><path d="M550.2,241.9a9.5,9.5,0,0,0,1-1.7,6.1,6.1,0,0,0,.5-1.2,1.7,1.7,0,0,0,.3-1,7.7,7.7,0,0,0,.2-1.5h.7l1.6-.5.3.3a21.5,21.5,0,0,1-3.4,5.6l-.9.4Z" transform="translate(0 0)" style="fill:#fff"/><path d="M575.4,222.8h.1c-.1,1.2-.1,2.4-.1,3.6h-.7v-1a3.6,3.6,0,0,0-.2-1v-.3h-4.3c0,1.7-.1,2.7-.1,3v10.1c.1.3.1.5.2.5l.4.2,1.5.2h.1v.6h-6.6v-.6h1.5l.4-.2a.8.8,0,0,0,.2-.5,7.6,7.6,0,0,0,.1-1.5v-12h-3.5a1.5,1.5,0,0,0-.9.2,5,5,0,0,0-.2,1.2v1h-.9c0-1.9-.1-3-.1-3.6h13.1Z" transform="translate(0 0)" style="fill:#fff"/><path d="M597.1,222.9h.1v.6h-1.7l-.4.3c-.1.1-.1.4-.1.8s0,1.6-.1,3.4v5.2a22.6,22.6,0,0,0,.1,2.6,8.6,8.6,0,0,0,.1,1.6c.1.2.2.3.4.3a4.4,4.4,0,0,0,1.6.2h.1v.5h-6.6v-.2h1.7l.4-.3a2.8,2.8,0,0,0,.1-.9c0-.4.1-1.5.1-3.4v-8.4l-3.9,8.1c-1,2-1.8,3.9-2.5,5.7H586l-1-2.3-5.4-11.2v7.9a20.9,20.9,0,0,0,.1,2.5,4.9,4.9,0,0,0,.1,1.7l.4.3,1.6.2h.1v.6h-5.5v-.5h.1l1.5-.2c.2,0,.3-.1.4-.3a2.4,2.4,0,0,0,.2-.8v-11a3.2,3.2,0,0,0-.2-1.7c0-.2-.2-.3-.3-.4h-1.7v-.5h4.3q.9,2.1,1.8,3.9l4.3,8.7,3.8-8a38.2,38.2,0,0,0,2.1-4.6h4.4Z" transform="translate(0 0)" style="fill:#fff"/><path d="M598.2,238.8h-.1v-.6h1.1c.2,0,.3-.1.5-.3a6.1,6.1,0,0,0,.7-1.4l1.2-2.5,3-7,1.8-4h.7l4.8,11.2.6,1.5a6.1,6.1,0,0,0,.7,1.4,4.1,4.1,0,0,0,.5.9l.3.2h1v.6h-6v-.6h1.7c.2,0,.3-.2.3-.4a1.4,1.4,0,0,0-.2-.6l-1.4-3.5h-6.5l-1.2,2.9a2.7,2.7,0,0,0-.3,1.2c0,.2.1.3.3.4h1.6v.6Zm5.1-6.3H609l-2.8-6.8Z" transform="translate(0 0)" style="fill:#fff"/><path d="M627.4,222.8h.1c0,.7-.1,1.9-.1,3.6h-.7v-1a3.4,3.4,0,0,1-.1-1l-.2-.3h-4.2c-.1,1.7-.1,2.7-.1,3v8.7a8.6,8.6,0,0,0,.1,1.6c0,.3,0,.5.1.5l.4.2,1.5.2h.1v.6h-6.6v-.6h1.5l.5-.2c.1-.1.1-.2.2-.5a7.6,7.6,0,0,0,.1-1.5v-8.9c0-.2-.1-1.1-.1-3h-3.5c-.5,0-.8.1-.8.2a2.7,2.7,0,0,0-.3,1.2v1h-.9c0-1.2,0-2.4-.1-3.6h13.1Z" transform="translate(0 0)" style="fill:#fff"/><path d="M598.3,375.6h.1c0,.7-.1,1.8-.1,3.5h-.7v-1a3.4,3.4,0,0,0-.1-1c-.1-.2-.1-.3-.2-.3l-.7-.2h-3.5c-.1,1.7-.1,2.7-.1,2.9v8.8a8.6,8.6,0,0,0,.1,1.6.9.9,0,0,0,.1.5l.4.2h1.6v.6h-6.6v-.6h1.5l.5-.2c.1,0,.1-.2.2-.4a8.6,8.6,0,0,0,.1-1.6v-8.9c0-.1,0-1.1-.1-2.9h-3.5c-.5.1-.8.1-.8.3a2.5,2.5,0,0,0-.2,1.2l-.2,1h-.7c0-1.2,0-2.3-.1-3.5Z" transform="translate(0 0)" style="fill:#fff"/><path d="M599.4,383.7a10.6,10.6,0,0,1,.5-3.1,5.9,5.9,0,0,1,1.7-2.7,6.1,6.1,0,0,1,2.8-1.9,9.4,9.4,0,0,1,3.7-.7,9.1,9.1,0,0,1,6.1,2.1,7.4,7.4,0,0,1,2.2,5.6,8.3,8.3,0,0,1-1.1,4.6,6.9,6.9,0,0,1-3.2,3.1,9.3,9.3,0,0,1-4.6,1.2,9.7,9.7,0,0,1-3.4-.6,8.3,8.3,0,0,1-2.6-1.9,7.8,7.8,0,0,1-1.6-2.8A9.3,9.3,0,0,1,599.4,383.7Zm2.4-.7a9.2,9.2,0,0,0,.4,2.9,6.6,6.6,0,0,0,3.4,4.4,5.8,5.8,0,0,0,2.6.6,6.8,6.8,0,0,0,3.1-.8,5.7,5.7,0,0,0,2.1-2.5,9.9,9.9,0,0,0,.7-3.8,11.5,11.5,0,0,0-.8-4.1,5.5,5.5,0,0,0-2.4-2.6,6.3,6.3,0,0,0-3.3-.9,5.7,5.7,0,0,0-4.3,1.7A7.9,7.9,0,0,0,601.8,383Z" transform="translate(0 0)" style="fill:#fff"/><path d="M617.6,375.6h7.7a11.5,11.5,0,0,1,2.6.3,3,3,0,0,1,1.7,1.2,3.1,3.1,0,0,1,.7,2.1,4.1,4.1,0,0,1-.5,1.9,3.4,3.4,0,0,1-1.3,1.6,4.2,4.2,0,0,1-1.7,1,5.7,5.7,0,0,1-1.8.3l-1.5-.2-.2-.7h.1l1.3.2a3.1,3.1,0,0,0,2.4-1,3.8,3.8,0,0,0,0-4.9,3.7,3.7,0,0,0-2.8-.9,5.9,5.9,0,0,0-2.3.4c0,.6-.1,2-.1,4.2v7.4c0,.8.1,1.3.1,1.6a.8.8,0,0,0,.2.5l.4.2h1.6v.6h-6.7v-.6H619l.5-.2c.1,0,.1-.2.2-.4a8.6,8.6,0,0,0,.1-1.6v-9.7a9.7,9.7,0,0,1-.1-1.7.8.8,0,0,0-.2-.5l-.4-.2h-1.6v-.9Z" transform="translate(0 0)" style="fill:#fff"/><path d="M653.8,390.3l-1.9,1.5h-.8a4.6,4.6,0,0,1-2-.5A5.7,5.7,0,0,1,647,390a8.9,8.9,0,0,1-2.5,1.4,5.4,5.4,0,0,1-2.2.4,4,4,0,0,1-3.4-1.4,4.4,4.4,0,0,1-1.3-3.1c0-2,1.2-3.7,3.6-4.9a7.8,7.8,0,0,1-.7-3,3.4,3.4,0,0,1,.1-1,1.6,1.6,0,0,1,.4-.7,1.2,1.2,0,0,1,.7-.7l.9-.8.8-.5.9-.2a2,2,0,0,1,1.5.6,2.1,2.1,0,0,1,.5,1.5c0,1.6-1.1,3.1-3.2,4.6a22,22,0,0,0,2.1,3.2,21.6,21.6,0,0,0,2.5,2.7,3.6,3.6,0,0,0,1.2-2.8,3.6,3.6,0,0,0-.2-1l-.3-.6h-2v-.2l.7-1h6.6a5.9,5.9,0,0,0-.2,1.3h-.1l-2.8-.2h-.4a3.6,3.6,0,0,1,.2,1,5.8,5.8,0,0,1-1.9,3.9,7,7,0,0,0,4,1.5h.5l.7-.3h.2v.6Zm-7.5-.8c-1.4-1.5-2.4-2.6-3-3.4l-1.8-2.8a7.5,7.5,0,0,0-1.5,1.6,4.7,4.7,0,0,0-.4,1.7,4.3,4.3,0,0,0,1.1,2.8,3.6,3.6,0,0,0,2.7,1.2,4.4,4.4,0,0,0,2.9-1.1Zm-3.6-8a5.4,5.4,0,0,0,1.5-1.5,2.7,2.7,0,0,0,.6-1.7,1.7,1.7,0,0,0-.3-1,1.1,1.1,0,0,0-.9-.4,1.3,1.3,0,0,0-1,.4,2.7,2.7,0,0,0-.5,1.5,13.1,13.1,0,0,0,.6,2.7Z" transform="translate(0 0)" style="fill:#fff"/><path d="M660.9,375.6h6.5v.5h-1.9a1.4,1.4,0,0,0-.2.6,5.7,5.7,0,0,0-.1,1.3v10a8.6,8.6,0,0,0,.1,1.6c0,.2.1.3.1.5l.5.2h1.5v.6h-6.6v-.6h1.5l.5-.2c.1,0,.1-.2.2-.4v-13c-.1-.2-.1-.4-.2-.5l-.4-.2h-1.6v-.5Z" transform="translate(0 0)" style="fill:#fff"/><path d="M675.7,391.7c-.1-.4-.6-1.6-1.4-3.8l-3.8-9.5a14.2,14.2,0,0,0-.8-1.8l-1.4-.3h-.1v-.5h6.1v.6h-1.7a.3.3,0,0,0-.3.3c0,.1.2.5.4,1.2s.5,1.3.6,1.8l3.6,8.9,2.9-7.4.9-2.4a6.6,6.6,0,0,0,.6-2c0-.2-.1-.4-.3-.4l-1.7-.2h-.1v-.5h5v.5h-1.1l-.3.4-.8,1.8-3.5,8.6a40.4,40.4,0,0,0-1.6,4.5Z" transform="translate(0 0)" style="fill:#fff"/><path d="M684.8,376.6h-.1v-.4h.1l3.2-.6.6.6.9,1.4a12,12,0,0,1,1.6,2.7l1.9,3.5,1.1-1.8,1.3-2.1,2.4-4.1h1.7v.2l-1.7,2.2-1.8,2.6-1.4,2.3a5.1,5.1,0,0,0-.9,1.6,1.7,1.7,0,0,0-.1.7v3.3a6.6,6.6,0,0,0,.1,1.4.8.8,0,0,0,.2.5l.4.2h1.5v.6h-6.6v-.6h1.5l.5-.2c.1,0,.1-.2.2-.4v-5.3l-1.7-2.9-1-1.6-1.2-1.8a7.6,7.6,0,0,0-1.1-1.4c-.2-.2-.4-.4-.6-.4Z" transform="translate(0 0)" style="fill:#fff"/><path d="M585.1,397.7h6.6v.5h-1.9a1.4,1.4,0,0,0-.2.6c0,.3-.1.7-.1,1.3v6.1a22.6,22.6,0,0,0,.1,2.6,3.2,3.2,0,0,0,.3,1.4,3.6,3.6,0,0,0,.7,1,6.1,6.1,0,0,0,1.4.7l2.1.2a8.5,8.5,0,0,0,2.3-.3,4.2,4.2,0,0,0,1.7-1,2.8,2.8,0,0,0,.7-1.7c.1-1,.2-2,.2-3v-5.8a11,11,0,0,0-.2-1.8c0-.2-.2-.3-.4-.4h-1.6v-.5h5.5v.5h-1.5l-.5.2-.2.4v7.4c0,1.1,0,2.1-.1,3.2a4.4,4.4,0,0,1-.7,1.9,8,8,0,0,1-1.3,1.3l-1.9.8a10.7,10.7,0,0,1-2.5.3,8.4,8.4,0,0,1-2.7-.4,4,4,0,0,1-2-.9l-1-1.2a4,4,0,0,1-.3-1.5,22.6,22.6,0,0,1-.1-2.6v-8.2c-.1-.2-.1-.4-.2-.5l-.4-.2h-1.6Z" transform="translate(0 0)" style="fill:#fff"/><path d="M603.4,413.5h-.1V413h1.2c.3,0,.5-.1.5-.2a.8.8,0,0,0,.2-.5c0-.2.1-.7.1-1.6V399.6c0-.4,0-.6-.2-.8a.7.7,0,0,0-.6-.4h-1.3v-.5h4l3.6,4.7,5.3,6.6,1.9,2.3V400.7a8.6,8.6,0,0,1-.1-1.6c-.1-.3-.1-.4-.2-.5l-.5-.2H616v-.5h5v.5h-1.2c-.3.1-.4.1-.5.3a.6.6,0,0,0-.1.4,8.6,8.6,0,0,0-.1,1.6,10.9,10.9,0,0,0-.1,1.8v8.4c.1,1,.1,2,.1,3l-2-.4-.7-1-2.4-2.9-7.7-9.5v8.6c0,.3.1,1,.1,1.8a4.3,4.3,0,0,0,.1,1.6.6.6,0,0,0,.1.4.5.5,0,0,0,.4.2h1.3v.5h-4.9Z" transform="translate(0 0)" style="fill:#fff"/><path d="M622.5,397.6H629v.5h-1.9l-.3.6v12.9c.1.2.1.4.2.5l.4.2H629v.6h-6.6v-.6h1.5a.5.5,0,0,0,.4-.2c.1,0,.2-.2.2-.4a8.6,8.6,0,0,0,.1-1.6v-9.7a9.7,9.7,0,0,0-.1-1.7c0-.2-.1-.3-.1-.5l-.4-.2h-1.6v-.5Z" transform="translate(0 0)" style="fill:#fff"/><path d="M636,397.6h7.7a11.5,11.5,0,0,1,2.6.3,3,3,0,0,1,1.7,1.2,3.9,3.9,0,0,1,.6,2.1,4.1,4.1,0,0,1-.4,1.9,6.1,6.1,0,0,1-3.1,2.6,5.7,5.7,0,0,1-1.8.3l-1.5-.2-.2-.7h.1l1.4.2a2.9,2.9,0,0,0,2.3-1,3.8,3.8,0,0,0,0-4.9,3.7,3.7,0,0,0-2.8-.9,5.4,5.4,0,0,0-2.2.4,29.5,29.5,0,0,0-.2,4.2v9c.1.2.1.4.2.5l.4.2h1.6v.6h-6.6v-.6h1.6a.5.5,0,0,0,.4-.2c.1,0,.2-.2.2-.4a8.6,8.6,0,0,0,.1-1.6v-9.7a9.7,9.7,0,0,0-.1-1.7c0-.2-.1-.3-.1-.5l-.4-.2h-1.6v-.9Z" transform="translate(0 0)" style="fill:#fff"/><path d="M649.7,397.7h7.8c1.9,0,3.2.3,3.9,1a3.5,3.5,0,0,1,1,2.5,4.1,4.1,0,0,1-.5,1.8,5.7,5.7,0,0,1-1.5,1.6,6.2,6.2,0,0,1-2.6.9l1.1,1.6,1.6,2.1,1.7,2.2a6.9,6.9,0,0,0,1.1,1.3l.5.2h.6v.5h-3.1l-2.4-3.2a62.5,62.5,0,0,0-4-5v-.4h.9a4.9,4.9,0,0,0,3.1-.9,3.6,3.6,0,0,0,1.1-2.6,2.3,2.3,0,0,0-1-2.2,4.3,4.3,0,0,0-2.7-.8,5.4,5.4,0,0,0-2.2.4,19.7,19.7,0,0,0-.2,4.2v9c.1.2.1.4.2.5l.4.2h1.6v.6h-6.6v-.6h1.4l.5-.2c.1,0,.2-.2.2-.4s.1-.8.1-1.6v-9.7c0-.9-.1-1.4-.1-1.7s-.1-.3-.1-.5l-.5-.2h-1.5Z" transform="translate(0 0)" style="fill:#fff"/><path d="M665.4,397.7H677a18.6,18.6,0,0,0-.4,3.3h-.7a12.3,12.3,0,0,0-.2-1.9,6.5,6.5,0,0,0-1.9-.4h-1.9l-2.3.2V405h4.8l.2-.3c0-.2.1-.4.1-.8v-.7h.7v5h-.7v-.6a3.4,3.4,0,0,0-.1-1l-.2-.2h0l-.8-.2h-3.9v6.6h5.5a2.8,2.8,0,0,0,1.3-.3l.3-1.2a2.7,2.7,0,0,0,.3-1.2h.7c0,.3-.1.9-.2,1.7a14.8,14.8,0,0,0-.1,2.1h-11v-.4h.1l.7-.4a13.6,13.6,0,0,0,.2-2V399.7a2.2,2.2,0,0,0-.1-.8.4.4,0,0,0-.1-.3h-1.9Z" transform="translate(0 0)" style="fill:#fff"/><path d="M679.3,397.6H687a11.5,11.5,0,0,1,2.6.3,3,3,0,0,1,1.7,1.2,3.9,3.9,0,0,1,.6,2.1,4.1,4.1,0,0,1-.4,1.9,6.1,6.1,0,0,1-3.1,2.6l-1.8.3-1.5-.2-.2-.7h.1l1.4.2a2.9,2.9,0,0,0,2.3-1,3.8,3.8,0,0,0,0-4.9,3.7,3.7,0,0,0-2.8-.9,5.4,5.4,0,0,0-2.2.4c-.1,1.4-.1,2.8-.1,4.2v9c.1.2.1.4.2.5l.4.2h1.6v.6h-6.6v-.6h1.5l.4-.2c.1,0,.2-.2.2-.4a8.6,8.6,0,0,0,.1-1.6v-9.7a9.7,9.7,0,0,0-.1-1.7c0-.2-.1-.3-.1-.5l-.4-.2h-1.6v-.9Z" transform="translate(0 0)" style="fill:#fff"/><path d="M515.5,548.9h.1v.5h-1.7l-.4.3a2.2,2.2,0,0,0-.1.8c0,.4-.1,1.6-.1,3.5v7.7a8.8,8.8,0,0,0,.2,1.6.8.8,0,0,0,.4.4h1.7v.5h-4.9l.4-.3a2.8,2.8,0,0,0,.1-.9c0-.4.1-1.5.1-3.4v-8.4l-3.9,8.1c-1,2-1.8,3.9-2.5,5.7h-.5l-1-2.3L498,551.6v10.3a9.9,9.9,0,0,0,.2,1.7c.1.2.2.3.4.3a4.4,4.4,0,0,0,1.6.2h.1v.5h-5.5v-.4h1.6l.4-.3a2.2,2.2,0,0,0,.1-.8c.1-1.2.1-2.3.1-3.5V552a9.9,9.9,0,0,0-.2-1.7c0-.2-.2-.3-.4-.4h-1.6v-.5h4.3q.9,2.1,1.8,3.9l4.3,8.8,3.8-8,2.1-4.7h4.4Z" transform="translate(0 0)" style="fill:#fff"/><path d="M516.6,564.8h-.1v-.6h1.1l.5-.3.7-1.5,1.2-2.5,3-6.9,1.8-4.1h.7l4.8,11.3.6,1.5c.2.4.4.9.7,1.4s.4.8.5.8l.3.3h1v.6h-6v-.6H529a.4.4,0,0,0,.4-.4h0l-.2-.6-1.4-3.4h-6.5l-1.2,2.8a2.7,2.7,0,0,0-.3,1.2c0,.2.1.3.3.4h1.6v.6Zm5.1-6.3h5.7l-2.8-6.8Z" transform="translate(0 0)" style="fill:#fff"/><path d="M534.6,548.8h7.7a7.5,7.5,0,0,1,2.6.4,3,3,0,0,1,1.7,1.2,3.1,3.1,0,0,1,.7,2,4.6,4.6,0,0,1-.5,2,5,5,0,0,1-3,2.5,5.7,5.7,0,0,1-1.8.3h-1.5l-.2-.7h.1l1.3.2a3.5,3.5,0,0,0,2.4-1,3.8,3.8,0,0,0,.9-2.5,3.6,3.6,0,0,0-.9-2.4,3.7,3.7,0,0,0-2.8-.9l-2.3.3c0,.6-.1,2-.1,4.2v7.4c0,.9.1,1.4.1,1.7s.1.4.2.4l.4.3h1.6v.5h-6.7v-.5H536l.5-.2c.1-.1.1-.2.2-.5a7.6,7.6,0,0,0,.1-1.5v-9.8c0-.8-.1-1.4-.1-1.6a.8.8,0,0,0-.2-.5c0-.1-.2-.2-.4-.2h-1.6v-1.1Z" transform="translate(0 0)" style="fill:#fff"/><path d="M548.5,548.8h7.7a7.5,7.5,0,0,1,2.6.4,3,3,0,0,1,1.7,1.2,3.1,3.1,0,0,1,.7,2,4.6,4.6,0,0,1-.5,2,4,4,0,0,1-1.3,1.6,5.6,5.6,0,0,1-1.7.9,5.7,5.7,0,0,1-1.8.3h-1.5l-.2-.7h.1l1.3.2a3.5,3.5,0,0,0,2.4-1,3.8,3.8,0,0,0,.9-2.5,3.6,3.6,0,0,0-.9-2.4,4.1,4.1,0,0,0-2.8-.9l-2.3.3c0,.6-.1,2-.1,4.2v7.4c0,.9.1,1.4.1,1.7s.1.4.2.4l.4.3h1.6v.5h-6.7v-.5h1.5l.5-.2c.1-.1.1-.2.2-.5a7.6,7.6,0,0,0,.1-1.5v-9.8a8.6,8.6,0,0,1-.1-1.6.8.8,0,0,0-.2-.5c0-.1-.2-.2-.4-.2h-1.6v-1.1Z" transform="translate(0 0)" style="fill:#fff"/><path d="M583.2,562.8l-.5,1.1a12.4,12.4,0,0,1-5.3,1.2,9.4,9.4,0,0,1-6.6-2.3,7.5,7.5,0,0,1-2.5-6,7.9,7.9,0,0,1,1.3-4.5,7.5,7.5,0,0,1,3.3-2.8,11,11,0,0,1,4.7-1,14.3,14.3,0,0,1,2.9.3,11.3,11.3,0,0,1,2.4.8h.1c-.1.4-.3,1.5-.5,3.1h-.7v-1.9a5,5,0,0,0-1.9-1,6.9,6.9,0,0,0-2.5-.4,8.1,8.1,0,0,0-3.4.8,5.9,5.9,0,0,0-2.3,2.4,7.3,7.3,0,0,0-.8,3.8,8.6,8.6,0,0,0,.9,3.9,7.5,7.5,0,0,0,2.7,2.6,9,9,0,0,0,4,.9,6.2,6.2,0,0,0,1.9-.2l1.5-.4,1.2-.7Z" transform="translate(0 0)" style="fill:#fff"/><path d="M584.3,564.8h-.1v-.6h1.2l.4-.3a10.1,10.1,0,0,0,.7-1.5l1.2-2.5,3.1-6.9c.5-1.4,1.1-2.8,1.7-4.1h.7l4.8,11.3.7,1.5.6,1.4c.2.5.4.8.5.8l.3.3h1.1v.6h-6.1v-.6h1.7c.2,0,.3-.2.3-.4l-.2-.6-1.3-3.4H589l-1.2,2.8a2.7,2.7,0,0,0-.3,1.2c0,.2.1.3.3.4h1.6v.6Zm5.1-6.3h5.7l-2.8-6.8Z" transform="translate(0 0)" style="fill:#fff"/><path d="M602.2,548.9H610c1.9,0,3.2.4,3.9,1.1a3.5,3.5,0,0,1,1,2.4,4.1,4.1,0,0,1-.5,1.9,4,4,0,0,1-1.4,1.5,6.3,6.3,0,0,1-2.7,1l1.1,1.4,1.6,2.1,1.7,2.2,1.1,1.3.5.2h.7v.5h-3.2l-2.4-3.3c-1.3-1.8-2.6-3.4-4-5l.2-.3h.9a4.6,4.6,0,0,0,3-.9,3.6,3.6,0,0,0,1.1-2.6,2.9,2.9,0,0,0-1-2.3,4.2,4.2,0,0,0-2.7-.7,8.3,8.3,0,0,0-2.2.3,29.5,29.5,0,0,0-.1,4.2V563c.1.2.1.4.2.4l.4.3h1.6v.5h-5.1l.4-.2a.8.8,0,0,0,.2-.5,7.6,7.6,0,0,0,.1-1.5v-9.8a8.6,8.6,0,0,0-.1-1.6.9.9,0,0,0-.1-.5.5.5,0,0,0-.4-.2h-1.6Z" transform="translate(0 0)" style="fill:#fff"/><path d="M617.9,548.9h11.6a19.7,19.7,0,0,0-.4,3.4h-.7v-.2a10.9,10.9,0,0,0-.1-1.8l-2-.4h-4.2v6.2h4l.8-.2c.1,0,.1-.1.2-.3a1.7,1.7,0,0,0,.1-.7v-.7h.7v5h-.7v-.7c-.1-.5-.2-.8-.2-.9s-.1-.2-.2-.3l-.8-.2h-3.9v6.6h5.5l1.3-.4a2.7,2.7,0,0,0,.3-1.2l.3-1.1h.8a9.9,9.9,0,0,0-.2,1.7,13.4,13.4,0,0,0-.1,2H618.8v-.4h.1l.7-.4a13.6,13.6,0,0,0,.2-2c0-1.3.1-2.2.1-2.8v-6.7c0-.6-.1-1-.1-1.3v-.9l-.2-.3c0-.1-.1-.1-.2-.2h-1.5Z" transform="translate(0 0)" style="fill:#fff"/><path d="M631.9,548.9h11.7a13.2,13.2,0,0,0-.4,3.4h-.8v-.2a10.9,10.9,0,0,0-.1-1.8,6.5,6.5,0,0,0-2-.4h-4.1v6.2h3.9l.9-.2a.4.4,0,0,0,.1-.3c.1-.1.1-.3.1-.7v-.7h.7a20.9,20.9,0,0,1-.1,2.5v2.5h-.7v-.7a2.8,2.8,0,0,1-.1-.9l-.2-.3-.9-.2h-3.8c-.1,1.1-.1,2.1-.1,3.2s0,2.3.1,3.4h5.5l1.3-.4.3-1.2a2,2,0,0,1,.3-1.1h.7a9.9,9.9,0,0,0-.2,1.7,13.4,13.4,0,0,0-.1,2H632.8v-.4h.1l.8-.4a6.8,6.8,0,0,0,.2-2V551c0-.4-.1-.6-.1-.8s-.1-.2-.1-.3l-.3-.2h-1.5Z" transform="translate(0 0)" style="fill:#fff"/><path d="M645.6,548.9h7.9c1.9,0,3.2.4,3.9,1.1a3.7,3.7,0,0,1,1,2.4,4.1,4.1,0,0,1-.5,1.9,5.4,5.4,0,0,1-1.5,1.5,6.4,6.4,0,0,1-2.6,1l1.1,1.5,1.6,2.1,1.6,2.2a4.9,4.9,0,0,0,1.2,1.3l.4.2h.7v.5h-3.1l-2.4-3.3c-1.3-1.8-2.6-3.4-4-5h.9a4.9,4.9,0,0,0,3.1-.9,3.6,3.6,0,0,0,1.1-2.6,3.3,3.3,0,0,0-1-2.3,4.2,4.2,0,0,0-2.7-.7,8.3,8.3,0,0,0-2.2.3,19.7,19.7,0,0,0-.2,4.2v7.4c0,.9.1,1.4.1,1.7s.1.4.2.4l.4.3h1.6v.5h-6.7v-.4H647l.5-.2c.1-.1.1-.2.2-.5a7.6,7.6,0,0,0,.1-1.5V550.4a.8.8,0,0,0-.2-.5c0-.1-.2-.2-.4-.2h-1.6Z" transform="translate(0 0)" style="fill:#fff"/><path d="M507.9,570.8h.1c-.1,1.2-.1,2.4-.1,3.6h-.7v-1.1l-.2-1-.2-.3h-4.2c0,1.7-.1,2.7-.1,3v8.7a9.7,9.7,0,0,1,.1,1.7.8.8,0,0,0,.2.5l.4.2h1.6v.5h-6.6v-.4h1.5l.4-.2a.8.8,0,0,0,.2-.5,7.6,7.6,0,0,0,.1-1.5v-8.9c0-.1,0-1.1-.1-3h-3.4a1.5,1.5,0,0,0-.9.2,5,5,0,0,0-.2,1.2v1.1h-.7c0-1.8-.1-3-.1-3.6h13.1Z" transform="translate(0 0)" style="fill:#fff"/><path d="M509.2,570.9h11.7a19.7,19.7,0,0,0-.4,3.4h-.8c.1-.1.1-.1.1-.2a11,11,0,0,0-.2-1.8,6.5,6.5,0,0,0-2-.4h-4.1v6.2h4l.8-.2a.4.4,0,0,0,.1-.3c.1-.1.1-.3.2-.7v-.7h.7a20.9,20.9,0,0,1-.1,2.5v2.5h-.7v-.7a2.8,2.8,0,0,0-.1-.9l-.2-.3-.9-.2h-3.9c-.1,1.1-.1,2.1-.1,3.2s0,2.3.1,3.4h5.5l1.3-.4.3-1.2.3-1.1h.7a9.9,9.9,0,0,0-.2,1.7,13.4,13.4,0,0,0-.1,2h-11v-.4h0l.8-.4a6.8,6.8,0,0,0,.2-2V573c0-.4-.1-.6-.1-.8s-.1-.2-.1-.3l-.3-.2h-1.5Z" transform="translate(0 0)" style="fill:#fff"/><path d="M523.4,582.9h.7c0,.9.1,1.5.1,1.7l.6.7,1.4.6,1.7.2a5.4,5.4,0,0,0,2.2-.5,2.8,2.8,0,0,0,1.4-1.2,3.3,3.3,0,0,0,.6-1.9,2.8,2.8,0,0,0-.3-1.3,2.2,2.2,0,0,0-.7-.9l-1-.5-1.8-.4-1.7-.3-1.3-.4a3.9,3.9,0,0,1-1-.8,2.4,2.4,0,0,1-.7-1.2,3.2,3.2,0,0,1-.3-1.4,4,4,0,0,1,1.5-3.4,6.2,6.2,0,0,1,3.9-1.4l2.1.2a5.4,5.4,0,0,1,2.1.8h.1a14.3,14.3,0,0,0-.3,2.9h-.8v-1.7c-.1-.3-.4-.6-1.1-.9a3.1,3.1,0,0,0-2.1-.5,3.9,3.9,0,0,0-1.8.4,2.3,2.3,0,0,0-1.2,1.2,3,3,0,0,0-.5,1.6,2.7,2.7,0,0,0,.3,1.2,2.7,2.7,0,0,0,.7.8l.9.5,2,.3a9.5,9.5,0,0,1,2.9.7,3.7,3.7,0,0,1,1.5,1.3,4.6,4.6,0,0,1,.5,2,4.5,4.5,0,0,1-1.9,4,7,7,0,0,1-4.8,1.6,7.8,7.8,0,0,1-4-.8h-.1C523.3,585.7,523.3,584.6,523.4,582.9Z" transform="translate(0 0)" style="fill:#fff"/><path d="M548.1,570.8h.1c-.1,1.2-.1,2.4-.1,3.6h-.7v-1.1a3.6,3.6,0,0,0-.2-1c0-.1-.1-.2-.1-.3h-4.3c0,1.7-.1,2.7-.1,3v10.4c.1.2.1.4.2.5l.4.2h1.6v.5h-6.6v-.4h1.5c.2-.1.4-.1.4-.2a.8.8,0,0,0,.2-.5,7.6,7.6,0,0,0,.1-1.5V571.9H537a1.5,1.5,0,0,0-.9.2,5,5,0,0,0-.2,1.2v1.1h-.7c0-1.8-.1-3-.1-3.6Z" transform="translate(0 0)" style="fill:#fff"/><path d="M570.1,584.8l-.5,1.1a12.4,12.4,0,0,1-5.3,1.2,9.4,9.4,0,0,1-6.6-2.3,7.5,7.5,0,0,1-2.5-6,7.9,7.9,0,0,1,1.3-4.5,7.5,7.5,0,0,1,3.3-2.8,10.3,10.3,0,0,1,4.6-1,15.3,15.3,0,0,1,3,.3,11.3,11.3,0,0,1,2.4.8h.1a16.7,16.7,0,0,0-.5,3.1h-.7v-1.9a5.4,5.4,0,0,0-2-1,6.7,6.7,0,0,0-2.4-.4,8.1,8.1,0,0,0-3.4.8,5.9,5.9,0,0,0-2.3,2.4,8.5,8.5,0,0,0-.9,3.8,7.6,7.6,0,0,0,1,3.9,7.5,7.5,0,0,0,2.7,2.6,8.6,8.6,0,0,0,3.9.9,6.8,6.8,0,0,0,2-.2l1.5-.4,1.2-.7Z" transform="translate(0 0)" style="fill:#fff"/><path d="M571.5,570.9h11.7a19.9,19.9,0,0,0-.5,3.4H582v-.2a10.9,10.9,0,0,0-.1-1.8,6.5,6.5,0,0,0-2-.4h-4.1v6.2h3.9l.8-.2c.1,0,.2-.1.2-.3s.1-.5.1-.7v-.7h.7c0,.8-.1,1.6-.1,2.5v2.5h-.7v-.7c-.1-.5-.1-.8-.2-.9l-.2-.3-.8-.2h-3.8c-.1,1.1-.1,2.1-.1,3.2s0,2.3.1,3.4h5.4l1.3-.4a5.6,5.6,0,0,0,.4-1.2c.1-.6.2-1,.2-1.1h.8a9.9,9.9,0,0,0-.2,1.7,13.4,13.4,0,0,0-.1,2H572.4v-.4h.1l.8-.4a13.4,13.4,0,0,0,.1-2c.1-1.2.1-2.2.1-2.8v-8a2.2,2.2,0,0,1-.1-.8.4.4,0,0,1-.1-.3l-.3-.2h-1.5Z" transform="translate(0 0)" style="fill:#fff"/><path d="M585.5,586.8h-.1v-.6h1.2l.5-.2c.1-.1.1-.3.2-.5v-1.6a9.7,9.7,0,0,0,.1-1.7v-9.1a2.9,2.9,0,0,0-.2-.9.9.9,0,0,0-.6-.3h-1.3v-.5h4l3.6,4.6,5.2,6.6c.7.8,1.3,1.6,2,2.3v-8.7a9.7,9.7,0,0,0-.1-1.7,9.7,9.7,0,0,0-.1-1.7.8.8,0,0,0-.2-.5h-1.6v-.5h5v.5h-1.2c-.3,0-.5.1-.5.2a.8.8,0,0,0-.2.5,8.6,8.6,0,0,1-.1,1.6v10.1c0,1.1,0,2.1.1,3.1l-2-.5-.8-.9-2.4-2.9-7.6-9.6v10.5a8.6,8.6,0,0,1,.1,1.6l.2.4.4.2h1.3v.5h-4.9Z" transform="translate(0 0)" style="fill:#fff"/><path d="M617.4,570.8h.1c-.1,1.2-.1,2.4-.1,3.6h-.7v-1.1a3.6,3.6,0,0,0-.2-1,.4.4,0,0,0-.1-.3h-4.3v13.4c.1.2.1.4.2.5l.4.2h1.6v.5h-6.6v-.4h1.5l.5-.2.2-.5V574.9c0-.1-.1-1.1-.1-3h-3.5a1.5,1.5,0,0,0-.9.2c0,.1-.1.5-.2,1.2v1.1h-.8c0-1.2,0-2.4-.1-3.6Z" transform="translate(0 0)" style="fill:#fff"/><path d="M618.4,570.9h7.9c1.9,0,3.2.4,3.9,1.1a3.7,3.7,0,0,1,1,2.4,4.1,4.1,0,0,1-.5,1.9,5.4,5.4,0,0,1-1.5,1.5,5.2,5.2,0,0,1-2.7,1l1.2,1.5,1.6,2.1c.5.7,1,1.5,1.6,2.2a4.9,4.9,0,0,0,1.2,1.3l.4.2h.7v.5h-3.1l-2.5-3.3c-1.2-1.8-2.6-3.4-3.9-5h.9a4.9,4.9,0,0,0,3.1-.9,3.6,3.6,0,0,0,1.1-2.6,3.3,3.3,0,0,0-1-2.3,4.2,4.2,0,0,0-2.7-.7,8.3,8.3,0,0,0-2.2.3,19.7,19.7,0,0,0-.2,4.2v7.4a9.7,9.7,0,0,0,.1,1.7.6.6,0,0,0,.1.4l.5.3h1.5v.5h-6.5v-.4h1.5l.5-.2c.1-.1.1-.2.2-.5a7.6,7.6,0,0,1,.1-1.5V572.4c-.1-.3-.1-.4-.2-.5l-.4-.2h-1.7Z" transform="translate(0 0)" style="fill:#fff"/><path d="M634.1,570.9h11.7a13.2,13.2,0,0,0-.4,3.4h-.8c0-.1.1-.1.1-.2a11,11,0,0,0-.2-1.8,6.5,6.5,0,0,0-2-.4h-4.1v6.2h3.9l.9-.2a.4.4,0,0,0,.1-.3c.1-.1.1-.3.1-.7v-.7h.7a20.9,20.9,0,0,1-.1,2.5v2.5h-.6v-.7a2.8,2.8,0,0,1-.1-.9l-.2-.3-.9-.2h-3.8c-.1,1.1-.1,2.1-.1,3.2s0,2.3.1,3.4h5.5l1.3-.4.3-1.2a2,2,0,0,1,.3-1.1h.7a9.9,9.9,0,0,0-.2,1.7,13.4,13.4,0,0,0-.1,2H635v-.4h.1l.8-.4a6.8,6.8,0,0,0,.2-2V573c0-.4-.1-.6-.1-.8s-.1-.2-.1-.3l-.3-.2h-1.5Z" transform="translate(0 0)" style="fill:#fff"/><path d="M306.1,700a8.6,8.6,0,0,1,.5-3.2,6.3,6.3,0,0,1,1.6-2.7,7.7,7.7,0,0,1,2.8-1.9,9.4,9.4,0,0,1,3.7-.7,8.6,8.6,0,0,1,6.1,2.1,7.7,7.7,0,0,1,2.3,5.7,10,10,0,0,1-1.1,4.5,8.2,8.2,0,0,1-3.2,3.2,11.2,11.2,0,0,1-4.7,1.1,9.6,9.6,0,0,1-3.3-.6,7.1,7.1,0,0,1-2.7-1.8,7.6,7.6,0,0,1-1.5-2.8A9.3,9.3,0,0,1,306.1,700Zm2.3-.8a10.5,10.5,0,0,0,.5,3,8.4,8.4,0,0,0,1.3,2.7,5.8,5.8,0,0,0,4.6,2.2,6.8,6.8,0,0,0,3.1-.8,5.7,5.7,0,0,0,2.1-2.5,9.4,9.4,0,0,0,.7-3.7,11.5,11.5,0,0,0-.8-4.1,4.7,4.7,0,0,0-2.3-2.7,6.2,6.2,0,0,0-3.3-.8,5.4,5.4,0,0,0-4.3,1.7C308.9,695.3,308.4,697,308.4,699.2Z" transform="translate(0 0)" style="fill:#fff"/><path d="M328.9,707.9l-1-4.7-2.2-9.2c-.1-.8-.3-1.2-.5-1.3l-1.2-.2h-.1V692h5.8v.5h-1.6c-.2.1-.3.2-.3.4s.1.7.2,1.5.3,1.5.4,2l1.8,7.8,2.8-6.9q1-2.7,2.1-5.7h.7l1.9,5.4,2.6,7.4,1.9-6.8.8-2.7c.2-1.2.4-1.8.4-2s-.1-.3-.3-.4h-1.7V692h4.8v.5h-.9l-.4.3a5.6,5.6,0,0,0-.4,1.2l-.7,2-1.1,3.8-1,3.4-1.2,4.6h-1.2c-.7-2.3-1.4-4.2-1.9-5.6l-2.5-6.9-2.3,5.6-1.2,3.1-.7,2-.7,1.8Z" transform="translate(0 0)" style="fill:#fff"/><path d="M347,691.9h6.7v.6h-1.3l-.6.2a.7.7,0,0,0-.3.6c0,.3-.1.7-.1,1.2v12.1h5.7a2.8,2.8,0,0,0,1.3-.3,6.5,6.5,0,0,0,.4-1.3l.2-1.1h.7c0,.3-.1.8-.1,1.7a14.8,14.8,0,0,0-.1,2.1H348.2v-.4h.1l.8-.4a7.6,7.6,0,0,0,.1-1.5c.1-1.1.1-2.2.1-3.3v-7a8.6,8.6,0,0,1-.1-1.6c0-.3-.1-.5-.2-.5l-.4-.2-1.5-.2H347Z" transform="translate(0 0)" style="fill:#fff"/><path d="M358.8,692.9h-.1v-.5h.1l3.1-.5a1.3,1.3,0,0,1,.7.6l.9,1.3c.4.7,1,1.6,1.6,2.8l1.9,3.5,1.1-1.8,1.3-2.2,2.4-4.1h1.7v.2a19.5,19.5,0,0,0-1.7,2.3c-.8,1-1.4,1.9-1.8,2.5l-1.4,2.3a5.6,5.6,0,0,0-.9,1.7,1.3,1.3,0,0,0-.1.6V705a5.7,5.7,0,0,0,.1,1.3.9.9,0,0,0,.1.5l.4.2,1.5.2h.1v.6h-6.6v-.6h.1l1.4-.2h.5c0-.1.1-.2.1-.4a5.7,5.7,0,0,0,.1-1.3v-4.1a26.9,26.9,0,0,0-1.6-2.9l-1-1.6-1.2-1.8a6.9,6.9,0,0,0-1.1-1.3l-.6-.5Z" transform="translate(0 0)" style="fill:#fff"/><path d="M374.6,691.8h7.7a11.5,11.5,0,0,1,2.6.3,4.1,4.1,0,0,1,1.7,1.2,3.8,3.8,0,0,1,.7,2.1,4.6,4.6,0,0,1-.5,2,6.5,6.5,0,0,1-1.3,1.6l-1.7.9a5.7,5.7,0,0,1-1.8.3h-1.6l-.2-.7h1.5a3.6,3.6,0,0,0,2.4-.9,3.8,3.8,0,0,0,.9-2.5,3.2,3.2,0,0,0-3-3.4h-.8a8.5,8.5,0,0,0-2.2.4c-.1,1.4-.1,2.8-.1,4.2v7.4a8.6,8.6,0,0,0,.1,1.6.9.9,0,0,0,.1.5.5.5,0,0,0,.4.2l1.5.2h.1v.6h-6.6v-.6h.1l1.4-.2h.4a.8.8,0,0,0,.2-.5,7.6,7.6,0,0,0,.1-1.5V693.4c-.1-.3-.1-.5-.2-.5l-.4-.2-1.5-.2h-.1v-.6Z" transform="translate(0 0)" style="fill:#fff"/><path d="M388.5,691.8H395v.6h-1.3c-.4-.1-.7.2-.8.6v.2a4.9,4.9,0,0,0-.1,1.2v10a8.6,8.6,0,0,0,.1,1.6c0,.3,0,.4.1.5a.5.5,0,0,0,.4.2l1.5.2h.1v.6h-6.6v-.6h.1l1.4-.2h.4a.8.8,0,0,0,.2-.5,7.6,7.6,0,0,0,.1-1.5v-9.8a8.6,8.6,0,0,0-.1-1.6c0-.3,0-.5-.1-.5a.5.5,0,0,0-.4-.2l-1.5-.2h-.1v-.6Z" transform="translate(0 0)" style="fill:#fff"/><path d="M396.1,707.8H396v-.6h1.1c.2,0,.3-.1.4-.3l.8-1.4,1.2-2.6,3-6.9c.6-1.3,1.2-2.7,1.7-4h.8l4.8,11.2.6,1.5a6.1,6.1,0,0,0,.7,1.4,4.1,4.1,0,0,0,.5.9c0,.1.2.2.3.2h1v.6h-6v-.6h1.6c.2,0,.3-.2.3-.4a1.3,1.3,0,0,0-.1-.6l-1.4-3.5h-6.5l-1.2,2.9a2.7,2.7,0,0,0-.3,1.2c0,.2.1.3.3.4h1.6v.6Zm5.1-6.3h5.7l-2.9-6.8Z" transform="translate(0 0)" style="fill:#fff"/><path d="M420,691.9h11.7a12.7,12.7,0,0,0-.5,3.4h-.7v-.2a10.9,10.9,0,0,0-.1-1.8,4.5,4.5,0,0,0-2-.4h-4.1V699h4.8c0-.1.1-.2.1-.3s.1-.5.1-.7v-.8h.7c0,.8-.1,1.6-.1,2.4v2.6h-.7v-.7a2.8,2.8,0,0,1-.1-.9l-.2-.3-.9-.2h-3.8c-.1,1-.1,2.1-.1,3.1s0,2.3.1,3.5h5.5l1.3-.3a2.7,2.7,0,0,1,.3-1.2l.3-1.2h.7c-.1.4-.1.9-.2,1.7a14.8,14.8,0,0,0-.1,2.1H420.9v-.4h.1l.8-.4a13.4,13.4,0,0,0,.1-2c.1-1.2.1-2.2.1-2.8v-8.1c0-.2-.1-.5-.1-.7a.4.4,0,0,0-.1-.3l-.3-.2H420Z" transform="translate(0 0)" style="fill:#fff"/><path d="M433.6,707.6v-.5h1.1a2.3,2.3,0,0,0,.7-.7l1.6-2.1,3-4.3-2-3.4a7.1,7.1,0,0,0-1-1.4l-1.1-1.6-.7-.5h-1.3v-.5h.1l3.2-.5a3.8,3.8,0,0,1,.9.9,16.4,16.4,0,0,1,1.4,2.2l1.9,3.2,4.3-6.2H448v.5h-1.1l-.6.5-1.5,1.9-2,2.8-.9,1.1,3.8,6.2.9,1.3c.2.3.4.5.5.5h1v.5h-3.3a8.2,8.2,0,0,1-1.2-2l-3-5-.8,1.1c-1.4,1.9-2.6,3.9-3.8,5.9h-2.4Z" transform="translate(0 0)" style="fill:#fff"/><path d="M449.1,707.8H449v-.6h1.1c.2,0,.3-.1.5-.3l.7-1.4,1.2-2.6,3-6.9,1.8-4h.7l4.8,11.2.6,1.5a6.1,6.1,0,0,0,.7,1.4,4.1,4.1,0,0,0,.5.9l.3.2h1v.6h-6v-.6h1.7c.2,0,.3-.2.3-.4a1.4,1.4,0,0,0-.2-.6l-1.4-3.5h-6.5l-1.2,2.9a2.7,2.7,0,0,0-.3,1.2c0,.2.1.3.3.4h1.6v.6Zm5.1-6.3h5.7l-2.8-6.8Z" transform="translate(0 0)" style="fill:#fff"/><path d="M487.6,691.9h.1v.6h-1.6l-.4.3a1.1,1.1,0,0,0-.2.8v11.1c0,1,.1,1.5.1,1.7s.2.3.4.3l1.6.2h.1v.5h-6.5v-.2h.1l1.5-.2c.2,0,.4-.1.4-.2a2.9,2.9,0,0,0,.2-.9V694.2l-3.8,8.1c-1,2-1.9,3.9-2.6,5.7h-.4c-.4-1-.8-1.7-1.1-2.3l-5.3-11.2v10.4c0,1,.1,1.5.1,1.7l.4.3h1.7v.6h-5.5v-.7h1.5a.5.5,0,0,0,.5-.3,2.2,2.2,0,0,0,.1-.8c0-.4,0-1.5.1-3.4v-5.1c0-.6-.1-1.5-.1-2.4a4.9,4.9,0,0,0-.1-1.7l-.4-.4h-1.7v-.5h4.4q.9,2.1,1.8,3.9l4.2,8.7,3.9-8,2.1-4.6h4.3Z" transform="translate(0 0)" style="fill:#fff"/><path d="M321.2,727.8l-.4,1a10.9,10.9,0,0,1-5.3,1.3,9.4,9.4,0,0,1-6.6-2.3,7.6,7.6,0,0,1-2.6-6,9,9,0,0,1,1.3-4.5,9.2,9.2,0,0,1,3.3-2.9,12.7,12.7,0,0,1,4.7-.9,14.3,14.3,0,0,1,2.9.3,10.4,10.4,0,0,1,2.5.8h.1a10.6,10.6,0,0,0-.5,3.1h-.7v-1.9a5.4,5.4,0,0,0-2-1,6.7,6.7,0,0,0-2.4-.4,8.1,8.1,0,0,0-3.4.8,6.9,6.9,0,0,0-2.4,2.4,9.5,9.5,0,0,0-.8,3.7,7,7,0,0,0,1,4,6.5,6.5,0,0,0,2.6,2.6,9,9,0,0,0,4,.9l1.9-.2,1.5-.5a3.4,3.4,0,0,0,1.2-.6Z" transform="translate(0 0)" style="fill:#fff"/><path d="M322.7,713.9h11.6a19.7,19.7,0,0,0-.4,3.4h-.7v-.2a11,11,0,0,0-.2-1.8,4.1,4.1,0,0,0-1.9-.4h-4.2V721h4.8l.2-.3c0-.2.1-.5.1-.7v-.8h.7v5H332v-.7a2.8,2.8,0,0,0-.1-.9c0-.1-.1-.2-.2-.3l-.8-.2H327v6.6h5.5a2.8,2.8,0,0,0,1.3-.3l.3-1.2a2.7,2.7,0,0,0,.3-1.2h.7c0,.4-.1.9-.2,1.7a14.8,14.8,0,0,0-.1,2.1h-11v-.4h.1l.7-.4a13.6,13.6,0,0,0,.2-2V715.9c0-.3,0-.6-.1-.7s0-.3-.1-.3-.1-.1-.2-.2h-1.5Z" transform="translate(0 0)" style="fill:#fff"/><path d="M336.6,729.8h-.1v-.6h1.2l.6-.2c0-.2.1-.3.1-.5s.1-.8.1-1.6v-11c0-.4,0-.7-.2-.9a.5.5,0,0,0-.5-.3h-1.3v-.5h3.9l3.6,4.6,5.3,6.6,1.9,2.3V717c0-.9-.1-1.5-.1-1.7a.8.8,0,0,0-.2-.5l-.5-.2h-1.2v-.5h5.1v.5H353l-.5.3a.7.7,0,0,0-.1.5,7.6,7.6,0,0,0-.1,1.5v13.3l-1.9-.5-.8-1-2.4-2.9-7.6-9.5v10.5c0,.9.1,1.4.1,1.6s.1.3.1.4l.4.2h1.3v.5h-4.9Z" transform="translate(0 0)" style="fill:#fff"/><path d="M368.6,713.8h.1c-.1,1.2-.1,2.3-.1,3.5h-.7l-.2-1a3.4,3.4,0,0,0-.1-1l-.2-.3h-4.2c-.1,1.7-.1,2.7-.1,3v8.7c0,.8.1,1.4.1,1.6s.1.5.2.5l.4.2,1.5.2h0v.6h-6.5v-.6h.1l1.4-.2h.4a.8.8,0,0,0,.2-.5,7.6,7.6,0,0,0,.1-1.5v-8.9c0-.2,0-1.1-.1-3h-3.4a1.5,1.5,0,0,0-.9.2,2.5,2.5,0,0,0-.2,1.2v1h-.7c-.1-1.8-.1-2.9-.1-3.5h13.1Z" transform="translate(0 0)" style="fill:#fff"/><path d="M369.9,713.9h11.7a12.7,12.7,0,0,0-.5,3.4h-.7v-.2a10.9,10.9,0,0,0-.1-1.8,4.5,4.5,0,0,0-2-.4h-4.1V721H379c0-.1.1-.2.1-.3s.1-.5.1-.7v-.8h.7c0,.8-.1,1.6-.1,2.4v2.6h-.7v-.7a2.8,2.8,0,0,1-.1-.9l-.2-.3-.9-.2h-3.8c-.1,1-.1,2.1-.1,3.1s0,2.3.1,3.5h5.5l1.3-.3a2.7,2.7,0,0,1,.3-1.2l.3-1.2h.7c-.1.4-.1.9-.2,1.7a14.8,14.8,0,0,0-.1,2.1H370.8v-.4h.1l.8-.4a13.4,13.4,0,0,0,.1-2c.1-1.2.1-2.2.1-2.8v-8.1c0-.2-.1-.5-.1-.7a.4.4,0,0,0-.1-.3l-.3-.2h-1.5Z" transform="translate(0 0)" style="fill:#fff"/><path d="M383.6,713.9h7.9a5.9,5.9,0,0,1,3.9,1,3.9,3.9,0,0,1,1,2.5,4.1,4.1,0,0,1-.5,1.8,5.7,5.7,0,0,1-1.5,1.6,8.2,8.2,0,0,1-2.6,1l1.1,1.5,1.6,2.1,1.6,2.2a4.9,4.9,0,0,0,1.2,1.3l.4.2h.7v.6h-3.1l-2.4-3.3c-1.3-1.8-2.7-3.5-4-5V721h.9a4.5,4.5,0,0,0,3.1-1,3.3,3.3,0,0,0,1.1-2.5,2.9,2.9,0,0,0-1-2.3,4.2,4.2,0,0,0-2.7-.7,8.3,8.3,0,0,0-2.2.3,19.7,19.7,0,0,0-.2,4.2v7.4c0,.8.1,1.4.1,1.6a.8.8,0,0,0,.2.5c0,.1.2.2.4.2l1.5.2h0v.6h-6.6v-.6h.1l1.4-.2h.5c.1-.1.1-.2.2-.5a7.6,7.6,0,0,1,.1-1.5V715.4c-.1-.3-.1-.5-.2-.5l-.4-.2-1.5-.2h-.1Z" transform="translate(0 0)" style="fill:#fff"/></svg>