<svg xmlns="http://www.w3.org/2000/svg" viewBox="0 0 500 122.4"><path d="M63,95.3C50.1,92,37,89,24.3,85.2,17.9,83.3,14.4,77,9.7,72.6c-1.1-1.1.6-2.1,1.6-2.7,4.8-1.6,8.4-5.8,13.6-6.5,3.7,2,5.6,8.3,9.7,7.2s6.1-5.8,9.1-8.9c.1-.1.1-.3.2-.5,3.8-2.5,4.9,1.5,6.6,3.1,7.9,7.5,7.9,7.6,15.4.1.8-.8,1.6-1.4,2.4-2.1l3.2-2c3,3.1,6.2,6.1,9,9.4s3.5,2,5.5-.1c4.6-5,9.3-9.8,14-14.7,2.9.5,2.2,2.8,2.2,4.5.1,6,.1,11.9.1,17.8-1.3,1.5-2.6,3-3.9,4.3-4.3,3.8-8.8,7.4-13.2,11.2-1.7,1.4-2.8,2.9.3,4.1,5.7,2.2,11.2,6,17.8,3.6,2.9,4.4-.7,4-3.3,4.5L74.7,98.3c.4-.7-2.4-1.4-.2-1.9s4.2,0,6.8-2.4c-2.5-2.2-5.1-4.3-7.3-6.6s-3.6-3.3-5.5-.7-7.2,2.4-3.4,7.1c.3.3.8.8-.1,1.1Z" transform="translate(-9.3 -9.9)" style="fill:#090909"/><path d="M317.2,82.5c.3,2.1-1.6,3-2.7,4.2-12.8,13.7-25.8,27.3-40.1,39.5-4.8,4.1-10.6,7.4-17.7,5.1,3.3-1.4.4-2.4-.3-2.9-5.7-3.1-9.8-8-14.3-12.5l-36-35.5c.1-4.1-6.6-5.5-4-10.3a35.3,35.3,0,0,1,7.7-10l3.6-3.1a5,5,0,0,1-1.8,4.6,2.3,2.3,0,0,0-.6,3.3c1.6,2.7,3.1,5.4,4.6,8.1.9,1,1.7,2.2,2.7,3.2,14.4,14.4,29,28.8,43.3,43.5,3.4,3.5,5.8,2.9,8.6-.2,5.9-6.8,11.8-13.4,17.5-20.4,4.4-5.4,9.4-10.3,12.6-16.6,2-2.6,4-5.2,6.1-7.7s2-3.3.4-5.1l-6.5-7.4c-6.3-2.8-11.6-6.6-13.7-13.6,1.5-3.4,5-6.2,3.1-10.7,2.6,4.5,6.3,7.9,9.9,11.5s10,9.8,14.8,14.9,6.8,7.7,1.5,12.8C313.7,79.3,314.6,81.2,317.2,82.5Z" transform="translate(-9.3 -9.9)" style="fill:#281460"/><path d="M174.2,123.9a19.6,19.6,0,0,1-9.6-2.1l3.5-.7-21.5-10.5a9.3,9.3,0,0,0-7.3,0c-4.1,1.7-7.7.7-11.4-1.5-6.3-3.7-12.8-7.2-19.3-10.8a3,3,0,0,1,0-3.8,19.7,19.7,0,0,1,5.8-5.7c3.4-2.4,4.6-4.9.5-8.1-1.8-1.4-4-2.8-4.2-5.6l8,7.4c1,.8,1.7,3.1,3.7,1.1s4.6-5.7,7.3-8.1.2-2.8-.5-4.1a3.4,3.4,0,0,1,3.5.5c.7,2.8,1.7,5.5,4.3,7.3-1.3,5.4,1.3,9.3,5.3,12.3,12.2,9.4,24.5,18.7,37.3,27.3v.9l-8.7,2.4C172.1,122.9,173.7,122.5,174.2,123.9Z" transform="translate(-9.3 -9.9)" style="fill:#4b2c77"/><path d="M132.7,71.9a3.4,3.4,0,0,0-3.5-.5c-3.3-1.2.1-5.9-3.6-7a7.5,7.5,0,0,0-4.4-5.1c-3.3-5.2-8.9-8.1-12.6-12.9v-.9l25.5-13.8a23.1,23.1,0,0,0,10.4,2.1c7.5-2.5,14.1-6.7,21.1-10.2.8-.4,2.6-1.1,1-2.7l2.3-1c4.4.4,8,4.4,12.8,3.1v.6c-.2,1.7-1.8,2.1-2.9,2.8-8.5,6-17.2,11.8-25.5,18-4.6,3.4-10.3,5.9-12.9,11.6s-5.2,9.8-7.3,14.9A4.2,4.2,0,0,0,132.7,71.9Z" transform="translate(-9.3 -9.9)" style="fill:#2a657f"/><path d="M501.6,78.5c-4.3,5.6-10.2,7.9-16.9,9.5-16.4,3.9-32.6,8.3-48.9,12.5,0-3.1-.6-6.5,2.7-8.4s6.1-4.6,10-5.4c6.8,3.8,13.3,3.8,19.2-1.8l1.8-1.2c3.4-1.4,4.3-2.9.4-5-.9-.5-2-1.3-1.8-2.4s2-.9,3-1.3l1.8-1c.4-3.7-2.3-3.1-4.5-3.2s-3.2.3-2.2-2.2a6.5,6.5,0,0,1,8.3-3.9l1.6.8c2.1,2.5,4.2,5,6.4,7.4l-6.9,6.5c-1.9,1.7-1.4,2.5.9,3.5,5.8,2.4,10.9,1.5,15.5-2.6,3-.4,5.4-2.3,8.2-3.5S501.5,77.7,501.6,78.5Z" transform="translate(-9.3 -9.9)" style="fill:#020202"/><path d="M360.4,50.1c-10.7-5.9-21.4-11.8-31.6-18.4,1-.2,2.1-.3,1-1.8l-3-4.5,9.5-.2c6.3,1,10.6,5.7,15.8,8.5s9.1,6.5,13.6,9.9,11.5,8.7,19.3,5a5,5,0,0,1,2.1.1V56h-9.5c-4.6-1.1-8.4-4-12.7-5.8C363.5,49.7,362,47.6,360.4,50.1Z" transform="translate(-9.3 -9.9)" style="fill:#291662"/><path d="M179.6,118.8c-12.8-8.6-25.1-17.9-37.3-27.3-4-3-6.6-6.9-5.3-12.3,4.1,4.4,7.2,4,8.7-.9,3.2,8,11.2,9.9,17.7,13.7,1.8,1,4.1,1.2,5.5,2.9-2,.4-4.2-1.1-6.5.2,2.8,5.7,9,6.8,12.6,10.9l5.7,10.4C180.6,117.3,180.8,118.3,179.6,118.8Z" transform="translate(-9.3 -9.9)" style="fill:#92d6d0"/><path d="M337.5,117.4c-4.5-3-3.1-5.9-.6-9.7s6.7-8.8,12.1-11.1c2.3-.9,4.3-2.5,6.5-3.4,10.8-4.7,19.7-11.3,24.4-22.4,3.1-2,5.3,2.5,8.3,1.1a14.8,14.8,0,0,0,.1,2.1L377.5,89.8a26.4,26.4,0,0,0-4,1.2c-7.3,3.7-14.5,7.8-22,11.4a16.4,16.4,0,0,0-8.9,9.7C340.6,113.6,340.4,116.8,337.5,117.4Z" transform="translate(-9.3 -9.9)" style="fill:#03060c"/><path d="M345.7,122.7c-2.6-.7-5.3-1.2-7.4-3,4.1-3.4,10.3-4.1,12.8-9.7.9.3,2,1,2.4.7,5.9-4.1,11.6-8.3,17.3-12.5,1.1-.8,1.2-1.7-.5-1.9l6.2-4.3c4,3,6.5,3.1,6.6-2.9,0-1,1.1-1.2,1.9-1.5,2.1,2.7.6,5.9,1.2,8.7-3.5,4.3-7.1,8.5-10.6,12.7C365.5,113.5,356.3,119.6,345.7,122.7Z" transform="translate(-9.3 -9.9)" style="fill:#366d8f"/><path d="M345.7,122.7c10.6-3.1,19.8-9.2,29.9-13.7,6.5,2.6,12.5,2.1,18.7-1.8s10.7-8,17.2-9.9c6,.9,12,5.7,18,0,.2,3.8,3.3,2.9,5.5,3.4-15.8,5.1-32,8.9-48.2,12.9-11.9,3-23.8,6.3-35.7,9.4C349.3,123.5,347.4,124.5,345.7,122.7Z" transform="translate(-9.3 -9.9)" style="fill:#27155c"/><path d="M140.4,56c2.6-5.7,8.3-8.2,12.9-11.6,8.3-6.2,17-12,25.5-18,1.1-.7,2.7-1.1,2.9-2.8l12.6-8.1c2.1,2.2,4.7,2.6,7.5,2.4L198.2,20c-5.9,4-9.1,11-15.5,14.7-1.1.6.6,1,1.3,1.3-1.4.9-2.6,2.1-4.5,1.9s-2.9-.6-4.2.2c-8.8,4.6-17.6,9.5-26.5,14C146.1,53.5,143.9,56.2,140.4,56Z" transform="translate(-9.3 -9.9)" style="fill:#16356c"/><path d="M213.4,57l-3.6,3.1a35.3,35.3,0,0,0-7.7,10c-2.6,4.8,4.1,6.2,4,10.3l-3.4,2.1c-6.3-10.6-3.4-20,4.2-28.5,9.8-10.8,20-21,30.8-30.8,2.5.3,4,1.6,4.3,4.2C232.1,36.9,221.8,46.1,213.4,57Z" transform="translate(-9.3 -9.9)" style="fill:#1a0e2d"/><path d="M202.7,82.5l3.4-2.1,36,35.5c4.5,4.5,8.6,9.4,14.3,12.5.7.5,3.6,1.5.3,2.9a18.9,18.9,0,0,1-11.1-5c-13.8-12.4-26.8-25.6-39.6-39.2C204.8,85.8,203,84.7,202.7,82.5Z" transform="translate(-9.3 -9.9)" style="fill:#1b0d46"/><path d="M21.9,59.2a4.2,4.2,0,0,1,1.7-1.1L93.5,40c1.6.5,4.2-.8,4.5,2.3-1.5-.1-2.6.6-4,1.1-5.5,2.2-10.7,5.9-17.2,5.2-4.3-1.5-8.3-1.7-11.6,2.1-2.7,1.2-5.5,2.3-8.2,3.6-5.2,2.4-10,6-16.2,5-3.9-1.3-7.7-2-11.2,1A8.1,8.1,0,0,1,25,62.4Z" transform="translate(-9.3 -9.9)" style="fill:#1f5093"/><path d="M317.2,82.5c-2.6-1.3-3.5-3.2-1.3-5.3,5.3-5.1,2-9.1-1.5-12.8s-9.9-10-14.8-14.9-7.3-7-9.9-11.5c-1.4-1-1.4-3.3-3.2-4-3.7-3.5.3-4,2-5.4,7.5,7.6,14.8,15.4,22.4,22.9C320.2,60.5,323.2,70.5,317.2,82.5Z" transform="translate(-9.3 -9.9)" style="fill:#140a35"/><path d="M108.6,98.3c6.5,3.6,13,7.1,19.3,10.8,3.7,2.2,7.3,3.2,11.4,1.5a9.3,9.3,0,0,1,7.3,0l21.5,10.5-3.5.7L100,104.9c2.6-.5,6.2-.1,3.3-4.5l2.1-2Z" transform="translate(-9.3 -9.9)" style="fill:#21134d"/><path d="M482.5,72.9c-2.2-2.4-4.3-4.9-6.4-7.4,4-.2,6.4-4.2,10.5-4.2,6.2,3.2,12.2,6.8,18.9,8.8.9,1.4,3.2.5,3.8,2.6a25.6,25.6,0,0,1-7.7,5.8c-.1-.8,1.3-2.9-1.4-1.7s-5.2,3.1-8.2,3.5A24.5,24.5,0,0,0,482.5,72.9Z" transform="translate(-9.3 -9.9)" style="fill:#28192f"/><path d="M416.8,37c18.9,4.4,37.5,9.5,56.2,14.7-3.6,1-1.6,3.2-1.4,5.3s2.8,3.5-.8,4.3l-11.9-6.1c-1.5-4.9-3.8-5.2-6.9-1.1-1.1,1.4-2.4,2.6-3.5,3.9s-2.4.5-3.1-.9c-.1-5.6-4.3-8.8-7.4-12.7l-19.1-5.3Z" transform="translate(-9.3 -9.9)" style="fill:#b99bc2"/><path d="M175,106c-3.6-4.1-9.8-5.2-12.6-10.9,2.3-1.3,4.5.2,6.5-.2,9.5,5.5,19.5,9.8,28.7,15.8,4,2.5,8.1,4.7,11.6,8-4.6,2.2-7.5-1.5-10.9-3.3s-6.3-3.7-10.2-3.3C184.2,109.1,180.2,106.3,175,106Z" transform="translate(-9.3 -9.9)" style="fill:#060c18"/><path d="M184,36c-.7-.3-2.4-.7-1.3-1.3C189.1,31,192.3,24,198.2,20l3.6-2.1c5.5-.8,9.1-5.9,14.7-6.4,2.9,1.1,1.7,2.4.2,3.7-4.3,3.9-8.5,7.9-13.8,10.5S190.3,32.6,184,36Z" transform="translate(-9.3 -9.9)" style="fill:#142c58"/><path d="M140.4,56c3.5.2,5.7-2.5,8.4-3.9,8.9-4.5,17.7-9.4,26.5-14,1.3-.8,2.8-1.9,4.2-.2a135.3,135.3,0,0,1-22.9,12.8c-8.8,3.9-11.9,11.3-15.2,19.1-3.2-2.5-5.5.9-8.3,1.1C135.2,65.8,136.3,60.2,140.4,56Z" transform="translate(-9.3 -9.9)" style="fill:#11254d"/><path d="M188.1,112.1c3.9-.4,7,1.5,10.2,3.3s6.3,5.5,10.9,3.3c3,1.8,4.9,4.8,7.6,7s.2,4.5-1.4,6.6c-5.7.1-8.3-5-12.7-7.4l-11.5-9.6C190.5,113.9,187.8,114.5,188.1,112.1Z" transform="translate(-9.3 -9.9)" style="fill:#081532"/><path d="M288.5,28.6c-1.7,1.4-5.7,1.9-2,5.4-1.4,3.2-2.2,0-2.7-.4L267.5,17.9,258,10.5c5.7-1.2,10.7,1.4,14.9,4.2S283.4,23.9,288.5,28.6Z" transform="translate(-9.3 -9.9)" style="fill:#c3a7cc"/><path d="M435,100.7c-2.2-.5-5.3.4-5.5-3.4a12.2,12.2,0,0,0,5.7-8.7c.9-5.3.2-10.5.7-15.7,2.2,1.5,3.7,3.6,5.5,5.6s3.3,6.2,7.1,7.2v1c-3.9.8-6.7,3.5-10,5.4s-2.7,5.3-2.7,8.4l-.3.3Z" transform="translate(-9.3 -9.9)" style="fill:#0f1844"/><path d="M349.1,19.4l25.3,6.7c.8,3.1,2.8,6.2-.7,8.8l-14-6.6L350,22.7A3.9,3.9,0,0,1,349.1,19.4Z" transform="translate(-9.3 -9.9)" style="fill:#8bcfc9"/><path d="M373.7,34.9c3.5-2.6,1.5-5.7.7-8.8,9,2.1,18.1,3.5,26.5,7.6L396.7,39l-3.2-.9c-5.1-5.2-10.9-5-17.1-2.2C375.5,35.5,374.3,36.2,373.7,34.9Z" transform="translate(-9.3 -9.9)" style="fill:#b38fbf"/><path d="M258,10.5l9.5,7.4c-1.6,3.5-6.7,4.7-6.4,9.5l-2.2-2a37.1,37.1,0,0,0-7.4-7.4,6.1,6.1,0,0,0-4.3-3.5C250.4,12.2,254.5,12.1,258,10.5Z" transform="translate(-9.3 -9.9)" style="fill:#936ba4"/><path d="M134.1,31.7,108.6,45.5h-1.1c0-3.4,1.1-6.5,2.1-9.6l19.9-5.4C131,31,132.9,30,134.1,31.7Z" transform="translate(-9.3 -9.9)" style="fill:#1b468d"/><path d="M388.2,71.9c-3,1.4-5.2-3.1-8.3-1.1-2.9-7-6.5-13.5-13.8-17.1-2-1-4.2-1.7-5.7-3.6,1.6-2.5,3.1-.4,4.5.1,4.3,1.8,8.1,4.7,12.7,5.8C381,61.4,385.7,65.9,388.2,71.9Z" transform="translate(-9.3 -9.9)" style="fill:#0d1d44"/><path d="M63,95.3l2-.4c.9-.3.4-.8.1-1.1-3.8-4.7,1.9-5,3.4-7.1s3.7-1.1,5.5.7,4.8,4.4,7.3,6.6c-2.6,2.4-4.8,1.9-6.8,2.4s.6,1.2.2,1.9A46.8,46.8,0,0,1,63,95.3Z" transform="translate(-9.3 -9.9)" style="fill:#3b2442"/><path d="M505.5,70.1c-6.7-2-12.7-5.6-18.9-8.8l-1-1.1-5.3-6.3C492.1,54,499.3,61.4,505.5,70.1Z" transform="translate(-9.3 -9.9)" style="fill:#b998c2"/><path d="M416.8,37l2.1,2.1c0,.3-.1.6-.1.8a23.9,23.9,0,0,0-6.2,7.6,5.2,5.2,0,0,1-5.3-2.1c2.7-3.2-1.1-4.3-2.2-6.1s-2.3-4.8,2.2-4.5A26.3,26.3,0,0,1,416.8,37Z" transform="translate(-9.3 -9.9)" style="fill:#b395bf"/><path d="M318.3,11.4c7.2,1.2,14.3,2.7,21,5.5-2.2,1.6,1,6.8-4.2,6.4-3.6-1.7-7.6-2.7-10.8-5.2C323.4,14.9,321.1,13,318.3,11.4Z" transform="translate(-9.3 -9.9)" style="fill:#c09ec9"/><path d="M166.6,20.9c1.6,1.6-.2,2.3-1,2.7-7,3.5-13.6,7.7-21.1,10.2.1-2.6-.3-5.2,1.2-7.5Z" transform="translate(-9.3 -9.9)" style="fill:#1c4991"/><path d="M133.1,70.9c2.8-.2,5.1-3.6,8.3-1.1,1.4,2.8,2.9,5.6,4.3,8.5-1.5,4.9-4.6,5.3-8.7.9-2.6-1.8-3.6-4.5-4.3-7.3A4.2,4.2,0,0,1,133.1,70.9Z" transform="translate(-9.3 -9.9)" style="fill:#08142c"/><path d="M174.2,123.9c-.5-1.4-2.1-1-3.3-1.8l8.7-2.4c5.8,1.3,10.9,4.1,15.9,7.2.2.9.9,1.8-.5,2.4Z" transform="translate(-9.3 -9.9)" style="fill:#14173e"/><path d="M326.8,25.4l3,4.5c1.1,1.5,0,1.6-1,1.8-5.7-2-10.8-5.2-15.8-8.4.2-4.3,3.1-4.7,6.4-4.3Z" transform="translate(-9.3 -9.9)" style="fill:#1e1149"/><path d="M480.3,53.9l5.3,6.3-6.5,1.2c-2.8.4-5.5,2.3-8.3-.1,3.6-.8.9-2.9.8-4.3s-2.2-4.3,1.4-5.3S477.5,54.3,480.3,53.9Z" transform="translate(-9.3 -9.9)" style="fill:#a67db1"/><path d="M216.5,11.5c-5.6.5-9.2,5.6-14.7,6.4-2.8.2-5.4-.2-7.5-2.4,1.7-2.7,5.5-1.6,7.4-4.1C206.6,9.2,211.6,9.7,216.5,11.5Z" transform="translate(-9.3 -9.9)" style="fill:#375fa5"/><path d="M318.3,11.4c2.8,1.6,5.1,3.5,6,6.7h-5c-3.8.2-6.5-1.8-9-4.5s-4.4-3.4-7.2-.9c-1.4-1.6-.4-2.3,1-2.3C308.9,10.3,313.8,8.8,318.3,11.4Z" transform="translate(-9.3 -9.9)" style="fill:#89679e"/><path d="M247.2,14.5a6.1,6.1,0,0,1,4.3,3.5l-8.4,9.4H242c-.3-2.6-1.8-3.9-4.3-4.2C240.4,19.8,244,17.3,247.2,14.5Z" transform="translate(-9.3 -9.9)" style="fill:#311e42"/><path d="M109.6,35.8c-1,3.1-2.1,6.2-2.1,9.6-3.6.4-6.5-1.6-9.5-3.1-.3-3.1-2.9-1.8-4.5-2.3A74.8,74.8,0,0,1,109.6,35.8Z" transform="translate(-9.3 -9.9)" style="fill:#3061a9"/><path d="M185.7,120.6c1.4-.6.7-1.5.5-2.4s2.4.2,3.1-1.1c1.6.5,3.4,2.7,4.1-.9,4.4,2.4,7,7.5,12.7,7.4-4,2.6-8.1,1.2-12.2,0S188.5,121.6,185.7,120.6Z" transform="translate(-9.3 -9.9)" style="fill:#11195b"/><path d="M201.7,11.4c-1.9,2.5-5.7,1.4-7.4,4.1l-12.6,8.1V23c-.1-2.1-.1-4.2-.1-6.3A152.3,152.3,0,0,1,201.7,11.4Z" transform="translate(-9.3 -9.9)" style="fill:#5daca5"/><path d="M303.1,12.8c2.8-2.5,5.1-1.3,7.2.9s5.2,4.7,9,4.5c0,.3.1.5.1.8-3.3-.4-6.2,0-6.4,4.3C308.6,20.8,306.4,16.3,303.1,12.8Z" transform="translate(-9.3 -9.9)" style="fill:#2e2959"/><path d="M407.3,34.8c-4.5-.3-4.2,1.4-2.2,4.5s4.9,2.9,2.2,6.1L396.7,39l4.2-5.3C403.1,34,405.4,33.2,407.3,34.8Z" transform="translate(-9.3 -9.9)" style="fill:#c4b3cd"/><path d="M145.7,26.3c-1.5,2.3-1.1,4.9-1.2,7.5a23.1,23.1,0,0,1-10.4-2.1c-1.2-1.7-3.1-.7-4.6-1.3A80.1,80.1,0,0,1,145.7,26.3Z" transform="translate(-9.3 -9.9)" style="fill:#4072b1"/><path d="M335.1,23.3c5.2.4,2-4.8,4.2-6.4,3.1,1.6,6.5,1.8,9.8,2.5a3.9,3.9,0,0,0,.9,3.3c-4.6.5-9,2-13.7,1.6Z" transform="translate(-9.3 -9.9)" style="fill:#aa82b7"/><path d="M351.1,110c-2.5,5.6-8.7,6.3-12.8,9.7-1.2-.5-.9-1.4-.8-2.3,2.9-.6,3.1-3.8,5.1-5.3l8.5-5.3C350.7,107.9,349.5,109,351.1,110Z" transform="translate(-9.3 -9.9)" style="fill:#1b4a5e"/><path d="M181.6,16.7c0,2.1,0,4.2.1,6.3-4.8,1.3-8.4-2.7-12.8-3.1A49.3,49.3,0,0,1,181.6,16.7Z" transform="translate(-9.3 -9.9)" style="fill:#87d0ca"/><path d="M21.9,59.2,25,62.4c0,.3-.1.7-.1,1-5.2.7-8.8,4.9-13.6,6.5A71.5,71.5,0,0,1,21.9,59.2Z" transform="translate(-9.3 -9.9)" style="fill:#182a54"/><path d="M108.6,46.4c3.7,4.8,9.3,7.7,12.6,12.9l-2.7,3.2c-1.1,1.5-3.8,2.7-1.4,5s4.3,1,6.1-.4a15.5,15.5,0,0,0,2.4-2.7c3.7,1.1.3,5.8,3.6,7,.7,1.3,2.2,2.6.5,4.1s-4.2,6-7.3,8.1L110.6,71.8c-4.3-.7-5,3.5-7.3,5.4h-1c0-5.9,0-11.8-.1-17.8,0-1.7.7-4-2.2-4.5C103,52.2,104.3,47.8,108.6,46.4Z" transform="translate(-9.3 -9.9)" style="fill:#0f0f1c"/><path d="M108.6,46.4c-4.3,1.4-5.6,5.8-8.6,8.5-4.7,4.9-9.4,9.7-14,14.7-2,2.1-3.4,2.5-5.5.1s-6-6.3-9-9.4a18.4,18.4,0,0,1,4.4-4.4c2.5-2.1,4-4.5.9-7.3,6.5.7,11.7-3,17.2-5.2,1.4-.5,2.5-1.2,4-1.1,3,1.5,5.9,3.5,9.5,3.1h1.1Z" transform="translate(-9.3 -9.9)" style="fill:#1e564c"/><path d="M102.3,77.2h1c2,6.9.3,14.2,2.1,21.2l-2.1,2c-6.6,2.4-12.1-1.4-17.8-3.6-3.1-1.2-2-2.7-.3-4.1,4.4-3.8,8.9-7.4,13.2-11.2C99.7,80.2,101,78.7,102.3,77.2Z" transform="translate(-9.3 -9.9)" style="fill:#321d3c"/><path d="M40.8,59.3c6.2,1,11-2.6,16.2-5,2.7-1.3,5.5-2.4,8.2-3.6-3.4,5,1.7,7.8,3.1,11.6-.8.7-1.6,1.3-2.4,2.1-7.5,7.5-7.5,7.4-15.4-.1-1.7-1.6-2.8-5.6-6.6-3.1Z" transform="translate(-9.3 -9.9)" style="fill:#1d544b"/><path d="M40.8,59.3l3.1,1.9c-.1.2-.1.4-.2.5-3,3.1-5.5,7.9-9.1,8.9s-6-5.2-9.7-7.2c0-.3.1-.7.1-1a8.1,8.1,0,0,0,4.6-2.1C33.1,57.3,36.9,58,40.8,59.3Z" transform="translate(-9.3 -9.9)" style="fill:#143e36"/><path d="M68.3,62.3c-1.4-3.8-6.5-6.6-3.1-11.6s7.3-3.6,11.6-2.1,1.6,5.2-.9,7.3a18.4,18.4,0,0,0-4.4,4.4Z" transform="translate(-9.3 -9.9)" style="fill:#133b34"/><path d="M286.6,48.7c2.1,7,7.4,10.8,13.7,13.6-1.3.3-4-.3-2.3,2.2a28.7,28.7,0,0,0,7,6.9c1.2.9,1.5-.8,1.8-1.7,1.6,1.8.9,3.4-.4,5.1l-6.1,7.7a23.4,23.4,0,0,0-5.3,5.1c-6,7.3-11.7,14.9-18.6,21.5-2,1.8-3.6,2.7-5.8.4C257.7,96,243.5,83.7,231.5,69.3c-5.2-6.2-5.1-6.2-.7-12.3a6.6,6.6,0,0,0,.6-2,204.9,204.9,0,0,1,18-18.1l2.2-2.1c2.4,4.2,3.9.6,5.5-.8s2.8-1.1,4,.3,4,2.6,3.6,4.8-2.7,1-4.1.7-2.1-.8-2.8.3.5,1.8,1.1,2.6c9.3,11.5,20.5,21.1,30.8,31.7.8.8,2.1,1.7,3.3,1.2s.9-2.5.9-3.8c-.4-5.7-5.2-8.5-8.5-12.2s-4.7-5.8,0-9.9Z" transform="translate(-9.3 -9.9)" style="fill:#533482"/><path d="M231.4,55a6.6,6.6,0,0,1-.6,2c-4.4,6.1-4.5,6.1.7,12.3,12,14.4,26.2,26.7,39.1,40.2,2.2,2.3,3.8,1.4,5.8-.4,6.9-6.6,12.6-14.2,18.6-21.5a23.4,23.4,0,0,1,5.3-5.1c-3.2,6.3-8.2,11.2-12.6,16.6-5.7,7-11.6,13.6-17.5,20.4-2.8,3.1-5.2,3.7-8.6.2-14.3-14.7-28.9-29.1-43.3-43.5-1-1-1.8-2.2-2.7-3.2A84.8,84.8,0,0,1,231.4,55Z" transform="translate(-9.3 -9.9)" style="fill:#3d2476"/><path d="M231.4,55a84.8,84.8,0,0,0-15.8,18c-1.5-2.7-3-5.4-4.6-8.1a2.3,2.3,0,0,1,.6-3.3,5,5,0,0,0,1.8-4.6c8.4-10.9,18.7-20.1,28.6-29.6h1.1c1.5,3.5,6.6,4.7,6.3,9.5A204.9,204.9,0,0,0,231.4,55Z" transform="translate(-9.3 -9.9)" style="fill:#3d2265"/><path d="M286.6,48.7l-1.2,1c-2.3.2-3.3-1.7-4.6-2.9L261.1,27.4c-.3-4.8,4.8-6,6.4-9.5l16.3,15.7c.5.4,1.3,3.6,2.7.4,1.8.7,1.8,3,3.2,4C291.6,42.5,288.1,45.3,286.6,48.7Z" transform="translate(-9.3 -9.9)" style="fill:#aa89b8"/><path d="M306.8,69.7c-.3.9-.6,2.6-1.8,1.7a28.7,28.7,0,0,1-7-6.9c-1.7-2.5,1-1.9,2.3-2.2Z" transform="translate(-9.3 -9.9)" style="fill:#8b69a2"/><path d="M105.4,98.4c-1.8-7-.1-14.3-2.1-21.2,2.3-1.9,3-6.1,7.3-5.4-1.8,1.2-.3,2.2.1,3.3.2,2.8,2.4,4.2,4.2,5.6,4.1,3.2,2.9,5.7-.5,8.1a19.7,19.7,0,0,0-5.8,5.7,3,3,0,0,0,0,3.8Z" transform="translate(-9.3 -9.9)" style="fill:#321c60"/><path d="M198.6,125.8c-.7,1.3-2,1-3.1,1.1-5-3.1-10.1-5.9-15.9-7.2v-.9c1.2-.5,1-1.5,1.1-2.4l2,2.1a2.7,2.7,0,0,0,3.3,1C192.3,117.5,195.5,121.4,198.6,125.8Z" transform="translate(-9.3 -9.9)" style="fill:#284e7e"/><path d="M110.7,75.1c-.4-1.1-1.9-2.1-.1-3.3l11.8,11.8c-2,2-2.7-.3-3.7-1.1Z" transform="translate(-9.3 -9.9)" style="fill:#756977"/><path d="M125.6,64.4a15.5,15.5,0,0,1-2.4,2.7c-1.8,1.4-4.1,2.4-6.1.4s.3-3.5,1.4-5l2.7-3.2A7.5,7.5,0,0,1,125.6,64.4Z" transform="translate(-9.3 -9.9)" style="fill:#1c3132"/><path d="M470.8,61.3c2.8,2.4,5.5.5,8.3.1l6.5-1.2,1,1.1c-4.1,0-6.5,4-10.5,4.2A6.5,6.5,0,0,0,467,67h0a6,6,0,0,0-.8,1.6c-1,2.5,1,2.1,2.2,2.2s4.9-.5,4.5,3.2a37.2,37.2,0,0,0-5.8.1c-2.3.5-4.8-1.7-6.9.5-3.8,3.8-8.7,6.4-11.7,11.1-3.8-1-4.9-4.7-7.1-7.2s-3.3-4.1-5.5-5.6-1.5-2.1-2.2-3.1c1.7-3.2.8-6.3.4-9.6s-2.7-6.9,3-7.5l8.3,4.4c.7,1.4,1.9,1.1,3.1.9l10.4-2.8Zm-33.9-1.7c2.1,2.3-.7,7.6,3.6,8.3,1.9.3,4.6-3.6,6.8-5.8.5-.5-7.1-5.9-8.4-5.9S437,57.7,436.9,59.6Z" transform="translate(-9.3 -9.9)" style="fill:#3c2545"/><path d="M448.5,85.7c3-4.7,7.9-7.3,11.7-11.1,2.1-2.2,4.6,0,6.9-.5a37.2,37.2,0,0,1,5.8-.1l-1.8,1c-1,.4-2.7-.5-3,1.3s.9,1.9,1.8,2.4c3.9,2.1,3,3.6-.4,5l-1.8,1.2c-5.9,5.6-12.4,5.6-19.2,1.8Z" transform="translate(-9.3 -9.9)" style="fill:#060c21"/><path d="M482.5,72.9a24.5,24.5,0,0,1,9.5,7.4c-4.6,4.1-9.7,5-15.5,2.6-2.3-1-2.8-1.8-.9-3.5Z" transform="translate(-9.3 -9.9)" style="fill:#0b1636"/><path d="M437.1,52.7c-5.7.6-3.4,4.9-3,7.5s1.3,6.4-.4,9.6a13.5,13.5,0,0,1-6.6-3.1c-4.4-3.7-7.9-3.3-11.4,1.3-1.4,1.8-2.9,5.1-6.3,2.8-5.5-7.9-13.1-12.4-22.3-14.8V48.5c2.6.2,5,1.3,7.4,2.2s5,2.4,7.9,1.1,7.4-2.8,11.1-4.1l9.3-3.1L433.4,50Z" transform="translate(-9.3 -9.9)" style="fill:#3e2574"/><path d="M387.1,56c9.2,2.4,16.8,6.9,22.3,14.8-.6,2.9-8.7,13.2-11.7,14.8h-3.2c-.2-2.7,5.1-4.8,1.2-7.4-2.3-1.6-3.6-5.4-7.4-4.3a14.8,14.8,0,0,1-.1-2.1c-2.5-6-7.2-10.5-10.6-15.9Z" transform="translate(-9.3 -9.9)" style="fill:#0e1363"/><path d="M373.7,34.9c.6,1.3,1.8.6,2.7,1,2.3,5.1,6.8,8.1,10.7,11.6a3.4,3.4,0,0,1,.1,1v.2a5,5,0,0,0-2.1-.1c-7.8,3.7-13.5-.8-19.3-5l-13.6-9.9c2.1-2.4,3.8-5.4,7.6-5.4Z" transform="translate(-9.3 -9.9)" style="fill:#462b78"/><path d="M359.7,28.3c-3.8,0-5.5,3-7.6,5.4-5.2-2.8-9.5-7.5-15.8-8.5v-.9c4.7.4,9.1-1.1,13.7-1.6C353.2,24.6,356.4,26.5,359.7,28.3Z" transform="translate(-9.3 -9.9)" style="fill:#356588"/><path d="M336.3,24.3v.9l-9.5.2L319.4,19c0-.3-.1-.5-.1-.8h5c3.2,2.5,7.2,3.5,10.8,5.2Z" transform="translate(-9.3 -9.9)" style="fill:#294d7d"/><path d="M182.7,118.5l-2-2.1L175,106c5.2.3,9.2,3.1,13.1,6.1-.3,2.4,2.4,1.8,3.1,3.2C187.9,115.2,184.7,115.3,182.7,118.5Z" transform="translate(-9.3 -9.9)" style="fill:#143465"/><path d="M388.3,74c3.8-1.1,5.1,2.7,7.4,4.3,3.9,2.6-1.4,4.7-1.2,7.4-3.6-1.6-6.4.7-9.5,1.9-.8.3-1.9.5-1.9,1.5-.1,6-2.6,5.9-6.6,2.9a14.7,14.7,0,0,0,1-2.2Z" transform="translate(-9.3 -9.9)" style="fill:#143163"/><path d="M377.5,89.8a14.7,14.7,0,0,1-1,2.2l-6.2,4.3c-6.8,2.9-12.2,8.2-19.2,10.5l-8.5,5.3a16.4,16.4,0,0,1,8.9-9.7c7.5-3.6,14.7-7.7,22-11.4A26.4,26.4,0,0,1,377.5,89.8Z" transform="translate(-9.3 -9.9)" style="fill:#10254b"/><path d="M411.5,97.3c-6.5,1.9-11.7,6.3-17.2,9.9a19.8,19.8,0,0,1-18.7,1.8c3.5-4.2,7.1-8.4,10.6-12.7,4.7-1.2,8.7-4.4,13.8-4.4,2.8,1.1,5.6,2.1,8.3,3.3s2,.7,2-1C411.7,94.9,411.4,96.1,411.5,97.3Z" transform="translate(-9.3 -9.9)" style="fill:#192477"/><path d="M400,91.9c-5.1,0-9.1,3.2-13.8,4.4-.6-2.8.9-6-1.2-8.7,3.1-1.2,5.9-3.5,9.5-1.9h4.3C398.8,87.9,398.5,90,400,91.9Z" transform="translate(-9.3 -9.9)" style="fill:#233e8d"/><path d="M351.1,106.8c7-2.3,12.4-7.6,19.2-10.5,1.7.2,1.6,1.1.5,1.9-5.7,4.2-11.4,8.4-17.3,12.5-.4.3-1.5-.4-2.4-.7S350.7,107.9,351.1,106.8Z" transform="translate(-9.3 -9.9)" style="fill:#428e92"/><path d="M398.8,85.7h-1.1c3-1.6,11.1-11.9,11.7-14.8,3.4,2.3,4.9-1,6.3-2.8,3.5-4.6,7-5,11.4-1.3a13.5,13.5,0,0,0,6.6,3.1c.7,1,1.4,2.1,2.2,3.1-.5,5.2.2,10.4-.7,15.7a12.2,12.2,0,0,1-5.7,8.7c-6,5.7-12,.9-18,0-.1-1.2.2-2.4-1.2-3.1s-2.6-2.7-3.8-4.1S402.4,85.4,398.8,85.7Z" transform="translate(-9.3 -9.9)" style="fill:#151b6c"/><path d="M433.5,50l-10.6-5.4c-.6-2.2-2.4-3.4-4.1-4.7,0-.2.1-.5.1-.8L438,44.4Z" transform="translate(-9.3 -9.9)" style="fill:#8fcfc9"/><path d="M433.5,50l4.5-5.6c3.1,3.9,7.3,7.1,7.4,12.7l-8.3-4.4Z" transform="translate(-9.3 -9.9)" style="fill:#bed7d4"/><path d="M458.9,55.2,448.5,58c1.1-1.3,2.4-2.5,3.5-3.9C455.1,50,457.4,50.3,458.9,55.2Z" transform="translate(-9.3 -9.9)" style="fill:#619d9b"/><path d="M182.7,118.5c2-3.2,5.2-3.3,8.5-3.2l11.5,9.6c-.7,3.6-2.5,1.4-4.1.9-3.1-4.4-6.3-8.3-12.6-6.3A2.7,2.7,0,0,1,182.7,118.5Z" transform="translate(-9.3 -9.9)" style="fill:#51979d"/><path d="M387.2,48.5a3.4,3.4,0,0,0-.1-1c.4-4.3,6-5.1,6.4-9.4l3.2.9,10.6,6.4a5.2,5.2,0,0,0,5.3,2.1l1,.2c-3.7,1.3-7.5,2.6-11.1,4.1s-5.4,0-7.9-1.1A25.1,25.1,0,0,0,387.2,48.5Z" transform="translate(-9.3 -9.9)" style="fill:#326989"/><path d="M393.5,38.1c-.4,4.3-6,5.1-6.4,9.4-3.9-3.5-8.4-6.5-10.7-11.6C382.6,33.1,388.4,32.9,393.5,38.1Z" transform="translate(-9.3 -9.9)" style="fill:#2a4f80"/><path d="M261.1,27.4l19.7,19.4c1.3,1.2,2.3,3.1,4.6,2.9-4.7,4.1-4.7,4.9,0,9.9s8.1,6.5,8.5,12.2c0,1.3.7,3-.9,3.8s-2.5-.4-3.3-1.2c-10.3-10.6-21.5-20.2-30.8-31.7-.6-.8-1.9-1.4-1.1-2.6s1.7-.6,2.8-.3,3.7,1.1,4.1-.7-2.3-3.2-3.6-4.8-2.4-1.7-4-.3-3.1,5-5.5.8c1.8-3.6,6.5-5,7.3-9.4Z" transform="translate(-9.3 -9.9)" style="fill:#613e88"/><path d="M258.9,25.4c-.8,4.4-5.5,5.8-7.3,9.4l-2.2,2.1c.3-4.8-4.8-6-6.3-9.5l8.4-9.4A37.1,37.1,0,0,1,258.9,25.4Z" transform="translate(-9.3 -9.9)" style="fill:#4d2e70"/><path d="M413.6,47.7l-1-.2a23.9,23.9,0,0,1,6.2-7.6c1.7,1.3,3.5,2.5,4.1,4.7Z" transform="translate(-9.3 -9.9)" style="fill:#5c9fa3"/><path d="M436.9,59.6c.1-1.9-.1-3.4,2-3.4s8.9,5.4,8.4,5.9c-2.2,2.2-4.9,6.1-6.8,5.8C436.2,67.2,439,61.9,436.9,59.6Z" transform="translate(-9.3 -9.9)" style="fill:#26172e"/><path d="M398.8,85.7c3.6-.3,5.7,2,7.7,4.4s2.1,3.1,3.8,4.1c0,1.7-.8,1.5-2,1L400,91.9C397.2,90.8,398.8,87.9,398.8,85.7Z" transform="translate(-9.3 -9.9)" style="fill:#5a6ca6"/></svg>