<svg xmlns="http://www.w3.org/2000/svg" viewBox="0 0 500 500"><path d="M500,250.5C499.7,388.6,387.6,500.3,249.5,500S-.3,387.6,0,249.5,112.4-.3,250.5,0h5.1C391.6,3.1,500.3,114.4,500,250.5ZM250,497c136.4.3,247.2-110.1,247.4-246.5S387.2,3.3,250.8,3.1,5.8,110.9,3.4,245.8C1.3,382.4,110.3,494.9,247,497Z" transform="translate(0 0)" style="fill:#1c60aa"/><path d="M250,435.8C147.4,435.8,64.2,352.6,64.3,250S147.5,64.3,250.1,64.3s185.7,83.2,185.7,185.8v3.4C434.1,354.9,351.4,436.1,250,435.8ZM67.7,250.5A182.7,182.7,0,0,0,250.4,433.2h0c101,0,182.8-81.8,182.8-182.7s-80.7-182-181-182.8S68.9,147.2,67.7,247.9Z" transform="translate(0 0)" style="fill:#1c60aa"/><path d="M300.4,32.4,284.5,51.8a6.9,6.9,0,0,1-9.8-.3h0a7.1,7.1,0,0,1-1-1.4l-7.8-20.7c-.4-.9-.4-1.8-1.7-2.6-.8,6.5-2.1,12.5-3,19s-.4,5.1-5.6,4.3-4.7-.9-3.9-6.1l3.9-25.4c0-2.2.4-3,2.6-2.2l11.2,1.3a3.8,3.8,0,0,1,3.4,3.1l7.8,21.1,3.9-4.8q5.3-6.6,9.9-13.8c1.3-.8,2.2-1.7,3.4-1.3l12.5,1.8c1.3.4,1.8.8,1.3,2.1-1.3,9.9-2.5,20.3-4.3,30.2,0,1.3-.8,1.3-1.7.9l-6.9-.9c-1.3,0-1.3-.9-.9-2.2s2.2-14.2,3.1-21.5Z" transform="translate(0 0)" style="fill:#0a386f"/><path d="M205.2,46.6a9.9,9.9,0,0,1-6.5,10.8l-16.8,6-13.8,4.8c-1.7.4-2.6.4-3-1.8l-9.5-27.1c-.4-.9-1.3-2.2.9-3,11.2-3.5,21.9-7.8,33.2-10.8a8.5,8.5,0,0,1,9,3.4A66.1,66.1,0,0,1,205.2,46.6ZM187.1,35h-.9l-17.7,6c-1.3.4-.8,1.3-.4,2.2s3,8.2,4.3,12.5.9,1.7,2.6,1.3l10.8-3.9c9.5-3,10.8-6.1,5.6-15.1,0-.4-.5-.9-.5-1.3A4.1,4.1,0,0,0,187.1,35Z" transform="translate(0 0)" style="fill:#0a386f"/><path d="M62.5,312.6a10.7,10.7,0,0,1-5.6,10.7,69.1,69.1,0,0,1-16.8,4.3,8.5,8.5,0,0,1-9.5-6,131.7,131.7,0,0,1-7.3-25.4,9.1,9.1,0,0,1,7.1-10.7H31c1.3-.4,1.3,0,1.8,1.3a57.8,57.8,0,0,1,1.7,6.9.9.9,0,0,1,.6,1.1.8.8,0,0,1-1,.6h0c-2.2.9-1.8,2.6-1.3,4.3s2.1,9.5,3.4,14.3a3.9,3.9,0,0,0,4.6,3h.1a38.8,38.8,0,0,0,10-2.6,4.6,4.6,0,0,0,2.5-4.3,87.9,87.9,0,0,0-4.3-16c0-.8-.8-1.7-2.1-2.1s-3,0-2.2,2.6,1.3,5.6,2.2,8.1.4,2.2-1.3,2.6-4.3,1.3-5.6-3-3-10.3-4.3-15.5-.5-2.6,1.7-3a45,45,0,0,1,10.3-2.2,6.6,6.6,0,0,1,7.4,3.9A180.6,180.6,0,0,1,62.5,312.6Z" transform="translate(0 0)" style="fill:#0a386f"/><path d="M460.8,244.9c-7.4.4-11.2-1.7-13-9.1a131.4,131.4,0,0,1-3-25,9.6,9.6,0,0,1,7.6-11l1.5-.2,13.3-1.7a9.5,9.5,0,0,1,10.4,8.2,168.4,168.4,0,0,1,3.4,25.4c.9,6.9-2.1,10.4-9,11.7Zm.8-10.4,6.1-1.2c3.9-.5,5.1-1.8,4.7-5.7s-1.3-9-1.7-13.3-2.6-5.6-6.9-5.2l-6.5.9a3.8,3.8,0,0,0-3.9,3.7h0a1.4,1.4,0,0,0,0,.9,84.9,84.9,0,0,0,1.8,14.2c.8,4.8,2.1,5.6,6.4,5.6Z" transform="translate(0 0)" style="fill:#0a386f"/><path d="M465.5,295.8a80.1,80.1,0,0,1-12.9-1.8,8.6,8.6,0,0,1-6.9-8.2,90,90,0,0,1,3-30.1,8.5,8.5,0,0,1,9.5-6.5,47.7,47.7,0,0,1,15.5,1.7,8.2,8.2,0,0,1,7.3,9h0a145.9,145.9,0,0,1-2.6,28C477.2,294,473.7,295.8,465.5,295.8Zm-.8-10.4c3,0,5.6,0,6-3.4a69.8,69.8,0,0,0,1.7-16.4,3.9,3.9,0,0,0-2.9-4.7h-1l-8.2-1.3a4.3,4.3,0,0,0-4.7,3.9h0a100.2,100.2,0,0,0-1.7,16.4,4.2,4.2,0,0,0,3.4,4.3Z" transform="translate(0 0)" style="fill:#0a386f"/><path d="M458.2,347a5.4,5.4,0,0,1-.9,4.4,98.4,98.4,0,0,1-11.6,21.1,7.8,7.8,0,0,1-10.3,3.8,5.7,5.7,0,0,1-1.3-.8c-1.3-.4-1.3-1.3-.9-2.2a35.6,35.6,0,0,0,3.4-6c.5-.4.5-1.3,1.3-.9s3.9-1.7,5.2-3.4,3.5-6.9,5.6-10.4a3,3,0,0,0-.7-4.2h-.2c-2.1-.8-3,.5-3.8,1.8s-6.1,10.7-9.5,15.9-13.4,7.3-18.6,0a8.9,8.9,0,0,1-.4-7.3,116.6,116.6,0,0,1,13.8-24.6,7.3,7.3,0,0,1,10.1-2.1l1.1.8c.9.9.9,1.3.4,2.2s-2.1,3.9-3.4,6-.9,1.3-1.7.9-3,.4-3.9,1.7L425,356.1c-.9,1.3-1.7,3,.4,4.3s3.5,0,4.3-1.7l7.4-12.1a14.7,14.7,0,0,1,2.1-3.9,10.4,10.4,0,0,1,14.2-3.7,9.9,9.9,0,0,1,3.9,4.2A4.1,4.1,0,0,1,458.2,347Z" transform="translate(0 0)" style="fill:#0a386f"/><path d="M400.9,115.6a8.2,8.2,0,0,1-5.6-2.2,147.5,147.5,0,0,1-19.4-17.6c-3.9-4.4-3.5-7.8.8-12.1s1.3-.9,2.2,0l4.3,3.9c.9,1.3,2.6,1.7.9,3.8s0,2.2.8,3.1l11.2,9.9c.9,1.3,2.6,2.1,3.9.4s.9-3-.4-4.3L387.1,88c-6.5-6.5-6.1-12.1,1.7-17.2a7.1,7.1,0,0,1,7.8-.5l4.7,3a189.1,189.1,0,0,1,15.9,15.1,7.9,7.9,0,0,1,.3,11,2.3,2.3,0,0,1-.7.7c-.9,1.3-1.7.8-2.6,0L410.8,97c-1.3-1.2-3-2.1-1.7-4.7s-.5-1.7-1.3-2.6a77.6,77.6,0,0,0-10.4-9.5,2.2,2.2,0,0,0-3-.4l-.4.4a2.7,2.7,0,0,0-.3,3.7l.3.2,9,8.6a47,47,0,0,1,6.1,6.5,7,7,0,0,1,1.7,8.6A13,13,0,0,1,400.9,115.6Z" transform="translate(0 0)" style="fill:#0a386f"/><path d="M222.4,45.3l22-2.6c1.7,0,2.6.5,2.6,2.6s.4,5.2-4.8,5.6l-29.7,3c-1.7.5-2.2,0-2.6-1.7-.8-9.5-1.7-18.9-3-28.9,0-1.7,0-2.5,2.6-2.5l31.9-3.5c2.1-.4,3,0,3,2.2v.8c.4,4.3.4,4.3-3.9,4.8l-20.2,2.1c-1.3,0-3.1,0-2.2,2.2s-.4,3.9,2.6,3.4l20.7-2.1c1.7-.5,2.6,0,2.6,2.1V35c.8,1.7,0,2.1-1.8,2.6l-19.8,1.7c-1.3.4-3.4-.4-3,2.6S219.4,46.6,222.4,45.3Z" transform="translate(0 0)" style="fill:#0a386f"/><path d="M426.7,105.7a7.6,7.6,0,0,1,6.9,2.6,107.9,107.9,0,0,1,15.5,22.4,8.6,8.6,0,0,1-4.2,11.4l-.5.2c-1.3.4-1.3,0-1.7-.4l-4.3-6.1c-.5-.4-.9-1.3,0-1.7s1.3-3,.4-4.7L431,118.6a4.3,4.3,0,0,0-5.7-2.2h0l-.7.5c-11.2,7.3-9.9,7.3-3.9,16.4l3.4,5.1c1.8,2.2,3.1,3.5,5.6,1.7s1.3,0,1.8.9l1.7,2.6c.4,1.7,4.3,3,2.1,5.6a8.9,8.9,0,0,1-11.6,1.7l-3-2.6a144.4,144.4,0,0,1-13.4-20.2,8.8,8.8,0,0,1,1.3-11.7,50.1,50.1,0,0,1,13.4-9.9A6,6,0,0,1,426.7,105.7Z" transform="translate(0 0)" style="fill:#0a386f"/><path d="M35.8,277.6H21.6c-1.3,0-2.2-.4-2.2-2.1s-.9-6,.4-7.8,4.8-.4,7.4-.8,4.3,0,4.3-4.3-.5-11.2-.9-16.4-.4-2.2-2.2-2.2H20.7c-1.3,0-2.2-.4-2.2-1.7h0c-.8-8.2-.8-8.2,6.9-8.6l24.6-.9c1.7,0,2.2.5,2.2,1.7h0c.4,8.7.4,8.7-8.2,8.7s-4.8.4-4.3,4.7.4,10.8.4,16,.4,2.5,2.1,2.1h8.7c1.7-.4,2.1.4,2.1,2.2.4,8.2.4,8.2-8.2,8.2h-9Z" transform="translate(0 0)" style="fill:#0a386f"/><path d="M443.1,198.3c-.9,0-.9-.8-1.3-1.3a39,39,0,0,0-2.6-6.4c-.4-1.7,0-2.2,1.3-2.6l8.2-3c1.7-.5,1.7-1.3,1.3-3s-4.7-11.7-6.9-17.3-.9-1.7-2.2-1.3l-8.6,3.5c-1.3.4-1.7,0-2.6-1.3-3.4-7.8-3.4-7.8,4.8-10.8l21.5-8.2c1.8-.8,2.6-.8,3.1,1.3s3,5.2,2.5,6.9-4.7,2.2-6.9,3.5-3.8,1.2-2.5,5.1l5.6,14.2c.8,3.1,2.1,3.5,4.3,2.2l5.6-2.2c2.1-1.2,3-.4,3.4,1.3s3,5.2,2.2,7.4-4.3,2.1-6.5,3l-21.5,8.2Z" transform="translate(0 0)" style="fill:#0a386f"/><path d="M92.7,123.8a9.3,9.3,0,0,1-7.4-2.6A46.1,46.1,0,0,1,75,111.3a9.9,9.9,0,0,1-.9-13A151.3,151.3,0,0,1,91.8,80.2c4.8-4.3,8.2-2.6,12.9,1.3s.5,1.3,0,2.2l-3.8,3.9c-1.3,1.3-2.2,2.5-3.9.8s-2.2.5-3,.9L83.6,100.1a3.8,3.8,0,0,0,.3,5.4h0l.2.2,6.4,6a3.9,3.9,0,0,0,5.5.1h.1a120.4,120.4,0,0,0,9.9-10.3c.9-.9,1.8-2.2.9-3.1s-.4-4.7,1.7-6,1.7-5.2,4.8-3a9,9,0,0,1,3.8,12.1,73.5,73.5,0,0,1-9.4,10.7l-9.5,9.5A9.7,9.7,0,0,1,92.7,123.8Z" transform="translate(0 0)" style="fill:#0a386f"/><path d="M163.8,69.5,159.5,72c-3.5,3.1-6.5,3.5-9.5.5s-2.2,0-3,.4l-14.7,9.5a3.4,3.4,0,0,0-1.7,3.9,4.6,4.6,0,0,1-2.2,6.1h-.2l-.6.2-3.5,2.2c-.8.4-1.3,1.7-2.5.9s-.5-1.3-.5-2.6c-.8-10.8-1.3-21.6-2.1-32.4,0-2.1.4-3,2.1-3.8l3.9-2.6a8.7,8.7,0,0,1,11.2-.9c8.1,5,16.4,9.6,25,13.8A5.3,5.3,0,0,1,163.8,69.5Zm-35.4-8.7,1.3,14.7,11.7-7.3Z" transform="translate(0 0)" style="fill:#0a386f"/><path d="M91.4,128.1l-4.8,8.6c-.8,2.2-2.5,1.3-3.8,1.3s-4.4.4-5.6,3-4.8,8.6-7.4,12.9-1.7,3.1,0,4.8a4.9,4.9,0,0,1,.7,6.7l-.7.6c-1.3,1.7-2.1,3.9-3.9,6l-2.5-4.7c-5.2-8.6-10.4-17.2-16-25.9a3.8,3.8,0,0,1,0-4.3l3-4.7a6.9,6.9,0,0,1,8.2-5.3h.5Zm-34.9,9,7.3,12.5,7.3-12.5Z" transform="translate(0 0)" style="fill:#0a386f"/><path d="M322,28.1h.8c3.9,1.7,8.7,2.1,10.8,5.6a51.8,51.8,0,0,1,3.9,12.1c.9,4.3.9,4.3,5.2,2.1l9.9-5.2c1.3-.4,2.1-.8,3.4,0l10.4,4.8-17.7,8.2h-.4a15.1,15.1,0,0,0-11.7,12c-.2,2.3-1.5,2.8-3.8,1.3s-6.1-1.3-6.5-3,1.3-4.7,2.6-6.9a10.6,10.6,0,0,0,.4-8.2C326.7,43.6,324.6,35.8,322,28.1Z" transform="translate(0 0)" style="fill:#0a386f"/><path d="M34.9,188.4c-.8,3.9-1.3,7.4-2.1,10.8s.4,2.6,2.1,3l19.8,3.5c1.8.4,2.6.8,1.8,3s0,6.4-1.8,7.3-5.1-.4-7.7-.9l-14.2-3c-1.8,0-2.6,0-2.6,2.2A89.8,89.8,0,0,1,28,224.6c0,1.3-.4,2.2-2.1,1.8s-6.9-1.3-5.2-7.8,3.9-20.3,5.6-30.2c.4-2.6,1.3-3,3.4-2.6l3.9.9C34.5,187.1,35.3,187.6,34.9,188.4Z" transform="translate(0 0)" style="fill:#0a386f"/><path d="M88.8,363.9l-1.3,1.2L62.1,380.7c-1.8.8-2.2.4-3-.9s-3.9-4.7-3.5-6.9,3.9-3,6-4.3l13-7.8c1.7-.8,1.3-1.7.4-3l-9.5-15.9c-.8-1.3-.8-2.2.4-3s5.7-3.5,9.1,1.7,8.2,14.2,12.5,21.5Z" transform="translate(0 0)" style="fill:#0a386f"/><path d="M474.6,307a67.4,67.4,0,0,0-3,8.6c-.9,2.6-1.3.4-2.2,0l-19-6.1c-2.1-.8-3.4-.4-3.8,2.2s-3.9,10.8-5.7,16.4-.8,2.1-3,1.7-5.6-1.7-3.8-7.8l7.7-23.7c.9-2.1,1.3-2.1,3.5-1.7l27.1,9.1C473.3,306.1,474.1,305.7,474.6,307Z" transform="translate(0 0)" style="fill:#0a386f"/><path d="M82.3,411.3l31.1-12.5a2,2,0,0,1,2.5.4c5.7,4.3,5.7,4.3,1.8,9.9l-13.4,19c-1.3,1.7-2.1,1.7-3.4.4l-1.8-1.7c-1.3-.9-1.7-1.7-.4-3.5s3.5-4.7-.9-8.6-3-2.1-4.7-.8h-.9C86.6,416.4,86.2,416.4,82.3,411.3Zm30.2-5.6a67.2,67.2,0,0,0-11.6,4.3l3.8,3.4c.9,1.3,1.3.5,2.2-.4l5.6-7.8h0Z" transform="translate(0 0)" style="fill:#1c60aa"/><path d="M277.6,480.7h-2.2c-1.3-.5-3,0-3.4-1.3a8.9,8.9,0,0,1,.8-4.8c.5-1.3,1.3-.4,2.2-.4a15,15,0,0,0,7.3,0c1.3-.9,2.6-1.7,2.6-3a3.9,3.9,0,0,0-2.1-3.5l-4.8-2.1a8.6,8.6,0,0,1-5.4-10.9h0a9.3,9.3,0,0,1,3.7-4.6,18.2,18.2,0,0,1,13.4-3.1c2.1.5,1.2,1.8.8,3.1s.9,3.8-2.1,3h-6.1a3,3,0,0,0-2.6,3c-.4,1.3.9,2.2,2.2,3l4.7,2.2a9,9,0,0,1,5.2,11.6h0a9.4,9.4,0,0,1-3.4,4.2A17,17,0,0,1,277.6,480.7Z" transform="translate(0 0)" style="fill:#1c60aa"/><path d="M41.4,346.6c-1.3,0-1.3-1.3-1.7-1.7s-3.1-4.8-2.6-7.3l1.7-.9,25.9-11.6c2.1-.9,3-.9,3.4,1.3s3.5,5.1,2.6,6.9-3.9,2.5-6.5,3.4l-21.1,9.5Z" transform="translate(0 0)" style="fill:#0a386f"/><path d="M259.1,468.6a14.4,14.4,0,0,1-14.2,14.2h-.1a9.7,9.7,0,0,1-9.5-9.5h0v-.4a13.3,13.3,0,0,1,12.3-14.2h2a9,9,0,0,1,9.5,8.5h0Zm-16.4,3.9c0,1.7,0,3.9,2.6,4.7s3.4-.8,4.7-2.6a11,11,0,0,0,1.7-6.4c0-1.8-.4-3.5-2.1-3.9a3.9,3.9,0,0,0-4.8,1.3,12,12,0,0,0-2.1,6.9Z" transform="translate(0 0)" style="fill:#1c60aa"/><path d="M311.6,471.2a12.9,12.9,0,0,1-4.7,4.3,5.7,5.7,0,0,1-7.8-1.5h0a6.3,6.3,0,0,1-.8-2.3,100.2,100.2,0,0,1-1.7-16.4c0-1.3.8-1.3,1.2-1.7l5.2-1.3,1.3,13.8c0,1.7,0,3.5,2.2,3.5a3.3,3.3,0,0,0,3.4-2.6,6.6,6.6,0,0,0,.9-3.9,56.4,56.4,0,0,1-.5-8.2c-.4-4.3.9-5.6,5.2-5.6s1.3.4,1.3,1.3,1.3,13.4,1.3,20.3-2.6,1.7-3.9,2.5S312.5,472,311.6,471.2Z" transform="translate(0 0)" style="fill:#1c60aa"/><path d="M367.2,440.6c3.1,2.6,4.4,2.6,10.8-3.9,3.5,4.3,3.5,4.3-.4,7.8l-3.9,3a9.2,9.2,0,0,1-12.1-3,13.9,13.9,0,0,1,2.3-19.4,13.7,13.7,0,0,1,2-1.3,6.5,6.5,0,0,1,8.7,1.3,6,6,0,0,1,.5,8.5h0l-.5.5C372.8,437.1,369.8,438.4,367.2,440.6Zm-2.1-5.2a10.2,10.2,0,0,0,4.3-3.4,1.8,1.8,0,0,0,.1-2.5c0-.1,0-.1-.1-.1h0c-.9-1.3-1.7-.9-2.6,0a4.3,4.3,0,0,0-1.8,5.8C365,435.3,365,435.3,365.1,435.4Z" transform="translate(0 0)" style="fill:#1c60aa"/><path d="M153.9,451.8c-1.3,2.1,0,3.4,1.7,4.7l4.3,1.8c.9.4,3-.9,2.6,1.7s-.4,3.9-3.4,3.4l-5.7-1.7c-7.3-3-9-9.1-4.3-15.9a13.4,13.4,0,0,1,17.7-4.4,7.4,7.4,0,0,1,3.9,8.7,7.3,7.3,0,0,1-8.6,4.3A46,46,0,0,1,153.9,451.8Zm2.6-4.8a14.3,14.3,0,0,0,5.6,2.2c1.3,0,1.7-.4,2.1-1.7a1.7,1.7,0,0,0-.8-2.2A5.7,5.7,0,0,0,156.5,447Z" transform="translate(0 0)" style="fill:#1c60aa"/><path d="M377.2,419.9a13.2,13.2,0,0,1,9-10.4c2.2-.4,1.7,1.3,2.2,2.2s1.3,2.2-.5,2.6a17,17,0,0,0-3.8,2.6c-.5.8-.9,1.3-.5,2.1a1.7,1.7,0,0,0,1.7.9h3.9a6.8,6.8,0,0,1,8,5.4v.2h0a7.8,7.8,0,0,1-.6,4.3,14.7,14.7,0,0,1-9.1,7.8c-2.2.8-2.6-.9-3-2.2s-.9-2.6,1.3-3a7.3,7.3,0,0,0,3.9-2.2,2.1,2.1,0,0,0,.8-2.6,2.5,2.5,0,0,0-2.6-1.2l-4.3.8a5.9,5.9,0,0,1-6.6-4.9,6.5,6.5,0,0,1,.2-2.4Z" transform="translate(0 0)" style="fill:#1c60aa"/><path d="M181,447.9a13,13,0,0,1,8.7,2.6,1.2,1.2,0,0,1,.8,1.5h0l-.4.6c-.9.9-.9,3.5-3.5,2.2s-3.8-3.4-5.6-1.3,1.3,3.5,2.2,5.2a6.5,6.5,0,0,1,.4,9.1,6.5,6.5,0,0,1-4.3,2.1,14.1,14.1,0,0,1-12.1-3.5c-2.1-1.7,0-2.5.9-3.4s1.3-2.2,2.6-.9a6.2,6.2,0,0,0,3.9,2.6c1.3.4,2.1.4,3-.8s0-1.8-.4-2.6l-1.3-1.8a6.8,6.8,0,0,1-2.2-7.7A6.5,6.5,0,0,1,181,447.9Z" transform="translate(0 0)" style="fill:#1c60aa"/><path d="M196.1,475.9a12.9,12.9,0,0,1-6.9-1.7c-3-1.3-3.4-2.2-1.3-5.2s1.3-1.3,2.6-.4l3.9,2.2a2.7,2.7,0,0,0,3-.9,1.7,1.7,0,0,0-.2-2.4h0l-.2-.2-2.6-2.6a6.5,6.5,0,0,1,3-11.2,13.7,13.7,0,0,1,10.8,1.3c1.3.9,1.3,1.7.4,2.6s-.8,3.9-3,2.1a6.7,6.7,0,0,0-3.9-1.2c-.8,0-1.7,0-2.1.8a3,3,0,0,0,.4,2.6l1.7,1.3c2.2,2.1,4.3,4.3,3,8.2A8.5,8.5,0,0,1,196.1,475.9Z" transform="translate(0 0)" style="fill:#1c60aa"/><path d="M232.3,452.2a3,3,0,0,1-.4,2.6c-.4,2.2-1.3,3.9,2.2,3.9s2.1,0,1.2,1.3,0,4.3-2.1,3.4-4.3,1.7-5.2,4.3l-1.3,5.2c-.4,1.3-.4,2.6,1.3,2.6s2.2.4,1.3,2.1.4,3.5-2.1,3.9-9.1-2.6-7.8-8.2l2.2-7.3c.4-1.3,1.7-3-.9-3.9s0-1.7,0-3,.4-2.1,1.7-1.7,1.7,0,2.2-1.3S227.6,451.8,232.3,452.2Z" transform="translate(0 0)" style="fill:#1c60aa"/><path d="M392.2,407a13.2,13.2,0,0,1,8.2-10.4c1.8-.8,1.8.9,1.8,1.7s2.1,1.8.4,3.1-4.8,2.1-3.9,4.3,3.5.4,5.6.4a6,6,0,0,1,6.9,2.2,7.2,7.2,0,0,1,.9,7.7,17.3,17.3,0,0,1-7.8,7.8c-2.1.8-2.6,0-3.4-1.8s-.9-2.5,1.3-3.4l3.4-2.2a2.5,2.5,0,0,0,.9-2.5,2.1,2.1,0,0,0-2.6-.9l-5.2.9A7,7,0,0,1,392.2,407Z" transform="translate(0 0)" style="fill:#1c60aa"/><path d="M143.5,431.1a12.4,12.4,0,0,1,8.2,3.4c.5.5,2.2,1.3.9,2.2s-1.7,4.3-4.8,2.2a7.3,7.3,0,0,0-10.3.3l-.4.5a4.7,4.7,0,0,0-1.4,6.4h.1a4.3,4.3,0,0,0,3.4,2.1c.9.5,3-.4,2.2,1.8s-.9,3.8-4.3,3-9.9-6.1-9.1-11.2A13.7,13.7,0,0,1,143.5,431.1Z" transform="translate(0 0)" style="fill:#1c60aa"/><path d="M332.8,467.3a10.8,10.8,0,0,1-11-10.6h0a12.3,12.3,0,0,1,.2-1.9,15.2,15.2,0,0,1,11.6-13.4c.9,0,2.6-1.3,3,.5s1.8,4.3-1.7,5.1a6.8,6.8,0,0,0-5.7,7.7v.2a2.2,2.2,0,0,0,.1.8c.4,4.7,3.5,6.4,7.8,3.8s1.7-2.1,2.6-.4,2.5,3.5.4,5.2A14.8,14.8,0,0,1,332.8,467.3Z" transform="translate(0 0)" style="fill:#1c60aa"/><path d="M123.7,438c-3,5.2-3.4,5.2-8.2,2.1a10,10,0,0,1-3.7-13.5,11.6,11.6,0,0,1,2-2.4,15.6,15.6,0,0,1,21.1,0c.4.9,2.2,1.7.4,3s-2.1,3.5-4.7,1.3a7.1,7.1,0,0,0-9.7-1.1,5.7,5.7,0,0,0-1.1,1.1,4.5,4.5,0,0,0-2.2,5.7,4.5,4.5,0,0,0,3.5,2.5Z" transform="translate(0 0)" style="fill:#1c60aa"/><path d="M340.9,447a14.8,14.8,0,0,1,10.8-14.2c.9-.4,2.2-1.3,2.6.5s2.2,3.4-.9,4.7a7.8,7.8,0,0,0-5.6,8.6c.9,5.2,4.4,6.9,8.7,3.9s1.3-2.6,2.6-.4,3,2.5.4,4.7a13.4,13.4,0,0,1-6.1,3.5c-6,1.7-10.7-1.8-12-8.7A5.8,5.8,0,0,1,340.9,447Z" transform="translate(0 0)" style="fill:#1c60aa"/><path d="M84.9,398.8c-.4-3.5-1.3-5.2-4.7-5.6s4.3-3.1,3.9-6.1,3.8,3,6.8,1.3-1.7,4.8.5,6.9A6.5,6.5,0,0,0,84.9,398.8Z" transform="translate(0 0)" style="fill:#1c60aa"/><path d="M412.5,393.2c2.2-1.8,4.3-3.1,3-6.5s4.3,3.4,7.3,1.7-1.7,4.8.5,6.9a6.1,6.1,0,0,0-6.5,3C416.4,395.3,415.1,393.6,412.5,393.2Z" transform="translate(0 0)" style="fill:#1c60aa"/><path d="M387.1,170.8l-4.8,5.1A148.2,148.2,0,0,0,350,233.7a289.9,289.9,0,0,0-11.6,55.2c-3.5,27.1-13,51.7-32.8,71.5a120.7,120.7,0,0,1-45.3,27.2h-2.5l5.6-5.2a106.1,106.1,0,0,0,22.8-44.8,201.3,201.3,0,0,0,5.6-60.4c-.4-21.1,2.2-40.9,13.8-59a102.6,102.6,0,0,1,45.3-37.1,145.4,145.4,0,0,1,32.3-9.9Z" transform="translate(0 0)" style="fill:#1c60aa"/><path d="M243.5,387.6a5.2,5.2,0,0,1-4.7-.5c-42.2-15.5-67.2-45.7-75.4-89.6-3.1-17.3-4.3-34.5-8.7-50.9a179.6,179.6,0,0,0-31-65.1l-4.7-5.1-5.2-5.6,11.6,2.1c22.4,5.6,42.7,14.7,58.7,31.5a85,85,0,0,1,24.5,56.9c.5,13.3-.8,26.7.5,40.1,1.7,23.2,6,45.6,17.2,65.9a73,73,0,0,0,15.1,19.4Z" transform="translate(0 0)" style="fill:#1c60aa"/><path d="M295.7,195.8a77.4,77.4,0,0,0-11.2,15.5,94.9,94.9,0,0,0-11.2,65.1,147.2,147.2,0,0,1-3.5,61.6,207,207,0,0,1-19.4,50.4,41.3,41.3,0,0,1-5.1-9.5,203.5,203.5,0,0,1-19-63.8,128.8,128.8,0,0,1,.4-38.7c4.3-28.5-1.3-53.9-19.4-76.3l-2.6-3.1a3.9,3.9,0,0,1,3.9.5,97.3,97.3,0,0,0,45.3,9.9A116.8,116.8,0,0,0,291.8,197l3-1.7Z" transform="translate(0 0)" style="fill:#0a386f"/><path d="M250.4,158.7a19.9,19.9,0,0,1,19.9,19.4,20.3,20.3,0,1,1-39.8,8.2l-.3-2.3a19.5,19.5,0,0,1,0-5.9,19.2,19.2,0,0,1,19-19.4h1.2Z" transform="translate(0 0)" style="fill:#0a386f"/></svg>