<svg xmlns="http://www.w3.org/2000/svg" viewBox="0 0 500 459.8"><path d="M257.3,458.3c28-11.9,57.3-19.7,86.1-29.3,48-15.9,96.3-30.9,144.4-46.3a205.9,205.9,0,0,1,12,75.8Z" transform="translate(0.1 -1.1)" style="fill:#e20714"/><path d="M254.8,453.9c21.1-10,38.2-26,57.1-39.4,42-29.7,82.4-61.7,125.3-90.1,5.6-3.7,8.9-12.1,17.8-9,13.7,21.1,27.5,42.1,32.8,67.3-48.1,15.4-96.4,30.4-144.4,46.3-28.8,9.6-58.1,17.4-86.1,29.3l-5,.6C249.7,455.5,252.9,455.1,254.8,453.9Z" transform="translate(0.1 -1.1)" style="fill:#f1987a"/><path d="M254.8,453.9c22-30.4,44.5-60.6,66-91.4,15.7-22.4,30.6-45.4,48.2-66.3,10.4-12.5,15.9-29.1,31-37.7,21.1,16.4,40.9,33.9,55,56.9-8.9-3.1-12.2,5.3-17.8,9-42.9,28.4-83.3,60.4-125.3,90.1C293,427.9,275.9,443.9,254.8,453.9Z" transform="translate(0.1 -1.1)" style="fill:#f9d0be"/><path d="M252.4,460.9h-4.8v-9.4c6.3-2.2,8.4-7.2,9.8-13.3,8.6-36.8,23.6-71.5,33.7-107.9,8.7-31.2,22.3-61,28.5-93.2,1.5-7.9,6-14.9,16.1-14.2,13.4,5.6,28.4,9.2,39.7,17.7,8,6.1,18.5,9.2,24.6,17.9-15.1,8.6-20.6,25.2-31,37.7-17.6,20.9-32.5,43.9-48.2,66.3-21.5,30.8-44,61-66,91.4-1.9,1.2-5.1,1.6-2.5,5A13.4,13.4,0,0,0,252.4,460.9Z" transform="translate(0.1 -1.1)" style="fill:#fde8df"/><path d="M11.9,382.5c32.7,10.3,65.4,20.5,98,31q63.2,20.3,126.1,40.9c2.5.8,5.6,1.2,6.8,4.2H.1C-1.2,432.4,3.4,407.2,11.9,382.5Z" transform="translate(0.1 -1.1)" style="fill:#076635"/><path d="M238,449.1l9.6,7.1V459l-4.8-.4c-1.2-3-4.3-3.4-6.8-4.2L109.9,413.5c-32.6-10.5-65.3-20.7-98-31,6.3-25.4,19.4-47.3,33.6-68.8,2.4-.2,4.7-.3,6.8,1.3,24.7,18.3,49.6,36.3,74.2,54.8,34.1,25.6,69.9,48.8,102.9,75.7C231.7,447.4,235.2,448,238,449.1Z" transform="translate(0.1 -1.1)" style="fill:#8da688"/><path d="M238,449.1c-2.8-1.1-6.3-1.7-8.6-3.6-33-26.9-68.8-50.1-102.9-75.7C101.9,351.3,77,333.3,52.3,315c-2.1-1.6-4.4-1.5-6.8-1.3,14.7-21.8,33.2-39.8,54.3-55.3,4.9.4,7.3,3.9,9.9,7.6,22.4,31.9,46.2,62.8,68.8,94.6,18.2,25.7,37.9,50.3,54.9,76.8C235.7,441,239,444.2,238,449.1Z" transform="translate(0.1 -1.1)" style="fill:#c5d0c1"/><path d="M247.6,451.5v4.7l-9.6-7.1c1-4.9-2.3-8.1-4.6-11.7-17-26.5-36.7-51.1-54.9-76.8-22.6-31.8-46.4-62.7-68.8-94.6-2.6-3.7-5-7.2-9.9-7.6,14.7-13.9,32.6-22.4,50.8-30.4,6.7-3,13.9-5,20.8-7.5,6.3,17.8,14.3,35.1,18.5,53.3,3.2,14.1,8.7,26.7,14.5,39.6,0,3.1,0,6.2.1,9.3.5,21.3.5,21.3,21.7,22.1-3.4,3.8-8.5.5-13,3.3q15.9,48,32,96.2C245.3,446.9,244.8,449.8,247.6,451.5Z" transform="translate(0.1 -1.1)" style="fill:#e2e8df"/><path d="M185.9,215.3c-22.3-23-44.3-46.3-67-68.9-6.5-6.5-8.1-10.1-.5-17.5C161.3,87.8,203.6,46.1,245.8,4.3c4.5-4.4,6.6-4.2,10.9.2q62.6,64.2,125.6,128c5.9,5.9,5.8,9.2-.1,14.9-23.1,22.3-45.6,45.1-68.3,67.7-22.3,19.8-43.2,41.1-64,62.5-5-1.1-6.8-6-10.4-8.7-5.4-4.1-7.7-11.9-15.7-12.6-.7-1.7-1.5-3.3-2.3-4.9,4.4-.7,4-4.5,4.7-7.3,6.3-25.4,12.5-50.8,18.9-76.1,2.2-8.6,2-18,11.2-23.7,3.9-2.5,3.2-7.9,0-11.8s-7.4-4.5-11.8-2.5-7.5,6.2-5.2,10.5c4.3,8.1.9,15.3-.9,22.8-6.4,27-13,53.9-19.5,80.9-4.6,1.4-6-2.9-8.4-5.1C202.2,231.3,194.1,223.3,185.9,215.3Z" transform="translate(0.1 -1.1)" style="fill:#1d3258"/><path d="M221.3,249.4a12.3,12.3,0,0,0,.2,1.9c.8,1.7,1.6,3.3,2.3,5,.1,11.4.3,22.8.2,34.2-.1,2.3,1.4,6.3-3.1,6.2s-2.7-3.2-2.7-5.4c-.1-12.6-.1-25.2-.1-37.8C218.1,251.4,218.8,249.7,221.3,249.4Z" transform="translate(0.1 -1.1)" style="fill:#212431"/><path d="M204.4,313.4c3.7-10,11-14.9,21.3-12,12.9,3.5,12.2,14.6,12.2,25s1.3,18.1-11.7,18.4c-21.2-.8-21.2-.8-21.7-22.1C204.4,319.6,204.4,316.5,204.4,313.4Z" transform="translate(0.1 -1.1)" style="fill:#465691"/></svg>