<svg xmlns="http://www.w3.org/2000/svg" viewBox="0 0 841 123.2"><path d="M7.5,107.7C6,76,34.1,46.3,68.6,46.4s62.1,27.9,62,62S103,169.3,69,169.6,6.1,140.2,7.5,107.7Zm56.6,47.5c-3.1-4.9-5.8-8.8-7.3-13.4A61.8,61.8,0,0,1,54,127.7c-.5-5.6-.4-11.3-.5-17C53.3,92,36.3,79.2,21.6,78.4a7.6,7.6,0,0,0,.9,1.8c6.9,8.6,10.4,18.7,12.8,29.4,1.9,8.5,1.6,17.5,6,25.6S53.1,151.2,64.1,155.2Zm52.8-77.1h-2.6c-16.2,3.3-31.1,15.8-29.9,35.4.9,14.3-1.1,28.3-9.9,40.4-.1.1.3.5.5.8,14.2-5.6,22.8-16.3,25.2-31S105.3,91.5,116.9,78.1Zm-62,10c4.4,8.1,7,16.3,5.5,25.1-2.3,13.6.8,26.1,6.1,38.4.5,1,.7,2.4,2,2.6s1.9-1.6,2.4-2.7c5.8-12,8-24.5,5.9-37.8a33.1,33.1,0,0,1,2.3-18.1c1.1-2.6,2.4-5.2,4-8.7A36.9,36.9,0,0,1,54.9,88.1Zm6.9-8.4c.1,3.9,3.2,6.7,7.3,6.7a6.3,6.3,0,0,0,6.4-6.7,7.2,7.2,0,0,0-7.1-6.9A7.3,7.3,0,0,0,61.8,79.7Z" transform="translate(-7.4 -46.4)" style="fill:#56bfee"/><path d="M228.7,96.7c-.3,0-.4-.1-.4-.4V70.5a.3.3,0,0,1,.3-.3h3.9c.2,0,.3,0,.3.2V92.6H243a.3.3,0,0,1,.3.3l-.6,3.5c-.1.2-.2.3-.4.3Z" transform="translate(-7.4 -46.4)" style="fill:#fff"/><path d="M263.1,96.4a.3.3,0,0,1-.3.3h-3.9a.3.3,0,0,1-.3-.3V70.5c0-.3.1-.3.3-.3h3.9c.2,0,.3,0,.3.2Z" transform="translate(-7.4 -46.4)" style="fill:#fff"/><path d="M290.8,85.9c-.3,0-.3-.1-.3-.3V82.3c0-.2.1-.3.2-.3h8.1a.3.3,0,0,1,.3.3V95.5c0,.2,0,.3-.3.4a18.6,18.6,0,0,1-6.7,1.2c-8.4,0-12.4-6-12.4-13.5s5.4-13.8,13.3-13.8a13.4,13.4,0,0,1,5.3.8c.2.1.2.3.2.5v3.6c0,.2-.1.3-.3.2a10.5,10.5,0,0,0-5.2-1c-5.7-.1-8.6,3.6-8.6,9.6s2.8,9.5,7.9,9.5a7.5,7.5,0,0,0,2.3-.2V86.1Z" transform="translate(-7.4 -46.4)" style="fill:#fff"/><path d="M330.5,96.7a.3.3,0,0,1-.3-.3V84.9h-9.3V96.4a.3.3,0,0,1-.3.3h-3.8c-.3,0-.3-.1-.3-.3V70.5c0-.2,0-.3.3-.3h3.8c.2,0,.3,0,.3.2V80.9h9.3V70.4c0-.2.1-.2.3-.2h3.9c.2,0,.3,0,.3.2v26a.3.3,0,0,1-.3.3Z" transform="translate(-7.4 -46.4)" style="fill:#fff"/><path d="M357.1,74.2h-6.9c-.2,0-.3-.1-.2-.3l.5-3.5c0-.2.1-.2.3-.2H368c.3,0,.4,0,.4.3l.3,3.4a.3.3,0,0,1-.3.3h-6.8V96.4c0,.2-.1.3-.4.3h-3.8a.3.3,0,0,1-.3-.3Z" transform="translate(-7.4 -46.4)" style="fill:#fff"/><path d="M408.2,89.4l-1.9,7c-.1.2-.2.3-.4.3h-3.7c-.2,0-.2-.1-.2-.4l7-23.8a4.8,4.8,0,0,0,.3-2.1c0-.2.1-.2.2-.2h5.2c.2,0,.3,0,.3.2l7.9,26c.1.2,0,.3-.2.3h-4.1c-.2,0-.3-.1-.4-.3l-2-7Zm7-4.1c-.7-2.8-2.4-8.3-3-11.2h0c-.6,2.8-1.9,7.4-2.9,11.2Z" transform="translate(-7.4 -46.4)" style="fill:#fff"/><path d="M453.7,96c0,.2-.1.4-.3.4a12,12,0,0,1-4.6.7c-6.4,0-12-4.1-12-13.7s5-13.6,12.6-13.6a13.8,13.8,0,0,1,4.3.5c.2.1.2.2.2.5v3.5q0,.5-.3.3a9.4,9.4,0,0,0-4.1-.7c-4.9,0-8.1,3.5-8.1,9.4,0,7.4,4.5,9.7,8,9.7a11.6,11.6,0,0,0,4-.6c.1-.1.3-.1.3.2Z" transform="translate(-7.4 -46.4)" style="fill:#fff"/><path d="M474.6,89.4l-1.9,7c-.1.2-.2.3-.4.3h-3.7c-.2,0-.3-.1-.2-.4l7-23.8a14.3,14.3,0,0,0,.3-2.1c0-.2.1-.2.2-.2h5.2c.2,0,.2,0,.3.2l7.9,26c.1.2,0,.3-.2.3H485c-.2,0-.4-.1-.4-.3l-2-7Zm6.9-4.1c-.7-2.8-2.3-8.3-2.9-11.2h-.1c-.5,2.8-1.8,7.4-2.8,11.2Z" transform="translate(-7.4 -46.4)" style="fill:#fff"/><path d="M504.7,70.5a.3.3,0,0,1,.3-.3h6.5c8.3,0,12.5,5.3,12.5,12.8,0,10.6-7.2,13.9-12.8,13.9H505a.3.3,0,0,1-.3-.3Zm4.5,22.3h2.1c4.5,0,8-3.2,8-9.8s-3.4-9-7.8-9h-2.3Z" transform="translate(-7.4 -46.4)" style="fill:#fff"/><path d="M555.3,96.4c0,.2-.1.3-.4.3h-14a.3.3,0,0,1-.3-.3V70.5c0-.3.1-.3.3-.3h13.5c.3,0,.4,0,.4.2l.4,3.5c0,.2,0,.3-.3.3H545v6.9h8.9a.3.3,0,0,1,.3.3v3.5a.3.3,0,0,1-.3.3H545v7.4h10.6c.2,0,.3.1.2.3Z" transform="translate(-7.4 -46.4)" style="fill:#fff"/><path d="M573.3,70.2h5.8c.2,0,.3,0,.3.2,1.1,3.8,4,15.5,4.7,19.6h.1c.7-3.7,4.2-15.5,5.2-19.6.1-.2.2-.2.4-.2h5.6c.2,0,.2,0,.3.2l1,26a.3.3,0,0,1-.3.3h-4a.3.3,0,0,1-.3-.3c-.2-8.8-.2-20.3-.1-22.5h-.1c-.7,3.5-4.3,16.6-5.9,22.5a.3.3,0,0,1-.3.3h-3.6c-.2,0-.3-.1-.4-.3-1.5-6.1-4.3-17.9-5.2-22.5h-.1c0,3.3-.3,13.6-.6,22.5a.3.3,0,0,1-.3.3h-3.6c-.3,0-.4-.1-.4-.3l1.5-26C573,70.2,573.1,70.2,573.3,70.2Z" transform="translate(-7.4 -46.4)" style="fill:#fff"/><path d="M610.7,70.5c-.1-.2,0-.3.2-.3h4.4c.2,0,.3,0,.3.2,3.6,7.6,4.8,10.6,5.4,12.1.6-1.7,1.8-4.5,5.2-12.1.1-.2.1-.2.3-.2h4.1c.3,0,.3.1.3.3l-7.7,15.4a2.4,2.4,0,0,0-.3,1.2v9.3c0,.2,0,.3-.3.3h-3.8a.3.3,0,0,1-.3-.3V87.1a3.2,3.2,0,0,0-.3-1.4Z" transform="translate(-7.4 -46.4)" style="fill:#fff"/><path d="M669.9,89.4l-1.9,7a.5.5,0,0,1-.5.3h-3.6c-.2,0-.3-.1-.2-.4l7-23.8a14.3,14.3,0,0,0,.3-2.1c0-.2,0-.2.2-.2h5.2c.2,0,.2,0,.2.2l8,26c0,.2,0,.3-.2.3h-4.1c-.2,0-.4-.1-.4-.3l-2-7Zm6.9-4.1c-.7-2.8-2.3-8.3-2.9-11.2h-.1c-.6,2.8-1.8,7.4-2.8,11.2Z" transform="translate(-7.4 -46.4)" style="fill:#fff"/><path d="M700.4,96.7c-.3,0-.4-.1-.4-.4V70.5a.3.3,0,0,1,.3-.3h3.9c.2,0,.3,0,.3.2V92.6h10.2a.3.3,0,0,1,.3.3l-.6,3.5c-.1.2-.2.3-.4.3Z" transform="translate(-7.4 -46.4)" style="fill:#fff"/><path d="M734,87.4c0,3.7,1.7,5.6,4.8,5.6s4.6-1.4,4.6-5.7V70.5a.3.3,0,0,1,.3-.3h3.9c.2,0,.3,0,.3.2V87.6c0,7-4.3,9.5-9.2,9.5s-9.2-2.8-9.2-9.2V70.5a.3.3,0,0,1,.3-.3h4c.2,0,.2,0,.2.2Z" transform="translate(-7.4 -46.4)" style="fill:#fff"/><path d="M766.4,70.2h5.8c.2,0,.3,0,.3.2,1.1,3.8,4,15.5,4.7,19.6h.1c.7-3.7,4.2-15.5,5.3-19.6,0-.2.1-.2.3-.2h5.6c.2,0,.2,0,.3.2l1,26a.3.3,0,0,1-.3.3h-4a.3.3,0,0,1-.3-.3c-.1-8.8-.1-20.3-.1-22.5H785c-.7,3.5-4.3,16.6-5.8,22.5-.1.2-.2.3-.4.3h-3.6c-.2,0-.3-.1-.4-.3-1.5-6.1-4.3-17.9-5.2-22.5h-.1c0,3.3-.3,13.6-.6,22.5a.3.3,0,0,1-.3.3H765c-.3,0-.4-.1-.4-.3l1.5-26C766.2,70.2,766.2,70.2,766.4,70.2Z" transform="translate(-7.4 -46.4)" style="fill:#fff"/><path d="M807.6,96.7a.3.3,0,0,1-.3-.3v-26c0-.2.1-.2.3-.2h5c.3,0,.4,0,.5.2,2.4,5.1,7.8,17,8.9,19.7h0c-.1-1.2-.2-3.3-.2-6.6V70.4c0-.1.1-.2.3-.2h3.6c.2,0,.3,0,.3.3V96.3c0,.3-.1.4-.4.4h-4.5c-.3,0-.5-.1-.5-.3-1.9-4.4-8-17.1-9.3-21h0c.1,1.9.2,4.3.2,7.6V96.4a.3.3,0,0,1-.3.3Z" transform="translate(-7.4 -46.4)" style="fill:#fff"/><path d="M848.4,96.4c0,.2,0,.3-.2.3h-3.9a.3.3,0,0,1-.3-.3V70.5c0-.3.1-.3.3-.3h3.9c.2,0,.2,0,.2.2Z" transform="translate(-7.4 -46.4)" style="fill:#fff"/><path d="M362.8,124.5l-3.5,9.8-.3.2h-1.6c-.1,0-.2-.1-.1-.3l9.4-25.7a2,2,0,0,0,.2-1.1.2.2,0,0,1,.2-.2h2.4c.1,0,.2,0,.2.2l9.8,26.8c0,.2,0,.3-.2.3h-1.6c-.2,0-.2-.1-.3-.2l-3.6-9.8Zm10.5-1.8c-1-2.7-4.2-11.3-4.9-14h-.1c-.7,2.6-3,8.7-4.9,14Z" transform="translate(-7.4 -46.4)" style="fill:#f7f7f7"/><path d="M395.2,133.2c-.2-.1-.2-.2-.2-.3v-1.8c0-.1.1-.2.2-.1a11.9,11.9,0,0,0,6.8,2c4.5,0,6.6-2.2,6.6-5.3s-1.2-4.1-5.5-6.1l-1.7-.7c-5-2.2-6.1-4.8-6.1-7.2,0-4.2,3.3-6.9,8.1-6.9,2.7,0,4.8.4,5.9,1.1a.5.5,0,0,1,.2.4v1.5c0,.2-.1.3-.3.2s-3.6-1.4-5.8-1.4c-5,0-6.2,2.9-6.2,4.9s1.2,4,5.3,5.7l1.8.8c4.8,2.2,6.3,4.6,6.3,7.5s-2.9,7.4-8.7,7.4A12.1,12.1,0,0,1,395.2,133.2Z" transform="translate(-7.4 -46.4)" style="fill:#f7f7f7"/><path d="M427.1,133.2a.4.4,0,0,1-.1-.3v-1.8c0-.1.1-.2.2-.1a11.9,11.9,0,0,0,6.8,2c4.5,0,6.6-2.2,6.6-5.3s-1.2-4.1-5.5-6.1l-1.7-.7c-5.1-2.2-6.1-4.8-6.1-7.2,0-4.2,3.2-6.9,8.1-6.9,2.7,0,4.8.4,5.9,1.1a.5.5,0,0,1,.2.4v1.5c0,.2-.2.3-.3.2s-3.6-1.4-5.9-1.4c-5,0-6.1,2.9-6.1,4.9s1.2,4,5.2,5.7l1.9.8c4.8,2.2,6.3,4.6,6.3,7.5s-2.9,7.4-8.7,7.4A12.4,12.4,0,0,1,427.1,133.2Z" transform="translate(-7.4 -46.4)" style="fill:#f7f7f7"/><path d="M482.9,120.7c0,9.1-5.2,14.2-11.9,14.2s-12.2-6-12.2-14.1,5.3-14,12.1-14S482.9,112.8,482.9,120.7ZM471,133c6.3,0,9.9-4.9,9.9-12.3s-4.1-12.1-10.1-12.1-10,4.2-10,12.1S464.3,133,471,133Z" transform="translate(-7.4 -46.4)" style="fill:#f7f7f7"/><path d="M518.7,133.8l-.2.3a13.4,13.4,0,0,1-5.4.8c-6.1,0-13.7-3.6-13.7-14.2,0-8.2,5.7-13.9,14.2-13.9,2.8,0,4.4.3,5.1.7s.2.1.2.3v1.6c0,.2-.1.2-.2.1a12.6,12.6,0,0,0-5.3-.9c-7,0-12,4.7-12,12,0,10,7.6,12.4,11.9,12.4a11.9,11.9,0,0,0,5.2-.8c.1,0,.2,0,.2.2Z" transform="translate(-7.4 -46.4)" style="fill:#f7f7f7"/><path d="M538,134.2c0,.2-.1.3-.2.3h-1.6c-.1,0-.2-.1-.2-.3V107.4c0-.1,0-.2.2-.2h1.6c.1,0,.2,0,.2.2Z" transform="translate(-7.4 -46.4)" style="fill:#f7f7f7"/><path d="M560.2,124.5l-3.5,9.8-.3.2h-1.5c-.2,0-.2-.1-.2-.3l9.4-25.7a2,2,0,0,0,.2-1.1.2.2,0,0,1,.2-.2h2.4c.1,0,.2,0,.2.2l9.8,26.8c.1.2,0,.3-.1.3h-1.7c-.2,0-.2-.1-.3-.2l-3.5-9.8Zm10.5-1.8c-1-2.7-4.2-11.3-4.9-14h-.1c-.7,2.6-3,8.7-4.9,14Z" transform="translate(-7.4 -46.4)" style="fill:#f7f7f7"/><path d="M595.9,109h-9.2c-.1,0-.2,0-.2-.2l.3-1.4c.1-.1.1-.2.3-.2h19.7c.2,0,.3,0,.3.2l.2,1.4c0,.2,0,.2-.2.2h-9.2v25.2c0,.2-.1.3-.2.3h-1.5a.3.3,0,0,1-.3-.3Z" transform="translate(-7.4 -46.4)" style="fill:#f7f7f7"/><path d="M625.1,134.2c0,.2,0,.3-.2.3h-1.5c-.2,0-.2-.1-.2-.3V107.4c0-.1,0-.2.2-.2h1.5c.2,0,.2,0,.2.2Z" transform="translate(-7.4 -46.4)" style="fill:#f7f7f7"/><path d="M667,120.7c.1,9.1-5.1,14.2-11.9,14.2s-12.1-6-12.1-14.1,5.2-14,12-14S667,112.8,667,120.7ZM655.1,133c6.3,0,9.9-4.9,9.9-12.3s-4-12.1-10.1-12.1-9.9,4.2-9.9,12.1S648.5,133,655.1,133Z" transform="translate(-7.4 -46.4)" style="fill:#f7f7f7"/><path d="M685.1,134.5c-.1,0-.2-.1-.2-.3V107.4c0-.1,0-.2.2-.2h2.4c.1,0,.2,0,.2.2,4.2,6.6,13.5,21.6,15.4,24.9h0c-.1-1-.1-2.8-.1-6V107.4a.2.2,0,0,1,.2-.2h1.5c.2,0,.2.1.2.2v26.8c0,.2,0,.3-.2.3h-2.3c-.1,0-.2,0-.3-.2-1.6-2.8-14.4-23.2-15.5-25.4h0c.1,1.1.2,3.4.2,6.8v18.5c0,.2-.1.3-.2.3Z" transform="translate(-7.4 -46.4)" style="fill:#f7f7f7"/><line x1="166.6" y1="0.1" x2="166.6" y2="123.1" style="fill:none;stroke:#000;stroke-miterlimit:10;stroke-width:0.988023520059357px"/></svg>