<svg xmlns="http://www.w3.org/2000/svg" viewBox="0 0 124.3 65"><path d="M119.5,48.7v1.6h-2.9c-.5.4,0,1-.3,1.5h-1.4V48.9a3.8,3.8,0,0,0-1.5-.1c-.3.4,0,1-.2,1.5h-1.4v3.1h4.4c.3.5.1.9.2,1.3s-.1.2-.2.2h-9c-.3-.4-.1-.9-.1-1.4H110c.3-.6.1-1.1.2-1.5s-1,0-1.5-.3V48.9c.4-.4.9.1,1.4-.3V45.8c-.4-.3-.8-.1-1.3-.1s0,.9-.3,1.4-.9,0-1.4.1V44c-.6.2-1.1-.1-1.5.2v1.4a2.9,2.9,0,0,1-1.6-.1V42.6h-1.5V41.1c.6-.3,1.1.1,1.6-.3s.1-.9-.2-1.3-.9.2-1.4-.2V37a16.2,16.2,0,0,1,.1-2.2h1.5v3.1h3.1a3.8,3.8,0,0,0,0,1.5c.3.4,1.1-.2,1.5.2V41h-1.5a6.6,6.6,0,0,0,.1,1.4h1.4V40.9h4.7V37.8c.6-.1,1,.1,1.5-.1s-.2-1.1.2-1.4h1.4v1.5H118c.1,1,.1,2,.1,3.2s1,.1,1.4-.2V37.9H118V36.4h-1.5V33.3c-.6,0-1.1-.2-1.6.1a2.2,2.2,0,0,1-.2,1.4c-.4-.2-.9.3-1.4-.3V31.8c-.5-.3-1.1.1-1.5-.3V30.1h2.9c.5.5,0,1,.3,1.5h3v3.2h1.4c.4.4,0,.9.3,1.4s.8.1,1.4.1V33.4c-.4-.4-1,0-1.5-.3V30.4c-.5-.5-1-.1-1.5-.3V28.7H121c.4.3,0,.9.2,1.4h2.9v3.1h-1.3v4.3c-.5.6-1.1.1-1.6.4v4.5h2.9a2.3,2.3,0,0,1,.1,1.4c-.4.4-1,0-1.5.4V47c-.6.2-1.1,0-1.6.1v-3c-.6-.1-1.1-.2-1.5.1v2.9c-.5.1-1-.1-1.6.1V48c0,.2,0,.5.2.6Zm-3.1-6.1h-2.3a8.8,8.8,0,0,0-2.3,0v4.6h4.6Zm-1.5-1.5c.6-.2,1,.1,1.4-.2a1.6,1.6,0,0,0-.1-1.5c-.5.1-.9-.1-1.3.2Z" style="fill:#0086af"/><path d="M99.3,28.6v1.5h6.2v4.7H104V31.6c-.6.2-1.1-.1-1.5.2s.2,1-.3,1.4h-1.4V31.8a1.7,1.7,0,0,0-1.4,0v1.4h1.4c0,.6.2,1.1,0,1.6H97.7V31.7h-3a2.6,2.6,0,0,0,.1,1.5c.2.4.9-.1,1.4.2s.2.9-.2,1.5H93.2v1.5h3a2.3,2.3,0,0,1-.1,1.4c-.2.4-1-.1-1.4.3v1.3c-.5.1-1.1-.1-1.5.2a2.2,2.2,0,0,0,.1,1.4h1.4a8.6,8.6,0,0,1-.1,1.6H93c.3.5-.1,1,.3,1.4h1.3V42.6h1.6V41h1.4c.3-.6-.1-1.1.4-1.6s.8-.1,1.2.2-.1,1,.3,1.4.9-.1,1.3.1-.2,1,.3,1.5h1.3v1.3c-.5.4-1.1,0-1.5.4s-.1.8-.1,1.4H99.3V44.3H97.8v1.4h1.5a2.9,2.9,0,0,1-.1,1.6H97.9c-.3.5.1,1.1-.4,1.6H94.6c.2.5-.2,1,.3,1.5h1.3a6.6,6.6,0,0,0,.1,1.4h1.5v3.1H96.3c-.3-.4.1-1-.3-1.5H93.1V52c-.4-.4-1,0-1.5-.3V48.9c.4-.4.9,0,1.4-.2s0-1,.1-1.5h1.6c-.2-.6.2-1-.2-1.5H93.2a7.6,7.6,0,0,1-.1,1.5H91.6c-.1-1,0-2,0-3v-3c0-1-1.1-.1-1.6-.2V39.5c.5-.1,1,.1,1.5-.1s.2-1-.1-1.5H90V36.4h1.6V33.2c.5,0,1,.2,1.5-.1s.2-1-.2-1.4H91.6V30.1H86.9v-3h1.6c0,.4-.2,1,.1,1.5s2,.1,3-.1v-3h3.1a8.6,8.6,0,0,1-.1,1.6H93.2v3h1.4v-3h3.2a7.6,7.6,0,0,1-.1,1.5H96.1c.3.6-.1,1.1.2,1.5h1.4V28.6Z" style="fill:#0086af"/><path d="M110.2,30.1V28.7h-3.1V25.8c-.5-.6-1-.1-1.5-.4v3a2.2,2.2,0,0,1-1.6.1V24.1c.4-.4,1,0,1.5-.3v-3c.5,0,1,.2,1.5-.1a1.4,1.4,0,0,0-.1-1.4h-1.4V17.7h3.1V14.6h1.6V16c.4.4.9,0,1.4.3s0,.8.2,1.2-1.1.1-1.5.3-.1,1-.2,1.5h-1.4a3.8,3.8,0,0,0,0,1.5h1.4V19.3h1.5a9.4,9.4,0,0,1,.1,2.9c-.4.3-.9.1-1.3.2s-.2.9-.2,1.5h2.9c.4-.4,0-1,.3-1.4s.8-.1,1.2-.1,0,1,.4,1.5h2.9v2.9c-.4.4-.9.2-1.4.2s-.1-.9-.1-1.4-1-.1-1.5-.1v3h-3c-.3.6-.1,1.1-.2,1.6Zm3-4.5h-4.5a2.2,2.2,0,0,0,.1,1.4h4.4Zm-4.6-3.2a3.8,3.8,0,0,0-1.5.1c0,.5-.2,1,.1,1.4s.9.2,1.4-.1Z" style="fill:#0086af"/><path d="M79.4,10H89.9V20.7H79.4A63.7,63.7,0,0,1,79.4,10Zm9,9.3V11.5H80.8v7.7Z" style="fill:#0086af"/><path d="M113.3,20.8V10h10.8V20.7Zm9.2-1.5V11.5h-7.6v7.6Z" style="fill:#0086af"/><path d="M90,44.2V54.9H79.2V44.2Zm-1.6,1.5H80.7c0,2.6-.1,5.2.1,7.6h7.6Z" style="fill:#0086af"/><path d="M102.4,51.8h-1.3c-.5-.5-.1-1-.3-1.5s-1,0-1.5-.1V48.8c.6-.3,1.2.1,1.6-.4V47.1h6.2V50c-.4.4-1,0-1.5.3V53c-.5.5-1.1.1-1.5.4s0,.8-.2,1.3-.9.1-1.5.1V51.7h1.5a1.4,1.4,0,0,0-.1-1.4h-1.3A3.8,3.8,0,0,1,102.4,51.8Z" style="fill:#0086af"/><path d="M105.5,17.7h-2.9c-.4-.4,0-.9-.3-1.5H99.6c-.5-.5-.1-1-.4-1.5H97.9c-.3-.4,0-.9-.2-1.3s1,0,1.6-.3V10.3a2,2,0,0,1,1.5-.1V13c.5.4,1.1,0,1.6.4v1.3h4.7c-.1.5.1,1.1-.1,1.5s-1.1-.2-1.5.3Z" style="fill:#0086af"/><path d="M82.3,41V38.1c.4-.4.9-.2,1.4-.2s0,.9.1,1.4.9.1,1.5.1V36.6c.5-.5,1-.1,1.5-.3s0-1,.1-1.5H90v1.6a3.8,3.8,0,0,0-1.5,0c0,.6-.2,1.1.1,1.5H90v1.5H87.1c-.4.4,0,1-.3,1.5s-.8,0-1.4.2.1.9-.1,1.3-.9.1-1.3.2,0-1-.3-1.5S82.8,41.1,82.3,41Z" style="fill:#0086af"/><path d="M105.5,34.8h1.4c.4-1,0-2,.2-3s.9,0,1.3-.1,0-1,.3-1.5,1,0,1.5-.1v3c-.6.3-1.2-.1-1.6.4s-.2.8.2,1.3h2.8v3.1a3,3,0,0,1-1.3-.1c-.4-.2.1-1-.3-1.4h-1.3c-.3.5.2,1.1-.3,1.5h-1.3c-.1-.5.1-1-.1-1.5s-1.1.2-1.5-.2Z" style="fill:#0086af"/><path d="M107.1,13.1h-1.4c-.4-.4,0-1-.3-1.5s-.8,0-1.3-.1-.1-.9-.1-1.5h7.7v4.5c-.5.3-1,.1-1.5.1V11.5h-3.1Z" style="fill:#0086af"/><path d="M96.2,20.8h1.4c.4-.4,0-.9.2-1.4s.9-.1,1.3-.1.2.3.2.5v7.3H97.8c-.1-.6.1-1.1-.1-1.5s-1.1.2-1.5-.3Z" style="fill:#0086af"/><path d="M80.7,30.1V28.8c-.4-.5-.9,0-1.5-.3a3.3,3.3,0,0,1,0-1.4h4.6v1.5c-.5.1-1-.1-1.5.1s.2,1-.2,1.4Z" style="fill:#0086af"/><path d="M104,20.8v1.4c-.5.4-1,0-1.5.3v1.3a2.9,2.9,0,0,1-1.6.1V19.4a1.9,1.9,0,0,1,1.5,0v1.4Z" style="fill:#0086af"/><path d="M86.9,23.9V22.4h4.7v3.1H90V23.9Z" style="fill:#0086af"/><path d="M94.7,14.6h1.5v3c-.4.4-1,0-1.5.3v1.4H93.1V16.2h1.6Z" style="fill:#0086af"/><path d="M91.6,22.4V19.3h1.5v1.5h1.6v3.1a2.6,2.6,0,0,1-1.5-.1c-.2-.5.2-1-.3-1.4Z" style="fill:#0086af"/><path d="M122.6,25.4V24.1c-.4-.4-1,0-1.5-.2a3.8,3.8,0,0,1,0-1.5H124v3Z" style="fill:#0086af"/><path d="M86.9,31.7H83.8V28.6c.5.1,1-.1,1.5.1s-.2,1,.3,1.4h1.3Z" style="fill:#0086af"/><path d="M83.8,25.5H82.3v-3h3.1v1.4H83.8Z" style="fill:#0086af"/><path d="M93.2,13H91.6V10.1h3c.2.4,0,.8.1,1.3s-1,0-1.5.2Z" style="fill:#0086af"/><ellipse cx="89.2" cy="32.5" rx="3.3" ry="1.1" style="fill:#0086af"/><path d="M99.3,27.1h2.9c.4.4.2.9.2,1.5H99.3Z" style="fill:#0086af"/><path d="M83.8,31.7v1.5c-1,.2-2,0-3,.1s0-1.1-.1-1.6Z" style="fill:#0086af"/><path d="M79.2,36.3V34.9h2.9c.3.3.1.8.1,1.4Z" style="fill:#0086af"/><path d="M122.6,51.8v-3H124v3Z" style="fill:#0086af"/><path d="M122.6,27.1h-2.9c-.4-.5-.2-1-.2-1.6h3.1Z" style="fill:#0086af"/><path d="M122.6,51.9v2.9c-.5.3-1,.1-1.6.1v-3Z" style="fill:#0086af"/><path d="M93.1,14.6V13.1h1.6v1.5Z" style="fill:#0086af"/><path d="M93.1,16.2H91.8c-.5-.4-.1-1-.3-1.4s1.1-.1,1.6-.2Z" style="fill:#0086af"/><path d="M86.9,34.8H85.5c-.3-.5-.1-.9-.1-1.4s1-.1,1.5-.2Z" style="fill:#0086af"/><path d="M94.7,19.3h1.5v1.5H94.7Z" style="fill:#0086af"/><path d="M105.5,20.8H104V19.3h1.5Z" style="fill:#0086af"/><path d="M80.7,37.8v1.5c-.5.3-.9,0-1.3.2a1.5,1.5,0,0,1-.2-1.3C79.3,37.9,80.1,38,80.7,37.8Z" style="fill:#0086af"/><path d="M80.7,22.4v1.4c-.5.3-.9.1-1.4.1s-.1-.9-.1-1.4A3.8,3.8,0,0,1,80.7,22.4Z" style="fill:#0086af"/><path d="M82.2,41.1v1.4H80.8a3.3,3.3,0,0,1,0-1.4Z" style="fill:#0086af"/><path d="M118,23.9V22.4h1.4a1.9,1.9,0,0,1,0,1.5Z" style="fill:#0086af"/><path d="M85.4,23.9h1.5v1.6H85.4Z" style="fill:#0086af"/><path d="M83.8,27.1V25.5h1.6v1.6Z" style="fill:#0086af"/><path d="M122.6,27.1h1.5v1.4a3.8,3.8,0,0,1-1.5,0Z" style="fill:#0086af"/><path d="M90,41.1v1.4H88.6c-.4-.4,0-.9-.2-1.4Z" style="fill:#0086af"/><path d="M121,47.2v1.5h-1.5V47.2Z" style="fill:#0086af"/><path d="M107.1,14.6V13.1h1.5v1.5Z" style="fill:#0086af"/><circle cx="98.5" cy="51.1" r="1.1" style="fill:#0086af"/><path d="M119.5,51.9V50.3H121v1.6Z" style="fill:#0086af"/><path d="M119.4,51.9v1.5H118a3.8,3.8,0,0,1,0-1.5Z" style="fill:#0086af"/><path d="M80.7,31.7H79.4c-.5-.4-.1-1-.3-1.4s1.1-.1,1.6-.2Z" style="fill:#0086af"/><path d="M97.7,9.9v1.5c-.4.3-.8.1-1.3.1a1,1,0,0,1-.1-1.2C96.4,10,97.1,10.1,97.7,9.9Z" style="fill:#0086af"/><path d="M93.1,53.5v1.4H91.7c-.3-.4,0-.9-.2-1.4Z" style="fill:#0086af"/><path d="M101,54.9H99.5c-.3-.4-.1-.9-.2-1.3a1.7,1.7,0,0,1,1.4-.1C101,53.9,100.8,54.3,101,54.9Z" style="fill:#0086af"/><path d="M100.9,37.9H99.5c-.3-.5-.1-.9-.2-1.4s1-.1,1.4-.1S100.8,37.3,100.9,37.9Z" style="fill:#0086af"/><path d="M96.2,41H94.7V39.4h1.5Z" style="fill:#0086af"/><path d="M113.1,44.1h1.6a2.3,2.3,0,0,1,.1,1.4c-.4.3-.9.1-1.4.1S113.4,44.7,113.1,44.1Z" style="fill:#0086af"/><circle cx="89.2" cy="26.3" r="1.1" style="fill:#0086af"/><path d="M86.9,13.2v4.5H82.3V13.2Z" style="fill:#0086af"/><path d="M121,17.7h-4.6V13.2H121Z" style="fill:#0086af"/><path d="M86.9,47.3v4.5H82.3V47.3Z" style="fill:#0086af"/><path d="M45.1,24.2c1.6.8,2.4,1.9,2.3,3.5A3.8,3.8,0,0,1,44.3,31l1.2.6a3.3,3.3,0,0,1,1.1,3.6,3.1,3.1,0,0,1-2.9,2.3c-.6.1-.6,0-.6.7v6.6a5,5,0,0,1-3.9,4.9l-.8.2H36.7a.7.7,0,0,0-.8.4h0A13.8,13.8,0,0,1,32,54.4a30.6,30.6,0,0,1-5.7,2.9,13.4,13.4,0,0,0-2.4,1.2,1,1,0,0,1-1.2-.3,1.1,1.1,0,0,1,0-.8c.1-.3.3-.3.5-.5a22,22,0,0,1,3.1-1.5l3.9-1.8a12,12,0,0,0,3.7-3.4c.1,0,.2-.2.2-.3H18.5a5.4,5.4,0,0,1-5.1-4.3V15.3a3.2,3.2,0,0,0-.3-1.4,1.5,1.5,0,0,0-1.5-.9,1.8,1.8,0,0,0-1.3,1.2c-.1.4-.1.9-.2,1.3a29,29,0,0,1-.9,5.9c-.1.3-.3.6-.2.9s-.1.3-.2.4l-.2.2c-.8,2.6-2,5.1-2.8,7.6a15.5,15.5,0,0,0-.5,2.3,7.2,7.2,0,0,0,.6,2.9,49.4,49.4,0,0,1,1.5,5.5,14.3,14.3,0,0,1,.3,2.9c0,.2.1.3.3.4l1.5,1.7,3.6,3.9,7.6,8.2,2.2,2.4c.7.6.6,1.1,0,1.6l-2.6,2.5a1,1,0,0,1-1.3,0h0a.9.9,0,0,1,.1-1.3h0L21,61.8c.2-.2.2-.4,0-.7l-4.6-4.9-5.2-5.7-3-3.2L7,46q-.3-.4-.6,0l-5,4.4a.9.9,0,0,1-1.2-.1A.9.9,0,0,1,.3,49h0l3.3-2.9,2.2-1.9a.7.7,0,0,0,.2-.6,15.9,15.9,0,0,0-.7-3.8c-.4-1.6-.9-3.1-1.4-4.6A8.6,8.6,0,0,1,4,30.7a38.4,38.4,0,0,1,1.9-5.1,40.6,40.6,0,0,0,1.9-5.9,16.1,16.1,0,0,0,.7-4.9,3.7,3.7,0,0,1,1.4-2.9,3.1,3.1,0,0,1,3.2-.3c.3.2.3.2.3-.3V5a5.1,5.1,0,0,1,4.9-5H38a5.1,5.1,0,0,1,5.1,4.5V6.6c0,.3,0,.4.3.2a3.6,3.6,0,0,1,4.8,1.3A3.5,3.5,0,0,1,47,12.8l-3.6,2.3a.7.7,0,0,0-.3.6v1.2c0,.4,0,.4.4.3a3.3,3.3,0,0,1,4.4,1.6h0c.1,0,.1,0,.1.1h0a3.6,3.6,0,0,1-1.6,4.5Zm-4.8.9h-.2a3.4,3.4,0,0,1-.9-4.7h0l.3-.5,1.2-.8a1.1,1.1,0,0,0,.7-1.2V6.9c0-.5,0-.5-.5-.5H15.5c-.4,0-.4,0-.4.5V38.8c0,.5,0,.5.5.5H41.1a.3.3,0,0,0,.3-.3h0V38a.6.6,0,0,0-.4-.7,3,3,0,0,1-1.8-1.5q-.3-.4-.6-.3H35.9c-.4,0-.7-.4-.8-.8a1,1,0,0,1,.7-1h2.5c.3,0,.5,0,.6-.3a6.1,6.1,0,0,1,.5-1.2c.3-.3.3-.3-.2-.6A3.5,3.5,0,0,1,37.7,27h0a2.4,2.4,0,0,1,.6-.8A3.7,3.7,0,0,1,40.3,25.1ZM28.2,41H15.5c-.3,0-.4.1-.4.5v3a4.7,4.7,0,0,0,.3,1.7,3.3,3.3,0,0,0,3.1,1.9H38a3.4,3.4,0,0,0,3.4-3.4c-.1-1.1,0-2.2-.1-3.2s0-.6-.5-.6Zm0-36.4H41c.4,0,.4,0,.3-.4A3.4,3.4,0,0,0,38,1.6H18.5a3.4,3.4,0,0,0-3.3,2.5c-.1.5-.1.5.5.5ZM46.6,20.5a1.8,1.8,0,0,0-1.7-1.9h0l-.9.2-3,1.8a2.2,2.2,0,0,0-.7,1.7,1.8,1.8,0,0,0,1.8,1.6h.1l.7-.3,3-1.9a1.5,1.5,0,0,0,.7-1.2Zm-2.7,5.3h-.3a23.5,23.5,0,0,0-3.5,1.1,1.8,1.8,0,0,0-.7,2.3,1.8,1.8,0,0,0,1.6.9l3.6-1a1.9,1.9,0,0,0,1.2-2.2,1.7,1.7,0,0,0-1.9-1.2Zm-.8-14.7v1.8c0,.3,0,.3.3.2l2.7-1.7A1.8,1.8,0,0,0,46.7,9h-.1a1.8,1.8,0,0,0-2.4-.6H44l-.6.4c-.3.1-.3.3-.3.6Zm-.4,24.7h.8a1.6,1.6,0,1,0,0-3.2H41.9A1.5,1.5,0,0,0,40.4,34a2,2,0,0,0,1.2,1.8Z" style="fill:#0086af"/><path d="M6.2,50.1a1.5,1.5,0,0,1,1.4,1.5,1.5,1.5,0,0,1-1.4,1.3,1.3,1.3,0,0,1-1.4-1.2v-.2a1.4,1.4,0,0,1,1.4-1.4Z" style="fill:#0086af"/><path d="M34.4,21.3H32.2c-.3,0-.4-.1-.4-.4V16.5c-.1-.3.1-.5.4-.5h4.6c.2,0,.2.2.2.3v4.4c0,.5,0,.5-.5.5Zm0-3.7h-.8a.3.3,0,0,0-.3.3h0v1.6c0,.1.1.2.3.2h1.6a.2.2,0,0,0,.2-.2V17.9a.3.3,0,0,0-.3-.3h-.7Z" style="fill:#0086af"/><path d="M25.6,18.7v2.2c0,.3-.1.4-.4.4H20.8c-.3,0-.4-.1-.4-.4V16.4c0-.4.2-.4.4-.4h4.4c.3,0,.4.3.4.5ZM23,17.6c-1,0-1,0-1,1.1s0,1,1,1,1,0,1-1.1S24,17.6,23,17.6Z" style="fill:#0086af"/><path d="M23,26.2h2.1c.3,0,.5,0,.5.4V31c0,.3-.2.3-.5.3H20.8c-.3,0-.4,0-.4-.3V26.5c0-.3.1-.3.4-.3Zm-1,2.6v.6c-.1.3.1.4.4.4H23c1.2,0,1,.1,1-1s0-1.1-1-1.1S22,27.7,22,28.8Z" style="fill:#0086af"/><path d="M30.4,18.1v1.8c0,.3-.1.4-.4.3H28.9c-.3,0-.4.2-.4.5v3.2c0,.5,0,.5-.5.5H25.1c-.3,0-.4,0-.4-.4a1.1,1.1,0,0,0,0-.8c0-.3.1-.3.4-.3h1.5c.3,0,.3-.1.3-.4V19.2c0-.5,0-.5.5-.5h1.1a.3.3,0,0,0,.3-.3h0v-2c0-.3.1-.4.4-.4H30c.3,0,.4.1.4.3Z" style="fill:#0086af"/><path d="M18.9,35.5H17.3a.9.9,0,0,1-.9-.9h0V31.2a.8.8,0,0,1,.7-.8h.2a.8.8,0,0,1,.8.8h0v1.9c0,.5,0,.5.5.5h1.9a1,1,0,0,1,1,.8c0,.4-.3.9-.7.9H18.9Z" style="fill:#0086af"/><path d="M16.4,14.5V13a1,1,0,0,1,.7-.9h3.3c.8,0,1.1.4,1,.9a.8.8,0,0,1-.8.7H18.5c-.3,0-.4.2-.4.5v1.9c0,.6-.3.9-.8.9a.8.8,0,0,1-.9-.7h0V14.6Z" style="fill:#0086af"/><path d="M39.8,14.5v1.7a.7.7,0,0,1-.9.7h0a.8.8,0,0,1-.8-.7v-2c0-.3-.1-.5-.4-.5H35.9c-.4.1-.8-.3-.9-.7h0a1,1,0,0,1,.7-.9h3.2a.7.7,0,0,1,.9.7v1.7Z" style="fill:#0086af"/><path d="M27.2,29.9V28.5c0-.3.1-.4.4-.4h2c.3,0,.4-.1.4-.4v-.9l.2-.2h1.2l.2.2v2.6c0,.2-.2.3-.4.3h-2c-.3-.1-.5.1-.5.4s.1.8.1,1.2-.1.4-.4.4h-.8c-.3,0-.4-.1-.4-.4Z" style="fill:#0086af"/><path d="M34.1,25.9H32.7a.4.4,0,0,1-.4-.4v-1c0-.2,0-.4-.3-.4H30.2c-.3,0-.3,0-.3-.3v-.9c0-.2,0-.3.3-.3h3.4a.3.3,0,0,1,.3.3h0v1c-.1.3.1.4.4.4h1.1c.2,0,.4.1.4.3s.2,1.2-1.2,1.3Z" style="fill:#0086af"/><path d="M35.1,31.4H33.7c-.3,0-.4-.1-.4-.3v-1a.3.3,0,0,1,.3-.3H35c.3,0,.3,0,.3-.3V28.4a.4.4,0,0,1,.4-.4h.9a.3.3,0,0,1,.3.3h0v2.8a.3.3,0,0,1-.3.3H35.1Z" style="fill:#0086af"/><path d="M21.2,24.4c-1.1,0-.9.1-.9-.9v-.2c0-.5,0-.5.4-.5h.9c.3,0,.5.1.5.4a1.1,1.1,0,0,0,0,.8c0,.3-.2.4-.5.4Z" style="fill:#0086af"/><path d="M28.7,42.4a1.7,1.7,0,0,1,1.8,1.7v.2a1.8,1.8,0,0,1-3.6,0h0a1.8,1.8,0,0,1,1.6-1.8h.2Z" style="fill:#0086af"/><path d="M68.2,30.8l-1.9-1.6-.5-.5a1.7,1.7,0,0,1-.3-2.4h0a1.7,1.7,0,0,1,2.4-.2h0l2.5,2.2L74.7,32c.4.4.4.6,0,1L68,38.8a1.6,1.6,0,0,1-2.3.3,1.6,1.6,0,0,1-.4-2.3c.2-.2.3-.4.5-.5l2.2-2H51.5a1.7,1.7,0,0,1-1.6-1.7,1.7,1.7,0,0,1,1.7-1.7H68.2Z" style="fill:#0086af"/></svg>