<svg xmlns="http://www.w3.org/2000/svg" viewBox="0 0 680.9 191.8"><path d="M676.1,185.3a2.1,2.1,0,0,1-1.9,2.4,33.6,33.6,0,0,1-9.5.2c-2.5-.5-3.5-2.3-3.7-4.7-.3-4.1-.6-8.2-.8-12.4h.2v-2c0-11,0-11,10.8-10.5,2.5.1,5,.9,4.9,3.7s-2.9,1.9-4.7,2.1-5.7-1.3-5.4,3.4c.2,2.3.8,3.4,3.3,3.1a16.3,16.3,0,0,1,4.4.3c1.6.1,1.7,1.3,1.7,2.6a1.8,1.8,0,0,1-1.9,1.8c-1.5,0-3-.1-4.5,0s-3.2,1.5-3.2,3.6.5,4,3.2,4.1h4.9C675.3,183.1,676,183.8,676.1,185.3Z" style="fill:#053762"/><path d="M647.1,174.7a7,7,0,0,0,3.3-6.4c.1-3.6-1.2-6.5-4.5-8.1s-9-2.2-13.6-.9c-.9.2-.9,1.3-.9,2.1v23.5c0,1.8.8,2.9,2.7,2.8s2.6-1.1,2.7-2.9-.6-3.6.6-5.2c8.6,8,8.6,8,12.1,7.2-.3-2.1-1.8-3.6-3.1-5S643.4,176.8,647.1,174.7Zm-6.9-1.5c-3.1.4-3.6-1.6-3.5-4s-.9-5.4,3.3-5.1,5.4.6,5.4,4.2S643.1,172.8,640.2,173.2Z" style="fill:#053762"/><path d="M622.1,161.2c0,1.4-.3,2.8-2,2.8-3.9,0-3.6,2.4-3.5,5.1.2,4.8.2,9.6.1,14.4,0,2,.2,4.3-2.8,4.2s-2.5-2.1-2.5-4v-8c0-2.5-.1-5,0-7.5s.1-4.4-3.2-4.2c-1.7.1-2-1.3-2-2.8a2.1,2.1,0,0,1,2.4-2.4c3.7-.1,7.3-.1,11,0A2.2,2.2,0,0,1,622.1,161.2Z" style="fill:#053762"/><path d="M595,187.6c-2.3.5-4.2-.1-5.4-2.3a131.6,131.6,0,0,0-9.1-14.9l-2.1-2.3v16.2c0,1.8,0,3.4-2.5,3.4s-2.7-1.3-2.7-3.2c.1-7.7.1-15.4.1-23-.1-1.7.5-2.5,2.1-2.7s4,.2,5.1,2.2l7.4,13c.8,1.4,1.2,3,3.5,4.4V162.8c0-1.9-.1-3.9,2.5-4s2.9,2.1,2.8,4.2c0,6.8.1,13.6,0,20.5C596.7,185,597.4,187,595,187.6Z" style="fill:#053762"/><path d="M562.3,185.4c-.1,1.5-.8,2.3-2.1,2.3-3.7.1-7.3.1-11,0-2.1-.1-2.1-1.8-2.1-3.3-.1-3.9,0-7.7,0-11.5v-5.5c0-8.7,2.3-10.7,11.2-9,2,.4,4.2,1.1,4.1,3.6s-2.5,2-4.3,2.1h-3c-2.1-.1-3,.9-3,3s.6,3.6,3,3.6h4.5a2.1,2.1,0,0,1,2.4,2.5c-.1,1.5-1,2-2.4,2s-2.6,0-4,0-3.5,1.2-3.5,3.7.6,4,3.2,4h4.5C561.4,183.1,562.3,183.7,562.3,185.4Z" style="fill:#053762"/><path d="M535.3,180.6c-4.1,6.1-9.4,8.2-15.9,6.6s-10.8-7.4-11.1-13.4a14.6,14.6,0,0,1,9.4-13.9c6.6-2.6,12.4-.8,18.1,5.9-3.2,2.1-5.5-.1-8-1.3-4.9-2.3-9.7-1.2-12.5,2.8a10.3,10.3,0,0,0,1.2,13.2c3.3,3.1,7.2,4.1,11.3,1.5C530,180.7,532.3,179.7,535.3,180.6Z" style="fill:#053762"/><path d="M479.3,187.6c-2.6.6-4.4-.3-5.7-2.8-2.6-4.8-5.4-9.6-8.1-14.3a29.4,29.4,0,0,0-2.4-3.4c0,5.9.1,10.3-.1,14.7,0,2.2,1.2,5.7-2.7,5.8s-2.8-3.7-2.8-6.1c-.1-5.9.1-11.9.1-17.9.1-1.9-1-4.2,1.9-4.9s4.4.8,5.7,3l6.9,11.5c.9,1.4,2,2.6,3.4,4.5,1.1-5.2.3-9.8.6-14.3.1-1.9-1-4.9,2.5-4.8s2.4,3,2.5,5.1c0,6.5,0,13-.1,19.4C481,184.8,482,187,479.3,187.6Z" style="fill:#053762"/><path d="M431.8,158.5c-7.6,0-14.7,7.1-14.7,14.7s6.8,14.5,14.8,14.6,15-6.7,15.2-14.3S439.7,158.6,431.8,158.5Zm.3,24.9a9.8,9.8,0,0,1-9.9-9.7c-.1-5.8,4-10.4,9.6-10.4a9.7,9.7,0,0,1,9.9,9.6A10,10,0,0,1,432.1,183.4Z" style="fill:#053762"/><path d="M406.1,184.3c0,1.8-.3,3.4-2.4,3.6s-2.9-1.9-3-3.8V173.2h.1c0-3.7,0-7.3.1-11,0-1.7.2-3.6,2.4-3.6s2.8,1.6,2.8,3.7Z" style="fill:#053762"/><path d="M392.1,161.1c0,1.4-.3,3-2,2.9-3.8-.2-3.7,2.3-3.7,4.9v15.5c0,1.8-.1,3.4-2.5,3.3s-2.5-1.6-2.5-3.5V167.8c0-1.8.2-3.8-2.6-3.7s-2.7-1.5-2.6-3.3,1.9-2,3.3-2.1h10C391.1,158.8,392,159.4,392.1,161.1Z" style="fill:#053762"/><path d="M371,185.3c-3.5-8.2-6.9-16.5-10.7-24.6-1.3-2.9-3.9-2.8-5.2,0-3.6,8-6.8,16.2-10.3,24.3-.9,2.2.2,2.6,2,2.7s3.2-1.2,3.8-3.1,3.4-4.5,6.8-4.6,6.9,1,7.9,5.3c.5,2,1.8,3.1,4.1,2.5S371.7,187,371,185.3Zm-11.6-10.2a2.2,2.2,0,0,1-3.2,0c-2.6-3,.4-5,1.5-7.8C359.2,170,361.7,172.1,359.4,175.1Z" style="fill:#053762"/><path d="M333.8,180.5c-2.3,5.4-7.4,8-13.6,7.1s-12-6.6-12.8-12.9,3.5-12.7,9.5-14.9,12.9-.5,17.9,6.4c-2.9,1.1-5-.2-7-1.2-5.8-2.7-9.8-2.1-13,1.8a10.4,10.4,0,0,0,0,12.9c3.3,4.1,7.2,4.7,12.8,1.8C329.6,180.5,331.6,179.8,333.8,180.5Z" style="fill:#053762"/><path d="M297.1,164.1c0,4.4.1,8.7-.1,13-.2,6.2-4.3,10.7-9.6,10.6s-9.2-4.1-9.6-10.1-.3-10.3-.3-15.5c-.1-1.9.6-3.2,2.8-3.3s2.8,1.2,2.8,3.2v8.5h0v7.9c0,2.6.9,4.6,3.9,4.8s4.7-1.7,4.9-4.4c.3-4.8,0-9.6.2-14.5.1-2.1-1.4-5.7,2.6-5.7S297,162,297.1,164.1Z" style="fill:#053762"/><path d="M262,162.6c-4.5-4-10.2-4.6-15.9-3.7-2,.2-2.1,1.9-2,3.4v10.5h0v11c.1,1.9.5,3.6,2.7,4.3,7.3,2.1,17.8-4,19.7-11.6A13.5,13.5,0,0,0,262,162.6Zm-.9,14.2c-1.5,4.2-5.2,5.8-9.3,6.2-1.8.1-2.8-.9-2.7-2.8v-6.4c0-1.2-.1-2.4,0-3.5s-.8-5,2-6.1,4.9.4,6.9,1.9C261.6,168.9,262.5,172.7,261.1,176.8Z" style="fill:#053762"/><path d="M233,185.5a2,2,0,0,1-2.1,2.2c-3,.2-6,.5-9,.5s-4.7-2.2-4.8-5.2,0-7,0-10.5h.3v-3c0-11.8.8-12.5,12.7-10.8,1.8.3,2.9.8,2.9,2.7s-1.4,2.4-3.3,2.8-6.6-2.3-6.9,2.9,4.3,3.1,6.9,3.6,2.6.6,2.6,2.3-.9,2.3-2.5,2.3h-4c-2.6-.2-3.1,1.6-3.2,3.5s.3,4.1,3,4.2h5C232.2,183.1,233.1,183.8,233,185.5Z" style="fill:#053762"/><path d="M673.9,129.5c-6.9,3.4-7.5,3-7.5-4.5,0-21.8-.1-43.7.1-65.5,0-4-1.3-5.7-5.5-5.4s-9,.1-13.5.2c-45.7.1-62.6,40.8-54.1,73.7,4.3,16.8,15.9,20.4,30.1,10.7,7.5-5.2,13.6-12.1,20.9-18.4a60.8,60.8,0,0,1,.6,6.8,16,16,0,0,0,2.4,9c4.1,6.4,9.9,9.4,15.8,8.1,7.9-1.7,16.8-10.9,17.7-18.3ZM645,101a8.3,8.3,0,0,1-3.8,8.1c-4.6,3.2-9.3,5.9-14.9,6.7s-8.2-.5-10.1-4.6c-7.9-16.8,2.9-44.5,23.1-48,5.1-.9,6.1-.3,5.7,4.9s0,11,.1,16.1A104.9,104.9,0,0,0,645,101Z" style="fill:#053762"/><path d="M569.7,35.1c-4.7,3.9-10.1,7.3-16.3,4.2s-5.7-9.5-6.2-13.9c0-10.2,2.7-14.1,9.8-16s13.5.8,16.6,6.7A15.3,15.3,0,0,1,569.7,35.1Z" style="fill:#053762"/><path d="M585.7,126c-.4,10.8-16.1,21.8-26.1,18.2-4.8-1.8-7.3-5.7-8.3-10.5a59.8,59.8,0,0,1-.9-9.4v-53c0-1.5.6-3.6-1-4.6s-3.5.6-4.9,1.5-5.2,3.5-8.4,5.7C537.7,63.6,552,52.3,561,53.3c4.7.5,8.7,4.2,10.1,9.7a38,38,0,0,1,1,8.9c-.1,17.8-.1,35.6,0,53.5,0,2.4-.8,5.3,2.1,6.6s4.6-1.3,6.6-2.7S583.7,126.5,585.7,126Z" style="fill:#053762"/><path d="M515.2,28.3c.1,32.1,0,64.3.1,96.5,0,4.2,1.2,4.8,5.2,2.8s8.5-6.6,13.7-9.8a12.1,12.1,0,0,1-.2,2.5c-4.9,9.2-11.3,16.9-20.4,22.1s-19.1,1.6-20.4-10.3c-.7-7.3-.6-14.6-.6-21.9-.2-23.7-.7-47.4.2-71a39.1,39.1,0,0,1,7.8-22.3c4.8-6.4,11.1-10.6,19.3-11s14.6-.1,22.4-.1c-2.6,8.1-8.1,12.4-15.6,14.4a56,56,0,0,1-5.9,1.2C516.9,22,515.2,24.2,515.2,28.3Z" style="fill:#053762"/><path d="M480.9,75.1c-8-18.4-28.1-26.7-46.9-19.4S402.4,82,402.4,102.8c-.3,2.8.4,5.9.9,9,4.9,29.2,31.4,41.6,57,26.7C482,125.9,491,98.1,480.9,75.1ZM463,116.4a21,21,0,0,1-5.5,10.9c-7.9,8.5-21.2,7-27.2-3.1A54.4,54.4,0,0,1,422.9,95a85.4,85.4,0,0,1,1.3-14.3c1.6-8.3,6.9-14,14.5-15.2s13.7,2,17.7,9.3C463.6,87.8,465.2,101.9,463,116.4Z" style="fill:#053762"/><path d="M396.8,116.9c-5.6,11.6-11.9,22.6-25.3,26.8-9.3,2.9-14.4-.1-16.5-9.5a71.7,71.7,0,0,1-.9-13.9c-.1-16.3,0-32.6,0-49-.1-5.5-1.1-6.4-6.5-6-1.8.2-3.8,1.1-4.9-1.1s.2-4.2,1.8-5.8a14.2,14.2,0,0,1,2.8-2C358.9,49.9,366.2,40,371,27.8c.6-1.6.5-4.4,2.8-4.1s1.3,3.3,1.3,5c.3,6.9.3,13.7.1,20.5-.2,4.1,1.3,5.4,5.2,5.1s6,0,9-.1,2.8,1.3,1.7,3.1a14.5,14.5,0,0,1-10.8,7.3c-3.9.5-5.2,2.2-5.2,6.2.3,17.2.1,34.3.1,51.5.1,6.8,1.7,7.7,7.7,4.3S391.8,119.7,396.8,116.9Z" style="fill:#053762"/><path d="M336.1,130.1c-5.3,2.6-6,2.1-6-3.6l.3-64.4c.1-7.4-2.1-9.3-9.7-8.5a82.2,82.2,0,0,1-9.9.6c-29.4.1-50.5,17.6-55.1,46.6-1.9,11.5-2.4,23.2,3.9,34s14.1,12.4,24.2,5.9a66,66,0,0,0,8-5.9c5.3-4.7,10.5-9.6,16.5-15.1,0,3.8-.2,6.5,0,9.1.7,9.9,9.6,17.4,18.4,15s15.1-9.3,19.6-19ZM308.3,67.2c-.3,5.9-.1,11.7-.1,17.5v16c0,1,.1,2,0,3-.6,5.1-11.6,11.8-20.1,12.3-5.2.3-8.7-3-10.4-9.5-4.1-16.5,5.8-36.8,20.7-42.2a37.6,37.6,0,0,1,4.8-1.3C306.7,62.2,308.5,63.2,308.3,67.2Z" style="fill:#053762"/><path d="M251.2,124.3c-2.8,9.9-9.1,16.4-18.3,19.7s-18.1-2.5-18.4-13.3c-.3-15.5,0-30.9.1-46.4,0-3,.8-6.3-2.6-7.9s-6.4.1-8.9,2.6a80.5,80.5,0,0,0-11.6,14.4,14.8,14.8,0,0,0-2.5,8.4c.1,8.3.2,16.7,0,25a18.5,18.5,0,0,1-18.8,18c-3.3,0-2.8-2.6-2.8-4.8V96.6c0-6.5.2-13,.3-19.5,0-4.2-1.8-5.4-5.6-3.3s-6.1,3.7-9.4,5c5.6-9,12.1-17.1,21.1-22.7,6.3-3.9,12.2-1.5,13.5,5.8s1.5,13.2,2.3,19.9c1.6.2,1.7-1.5,2.4-2.4,4.6-6.5,9.5-12.8,15.6-18.1a32.8,32.8,0,0,1,7.9-5.2c11-4.8,18.7-.7,20.5,11.1,1,6.9.8,13.9.7,20.9-.1,13.1-.3,26.3-.5,39.4,0,1.8-.4,3.9,1.9,4.7s3.5-.1,5-1.4Z" style="fill:#053762"/><path d="M204.1,188.1c-16.6-7.3-29.1-19.1-38.6-34.3-18.4-29.5-29.4-62-37.2-95.6C123.9,39,120,19.8,115.8,0c-2,5-1.7,9.7-3.3,14.1-10.7,30.6-27,58.1-46.3,84-2.1,2.9-4.6,3.2-7.8,2.7-16.6-2.3-31.9-.1-43.7,13.6,6.9-2.6,13.4-6.3,20.8-7.3a58.9,58.9,0,0,1,22.8,1.5c-2.6,2.3-4.7,4-6.7,6-13.5,13-28,24.6-45.4,32.2-5.3,2.4-7.3,6.9-5.6,11.7s5.6,6,11.3,4.6,9.9-4.6,14.2-8.1c14.2-11.2,26.3-24.5,37.3-38.7,3-4,6.1-4.9,10.7-3.3,24.4,8.2,44.2,22.7,60.2,42.7,5.3,6.6,10.5,13.4,16.6,19.3,14.6,14.3,37.9,20.5,54.9,14.5C205.7,188.4,204.8,188.4,204.1,188.1Zm-87.1-67c-12.3-7.2-25.5-12.1-39.1-15.9-3.2-.9-4.3-2.1-2-5.1a281.9,281.9,0,0,0,26.2-41.8c.1-.2.5-.4,1.3-1,4.1,21.6,8.2,42.9,15.1,62.9C118,121.5,117.4,121.3,117,121.1Z" style="fill:#053762"/></svg>