<svg xmlns="http://www.w3.org/2000/svg" viewBox="0 0 48 48"><path d="M48,24A24,24,0,1,1,24,0,24.1,24.1,0,0,1,48,24Zm-.3,0A23.7,23.7,0,1,0,23.8,47.7,23.8,23.8,0,0,0,47.7,24Z" style="fill:#1a68b3"/><path d="M42.4,24A18.4,18.4,0,0,1,23.8,42.4a18.4,18.4,0,0,1,.3-36.8A18.4,18.4,0,0,1,42.4,24ZM5.9,24a18.1,18.1,0,1,0,0-.1Z" style="fill:#1a67b3"/><path d="M4.3,28.4a.5.5,0,0,1,.5.4c.1,0,.1.1.1.2l.5,1.4a.6.6,0,0,0,.1.4v.3a.5.5,0,0,1-.3.5H5l-1.2.4a.8.8,0,0,1-.8-.4v-.2a10.9,10.9,0,0,1-.5-1.7c-.1-.1-.1-.2-.1-.4a.5.5,0,0,1,.3-.5H3l.2.6c0,.1,0,.1-.1.2a.3.3,0,0,0-.1.2h.1l.3,1c.1.4.2.4.5.3h.7a.5.5,0,0,0,.2-.4c0-.1-.1-.1-.1-.2l-.2-.8c-.1-.1-.1-.2-.2-.2s-.1-.2-.2-.1H4c.1.3.1.5.2.8s0,.1,0,.1-.4.2-.5-.2a6.5,6.5,0,0,1-.4-1.3h0A2.9,2.9,0,0,1,4.3,28.4Z" style="fill:#ed1f24"/><path d="M14,3.8h.4l.6-.3h.3l1.6.9.4.3c.1-.1,0-.1,0-.2L16.7,3V2.8h.1l.5-.2c.1,0,.1,0,.1.1h.1a18,18,0,0,0,.8,2.1h-.1l-.9.4H17l-1.7-1L15,4.2v.2l.6,1.4V6h0l-.6.3h-.1L14,4Z" style="fill:#ed1f24"/><path d="M32.9,3.4l1.1.5v.2c0,.2.1.4.1.7l.3,1.6h0a.1.1,0,0,0,.1-.1l.7-1.4c.2-.2.1-.2.4-.1L36,5c.1.1.1.1.1.2a7.5,7.5,0,0,1-.7,1.2l-.5.9c0,.1,0,.1-.1.1l-1-.5c0-.1-.1-.1-.1-.2s-.1-.9-.2-1.3-.1-.7-.2-1h-.1l-.7,1.3V6h-.1l-.6-.3h0l1.2-2.3Z" style="fill:#ed1f24"/><path d="M5.9,14.3H5.7l-1.3-.6H4.2v-.5h.2l.8.4,1.3.6h.1c.1.1.1.1,0,.2h0c-.1.3-.3.5-.4.8l-.2.2-1.9.5H3.9a.9.9,0,0,0,.6.3l.6.3.5.3c.1.1,0,.1,0,.2a.8.8,0,0,0-.2.4H5.2l-2.1-1H3l.4-1h.2l2.2-.6Z" style="fill:#ed1f24"/><path d="M46.2,26v.5c-.1.4-.1.8-.2,1.3l-.2.5c-.1.1-.2.3-.4.3H45l-1-.2h-.2a.6.6,0,0,1-.5-.6,2,2,0,0,1,.1-.7c0-.4.1-.9.1-1.3a.8.8,0,0,0,.1-.4.7.7,0,0,1,.8-.5l1.3.2c.4.1.5.3.5.7ZM44,27.2v.2c0,.1.1.2.2.3h.9a.2.2,0,0,0,.2-.2.4.4,0,0,0,.1-.3,3.1,3.1,0,0,0,.1-1v-.2a.2.2,0,0,0-.2-.2l-.8-.2c-.2,0-.3.1-.3.2v.2a1.3,1.3,0,0,0-.1.6A1.1,1.1,0,0,0,44,27.2Z" style="fill:#ed1f24"/><path d="M30.7,5.3h-.5l-1.6-.4-.4-.2a.6.6,0,0,1-.3-.7,5,5,0,0,1,.4-1.3h0a.8.8,0,0,1,.7-.4h.5l1.3.4.5.2a.8.8,0,0,1,.4.7A2.7,2.7,0,0,1,31.2,5,.5.5,0,0,1,30.7,5.3Zm-.4-.7c.2,0,.3-.1.3-.2l.3-.7V3.5c0-.1-.1-.1-.2-.2h-.2l-1-.3h-.2c-.1,0-.3,0-.3.2a1.4,1.4,0,0,0-.2.6v.2c-.1.1,0,.2.1.3h.2l.9.2Z" style="fill:#ed1f24"/><path d="M42.6,16.4a.5.5,0,0,1-.4-.2l-.2-.3a8,8,0,0,1-.8-1.6.5.5,0,0,1-.2-.4l.2-.4.3-.2h.1l.3.5V14h-.1s-.1.1,0,.1a.4.4,0,0,0,.1.3l.4.8v.2h.2a.2.2,0,0,0,.2-.2.3.3,0,0,0-.1-.2l-.6-1.3v-.2a.7.7,0,0,1,.1-.6l.7-.3a.4.4,0,0,1,.5.1l.3.5a7.5,7.5,0,0,1,.7,1.2c0,.2.1.3.1.4a.4.4,0,0,1-.1.5l-.2.2c-.2.1-.2.1-.3-.1l-.2-.4v-.2a.4.4,0,0,0,.1-.3l-.6-1h-.2a.2.2,0,0,0-.2.2h0l.2.2.4,1,.2.5a.4.4,0,0,1-.1.5A2,2,0,0,1,42.6,16.4Z" style="fill:#ed1f24"/><path d="M43.9,32.9h-.3l-.9-.4-.3-.2a.6.6,0,0,1-.3-.6v-.4l.6-1.6c0-.1.1-.2.1-.3a.7.7,0,0,1,.8-.3,3.4,3.4,0,0,1,1.2.4l.3.2c.1.1.2.2.2.3a.9.9,0,0,1-.1.5,1.4,1.4,0,0,1-.2.6,3.8,3.8,0,0,1-.3,1l-.3.5A.6.6,0,0,1,43.9,32.9Zm-1-1.4a.4.4,0,0,0,.1.3l.8.3c.1,0,.3-.1.3-.2l.2-.3.3-.8v-.3c0-.1,0-.2-.2-.3l-.6-.2c-.3-.1-.4,0-.5.2h0l-.4,1v.3Z" style="fill:#ed1f24"/><path d="M13.5,5.9h.2c.2,0,.3,0,.4.2l.3.4c.1,0,.1.1,0,.1h0l-.6.4h0l-.2-.2h-.1c-.1-.2-.1-.2-.3-.1L12,7.4l.2.2c0,.1.1.2.1.3s.1.1,0,.1l-.4.3h-.2L10.2,6.2a.1.1,0,0,0,.1-.1l2-1.3h.2c.4-.2.6-.1.9.2s.2.2.2.3.1.5,0,.6Zm-1.9,1,1.2-.8h.1a.3.3,0,0,0,.1-.2l-.2-.3h-.4l-1,.7h-.1v.2Z" style="fill:#ed1f24"/><path d="M9.5,6.8l.3.4c.2.1.1.1,0,.1L9.2,8l-.7.6v.2l.3.3.2-.3a.2.2,0,0,0,.2-.2l.3-.2c.1-.1.1-.2.2-.2l.3-.3.2-.2.4.3c.1.2-.1.1-.1.2L9.2,9.3H9.1l.3.3a.2.2,0,0,1,.2-.2l1.2-1.2H11l.3.4L9.2,10.8a.1.1,0,0,1-.1-.1L7.4,9h.2L9.3,7Z" style="fill:#ed1f24"/><path d="M44.2,19.3c0,.2.1.5.1.7s0,.1,0,.1h-.7l-.3-.2v-.3a12.1,12.1,0,0,1-.5-1.8v-.3a.8.8,0,0,1,.2-.5h.3l.6-.2h.6c.5-.1.7.1.9.5l.3,1c.1.3.1.6.2.9v.2a.8.8,0,0,1-.2.4l-.5.2a.1.1,0,0,1-.1-.1l-.2-.5h.1a.2.2,0,0,0,.1-.4c-.1-.3-.1-.7-.2-1h-.1c0-.1-.2-.2-.3-.2l-.8.2-.2.3a.4.4,0,0,0,.1.3l.2.7v.2c.1.2.2.2.3.2Z" style="fill:#ed1f24"/><path d="M43.5,21.2v-.3H44l2-.2h.1c0,.2.1.4.1.6s0,.1-.1.1h-.7c-.2,0-.2,0-.2.1v1.5h0a.1.1,0,0,0,.1.1H46c.3-.1.3-.1.3.2a.9.9,0,0,0,.1.5.1.1,0,0,1-.1.1H43.7v-.6h1a7.6,7.6,0,0,1-.1-1.5h-.8c-.3,0-.3,0-.3-.2Z" style="fill:#ed1f24"/><path d="M4.3,24.9c0,.2,0,.2-.3.2H3.4c-.1,0-.1,0-.1.2v.7a1.9,1.9,0,0,1,.1.8c.1.3.1.1.2.1h.9v.8H4L2.4,28H2c-.1,0-.1,0-.1-.1v-.6c0-.1,0-.1.1-.1h.6c.3,0,.3,0,.3-.2s-.1-1-.2-1.5h-1v-.7h.1l2.2-.3c.3,0,.3,0,.3.3A.4.4,0,0,0,4.3,24.9Z" style="fill:#ed1f24"/><path d="M38.2,10.2l-.6-.5h0a.6.6,0,0,1,.1-.4V9l-1.2-.9h-.1l-.3.2h-.2l-.6-.4h.1l2.6-1h.2l.5.4.2.3v.4a20.5,20.5,0,0,0-.5,2.4ZM38,7.4l-1,.3h0l.7.6h.1a3,3,0,0,0,.2-1Z" style="fill:#ed1f24"/><path d="M22.6,4.2h-.9L21.5,4c0-.1-.1-.1-.2-.1l-1.4.2-.2.2v.3c0,.1,0,.1-.1.1h-.8c.3-.9.7-1.7,1-2.6h0c0-.1,0-.1.1-.2h1.1L22.5,4C22.6,4,22.6,4.1,22.6,4.2ZM20,3.5h1l-.6-.8a.1.1,0,0,0-.1.1Z" style="fill:#ed1f24"/><path d="M6.7,10.8l.8.6.8.6-.5.6H7.7L7,12.1l-.7-.5H6.1l-.5.6a.3.3,0,0,1-.1.2L5,12.1C4.8,12,5,12,5,12h.1L6.7,9.7h.2l.4.3-.3.4-.2.4Z" style="fill:#ed1f24"/><path d="M2.2,20.6h.2c.1.1,0,.2,0,.3v.7c0,.2,0,.1.1.1H4.3v.6c0,.1,0,.1-.1.1H2.4c-.1,0-.1.1-.1.2v.8h0c0,.1,0,.1-.1.1H1.7c-.1,0-.2,0-.1-.1v-.4c0-.6.1-1.2.1-1.8v-.7h.4Z" style="fill:#ed1f24"/><path d="M24.4,1.6h1.4c.2,0,.2,0,.2.2v.4h-.9c-.3,0-.3-.1-.3.2V4.2H24V2.3H23c-.2,0-.2,0-.2-.2V1.6c0-.1.1,0,.1,0h1.5Z" style="fill:#ed1f24"/><path d="M10.2,41.5l.4-.6-.5-.5H9.9l-.5.2c-.1.1-.2.1-.2,0l-.3-.3H8.8l.8-.3,2-.8h.2l.4.4c.1.1.1.1.1.2h-.1l-1.4,2.1h-.2Zm1.4-1.8h-.1l-.9.4h-.1l.4.3A5,5,0,0,0,11.6,39.7Z" style="fill:#1967b3"/><path d="M5.6,36.7l-.4-.6h.2l1.3-.8h.1v-.2L6,33.7v-.2c-.1,0-.1,0,0-.1H6l.5-.3a.8.8,0,0,1,.2.5,8.6,8.6,0,0,1,1,1.6h.1c.1,0,0,.1,0,.1H7.7L5.8,36.7Z" style="fill:#ed1f24"/><path d="M40.6,12.2l-.5.4v-.2l-1.4-1.7h-.1l1.9-1.5h.2l.4.6h-.1l-1.2,1h-.1l.9,1.1Z" style="fill:#ed1f24"/><path d="M40.8,35.3h0l-.4-.3c-.1,0-.1,0-.1-.1l.5-.8.7-1.2h.3l2,1.1h.1l-.4.6h-.2L42,33.9h-.3L41,35.2h-.2Z" style="fill:#ed1f24"/><path d="M26.4,46.5H26c-.1,0-.1,0-.1-.1V46c0-.1,0-.1.2-.1H27c.2-.2.2-.4,0-.5h-.3l-.3-.2a.8.8,0,0,1-.2-1.2,1,1,0,0,1,.7-.4h.8V44a.1.1,0,0,1-.2,0h-.6c-.2.1-.2.3,0,.5h.5a.8.8,0,0,1,.2,1.3,1.2,1.2,0,0,1-.8.4Z" style="fill:#1967b3"/><path d="M24.8,45.4a1.6,1.6,0,0,1-.8,1.2.9.9,0,0,1-.7,0,.5.5,0,0,1-.6-.6,1.2,1.2,0,0,1,.8-1.4h.6a1,1,0,0,1,.7.8Zm-.7,0v-.2c0-.1-.2-.3-.3-.2h-.2c0,.1-.1.1-.1.2a1.4,1.4,0,0,0-.2.6V46c.1.2.3.3.4.2h0L24,46a1.3,1.3,0,0,0,.1-.6Z" style="fill:#1967b3"/><path d="M30,43.6V44a8.6,8.6,0,0,1,.1,1.6h0v.2h-.2c-.3.1-.3.1-.3-.2h0l-.2.2c-.1.1-.2.3-.4.3a.4.4,0,0,1-.6-.3.6.6,0,0,1-.1-.4V44.3h.6v.4a1.9,1.9,0,0,0,.1.8v.2a.2.2,0,0,0,.2.2h.1c.1-.1.2-.1.2-.2s.1-.2.1-.4a4.3,4.3,0,0,1-.1-.5v-.5c0-.1,0-.1.1-.1Z" style="fill:#1967b3"/><path d="M16,42.8a.9.9,0,0,1,.6.3.6.6,0,0,1,.2.7.6.6,0,0,1-.6.3c-.1.1-.3,0-.5,0l-.4-.2a.1.1,0,0,0-.1.1c0,.1,0,.2.1.2l.2.2h.6c0,.1-.1.2-.1.3s-.1.1-.2.1a1.6,1.6,0,0,1-.9-.3c-.2-.1-.3-.5-.3-.8A1.4,1.4,0,0,1,16,42.8Zm0,.9a.2.2,0,0,0,.2-.2c0-.1,0-.2-.1-.2h0a.4.4,0,0,0-.5.1c-.1,0-.1.1,0,.1Z" style="fill:#1967b3"/><path d="M34.5,42.9a.4.4,0,0,0,.5.1l.4-.3c.1-.2.1-.2.3,0h0c.1.1.1.1,0,.2a1.3,1.3,0,0,1-.7.5.7.7,0,0,1-.9-.2,1.2,1.2,0,0,1-.2-1.3,1.2,1.2,0,0,1,.7-.7.6.6,0,0,1,.8.4h0c0,.2,0,.3-.1.4s-.1.2-.2.3-.2.3-.4.3Zm-.2-.6h0c0,.1.1.2.1.1l.4-.3v-.2h-.3a.5.5,0,0,0-.2.4Z" style="fill:#1967b3"/><path d="M3.9,33.9l-.3-.7a.1.1,0,0,1,.1-.1H4l1.8-.9H6l.3.7H6.2l-2.1,1Z" style="fill:#ed1f24"/><path d="M2.7,17h.1l2.3.7h.1c0,.1-.1.3-.1.4s-.1.2-.3.2H4.4l-1.7-.5H2.5a1.4,1.4,0,0,1,.2-.6Z" style="fill:#ed1f24"/><path d="M27.5,2c0,.2-.1.5-.1.7l-.2,1.6h-.9c0-.1.1-.3.1-.4l.3-2h0a.1.1,0,0,1,.1-.1h.7Z" style="fill:#ed1f24"/><path d="M18.4,45.4l.4.2H19c.1.1.2,0,.2-.1s0-.1,0-.2h-.1c-.1-.1-.2-.1-.2-.2a.6.6,0,0,1,0-.8l.5-.2.8.2c.1.1.1.1.1.2h-.1c-.1.2-.1.2-.3.1h-.4c-.1,0-.1.1-.1.2h0v.2l.2.2a.5.5,0,0,1,0,.8h-.4l-.9-.2h-.2Z" style="fill:#1a67b3"/><path d="M36.8,39.8c0-.1.1-.2.1-.3a1.7,1.7,0,0,1,.6-.6h.2c.1,0,.1.1.1.2h-.4v.2c-.1,0,0,.1,0,.1h.5c.5-.2.9.4.7.8h0c-.2.4-.4.7-.8.8s-.1,0-.1-.1v-.2c-.1-.1,0-.1,0-.1l.3-.2a.2.2,0,0,0,.2-.2c0-.1,0-.2-.1-.2h-.5A.7.7,0,0,1,36.8,39.8Z" style="fill:#1a67b3"/><path d="M16.7,44.8l.3.2h.2c.1,0,.2,0,.2-.1s.1-.1,0-.2h-.1c-.1-.1-.1-.2-.2-.2a.6.6,0,0,1,.3-.9h.4c.3.1.5.1.7.3a.1.1,0,0,1,.1.1v.2c-.2.1-.2.1-.3,0h-.4a.1.1,0,0,0-.1.1h0c0,.1.1.1.1.2l.2.2a.6.6,0,0,1-.1.8h-.1c0,.1-.1.1-.2.1a1.1,1.1,0,0,1-1.1-.3h0a.1.1,0,0,1-.1-.1Z" style="fill:#1a67b3"/><path d="M35.5,41a.8.8,0,0,1,.1-.4l.6-.5c.1,0,.2,0,.2.1h0c0,.1.1.2.1.3s-.2,0-.2.1l-.3.2a.3.3,0,0,0,.1.2h.5c.4,0,.6.2.6.5h0a.1.1,0,0,1,0,.2,1.1,1.1,0,0,1-.9.9c-.1,0-.1,0-.1-.1v-.2c-.1-.1-.1-.1.1-.2h.3l.2-.2v-.2H36C35.7,41.6,35.5,41.4,35.5,41Z" style="fill:#1a67b3"/><path d="M22.3,44.5h.4a.3.3,0,0,1-.1.2v.2h-.4c-.1-.1-.1,0-.1,0a1.4,1.4,0,0,0-.2.7h-.1c0,.1.1.2.2.3h.1c-.1.4-.1.4-.5.3h-.2c-.1-.1-.3-.2-.2-.4v-.4l.3-.7h-.1c-.2-.1-.2-.1-.1-.3h.2c.2,0,.1,0,.2-.1h0c0-.2.1-.2.3-.2h.3c.1,0,.1,0,.1.1s-.1.2-.1.3S22.2,44.4,22.3,44.5Z" style="fill:#1a67b3"/><path d="M13.7,41.6l-.4.3v-.2A.9.9,0,0,0,12,42c-.1.1,0,.3.1.4l.3.2a.1.1,0,0,1,.1.1l-.2.3h-.1a1.2,1.2,0,0,1-.7-.5.8.8,0,0,1-.1-.8,1.8,1.8,0,0,1,1-.7,1.5,1.5,0,0,1,1.2.5A.1.1,0,0,1,13.7,41.6Z" style="fill:#1a67b3"/><path d="M14.9,42.8h-.2a.7.7,0,0,0-1.1.4.4.4,0,0,0,.1.3l.2.2h.3c-.1.2-.1.3-.2.4h-.1a1.2,1.2,0,0,1-.8-.4.8.8,0,0,1-.1-.8,1.4,1.4,0,0,1,.9-.8,1.7,1.7,0,0,1,1.2.4c.1.1.1.1,0,.2Z" style="fill:#1a67b3"/><path d="M32.2,43.5a1.4,1.4,0,0,1,1.1-1.4h.1v.3h-.2a.7.7,0,0,0-.3,1.1c.2.1.4.2.5.1l.3-.2h.2c.1.3.1.3-.1.5l-.5.2a.8.8,0,0,1-.9-.3A1.9,1.9,0,0,1,32.2,43.5Z" style="fill:#1a67b3"/><path d="M31.8,43.4h-.2a.7.7,0,0,0-.4,1,.4.4,0,0,0,.5.2H32c.1.1.1.2.2.4h-.1l-.6.3a.8.8,0,0,1-.9-.5,1.3,1.3,0,0,1,.4-1.6l.6-.2c.2-.1.2,0,.2.1Z" style="fill:#1a67b3"/><path d="M40.5,38.4h-.4c-.1.1-.1.2-.2.2h-.1v-.3h-.3c.2,0,.3-.2.3-.4h.1v.2h.4a.2.2,0,0,0,0,.3C40.4,38.3,40.5,38.3,40.5,38.4Z" style="fill:#1d69b4"/><path d="M8.5,38.4H8.1c0,.1-.1.1-.1.2a.4.4,0,0,1-.1-.3H7.6c.3-.2.2-.1.3-.4h0l.3.2h.3a.1.1,0,0,1-.1.1c0,.1,0,.3.1.3S8.6,38.3,8.5,38.4Z" style="fill:#1d69b4"/><path d="M37.6,16.1l-.2.2-.6.6a23.3,23.3,0,0,0-1.7,2.6,22.3,22.3,0,0,0-1.6,4.3A14.2,14.2,0,0,0,33,26c0,.4-.1.8-.1,1.3a19.5,19.5,0,0,1-1,4,10,10,0,0,1-2.8,4A8.9,8.9,0,0,1,26,37.2l-1,.4c0,.1-.1.1-.2.1h0a6.6,6.6,0,0,0,1.8-2.3,18.2,18.2,0,0,0,1.1-3,18.7,18.7,0,0,0,.4-2.5c.1-1,.1-2,.1-3V25.5a8.4,8.4,0,0,1,.7-3.5,8.8,8.8,0,0,1,2.6-3.4,12.4,12.4,0,0,1,3.6-1.9l2.3-.6Z" style="fill:#ed1f24"/><path d="M23.3,37.7h-.2l-.5-.2a10.8,10.8,0,0,1-6.2-5.6,17.6,17.6,0,0,1-1-3c-.1-.5-.1-1-.2-1.5A25.7,25.7,0,0,0,14,21.9a18.1,18.1,0,0,0-1.8-3.7,10,10,0,0,0-1.6-1.9v-.2h.1a15.8,15.8,0,0,1,5,1.8,13.7,13.7,0,0,1,2.2,1.9,8.1,8.1,0,0,1,1.9,3.8,22.9,22.9,0,0,1,.2,2.5v2.2a21,21,0,0,0,.5,4.3,18.8,18.8,0,0,0,1.2,3,5.1,5.1,0,0,0,.9,1.3l.6.6Z" style="fill:#ed1f24"/><path d="M19.5,18.6h.1l1.8.6a5.2,5.2,0,0,0,2.1.4,3.3,3.3,0,0,0,1.4,0,11.5,11.5,0,0,0,3.3-1h.3c-.1.1-.1.1-.1.2a8.4,8.4,0,0,0-2,4,8.2,8.2,0,0,0-.2,2.7,4.9,4.9,0,0,0,.1,1.2,12.3,12.3,0,0,1,.2,2.7,19.5,19.5,0,0,1-.8,4.2,26.2,26.2,0,0,1-1.5,3.9l-.2.2c0-.1-.1-.1-.1-.2a19.1,19.1,0,0,1-1.9-5,14.3,14.3,0,0,1-.4-2.2,16.2,16.2,0,0,1-.1-2.2c.1-.6.1-1.1.2-1.6a17.7,17.7,0,0,0,.1-2.3,10.3,10.3,0,0,0-.5-2.4,9.8,9.8,0,0,0-1.7-3Z" style="fill:#1967b3"/><path d="M24,14.9a2.1,2.1,0,0,1,2,2,1.9,1.9,0,0,1-1.7,1.9,2,2,0,0,1-2.2-1.3A1.9,1.9,0,0,1,23.4,15H24Z" style="fill:#1967b3"/></svg>