<svg xmlns="http://www.w3.org/2000/svg" viewBox="0 0 841 123.2"><path d="M.1,61.3C-1.4,29.6,26.7-.1,61.2,0a61.9,61.9,0,0,1,62,62c-.1,34.1-27.6,60.9-61.6,61.2S-1.3,93.8.1,61.3Zm56.6,47.5c-3.1-4.9-5.8-8.8-7.3-13.4a61.8,61.8,0,0,1-2.8-14.1c-.5-5.6-.4-11.3-.5-17C45.9,45.6,28.9,32.8,14.2,32a7.6,7.6,0,0,0,.9,1.8C22,42.4,25.5,52.5,27.9,63.2c1.9,8.5,1.6,17.5,6,25.6A42.5,42.5,0,0,0,56.7,108.8Zm52.8-77.1h-2.6C90.7,35,75.8,47.5,77,67.1c.9,14.3-1.1,28.3-9.9,40.4-.1.1.3.5.5.8,14.2-5.6,22.8-16.3,25.2-31S97.9,45.1,109.5,31.7Zm-62,10c4.4,8.1,7,16.3,5.5,25.1-2.3,13.6.8,26.1,6.1,38.4.5,1,.7,2.4,2,2.6s1.9-1.6,2.4-2.7c5.8-12,8-24.5,5.9-37.8a34,34,0,0,1,2.3-18.1c1.1-2.6,2.4-5.2,4-8.7A36.8,36.8,0,0,1,47.5,41.7Zm6.9-8.4c.1,3.9,3.2,6.7,7.3,6.7a6.3,6.3,0,0,0,6.4-6.2v-.5A7.2,7.2,0,0,0,61,26.4,7.3,7.3,0,0,0,54.4,33.3Z" style="fill:#56bfee"/><path d="M221.3,50.3c-.3,0-.4-.1-.4-.4V24.1a.3.3,0,0,1,.3-.3h3.9c.2,0,.3,0,.3.2V46.2h10.2a.3.3,0,0,1,.3.3h0l-.6,3.5c-.1.2-.2.3-.4.3Z"/><path d="M255.7,50a.3.3,0,0,1-.3.3h-3.9a.3.3,0,0,1-.3-.3V24.1c0-.3.1-.3.3-.3h3.9c.2,0,.3,0,.3.2Z"/><path d="M283.4,39.5c-.3,0-.3-.1-.3-.3V35.9c0-.2.1-.3.2-.3h8.1a.3.3,0,0,1,.3.3V49.1c0,.2,0,.3-.3.4a18.9,18.9,0,0,1-6.7,1.2c-8.4,0-12.4-6-12.4-13.5s5.4-13.8,13.3-13.8a13.7,13.7,0,0,1,5.3.8c.2.1.2.3.2.5v3.6c0,.2-.1.3-.3.2a10.3,10.3,0,0,0-5.2-1c-5.7-.1-8.6,3.6-8.6,9.6s2.8,9.5,7.9,9.5a6,6,0,0,0,2.3-.2V39.7Z"/><path d="M323.1,50.3a.3.3,0,0,1-.3-.3V38.5h-9.3V50a.3.3,0,0,1-.3.3h-3.8c-.3,0-.3-.1-.3-.3V24.1c0-.2,0-.3.3-.3h3.8c.2,0,.3,0,.3.2V34.5h9.3V24c0-.2.1-.2.3-.2H327c.2,0,.3,0,.3.2V50a.3.3,0,0,1-.3.3Z"/><path d="M349.7,27.8h-6.9c-.2,0-.3-.1-.2-.3l.5-3.5c0-.2.1-.2.3-.2h17.2c.3,0,.4,0,.4.3l.3,3.4a.3.3,0,0,1-.3.3h-6.8V50c0,.2-.1.3-.4.3H350a.3.3,0,0,1-.3-.3Z"/><path d="M400.8,43l-1.9,7c-.1.2-.2.3-.4.3h-3.7c-.2,0-.2-.1-.2-.4l7-23.8a3.9,3.9,0,0,0,.3-2.1c0-.2.1-.2.2-.2h5.2c.2,0,.3,0,.3.2l7.9,26c.1.2,0,.3-.2.3h-4.1c-.2,0-.3-.1-.4-.3l-2-7Zm7-4.1c-.7-2.8-2.4-8.3-3-11.2h0c-.6,2.8-1.9,7.4-2.9,11.2Z"/><path d="M446.3,49.6c0,.2-.1.4-.3.4a12,12,0,0,1-4.6.7c-6.4,0-12-4.1-12-13.7s5-13.6,12.6-13.6a12.4,12.4,0,0,1,4.3.5c.2.1.2.2.2.5v3.5q0,.5-.3.3a9.6,9.6,0,0,0-4.1-.7c-4.9,0-8.1,3.5-8.1,9.4,0,7.4,4.5,9.7,8,9.7a13.4,13.4,0,0,0,4-.6c.1-.1.3-.1.3.2Z"/><path d="M467.2,43l-1.9,7c-.1.2-.2.3-.4.3h-3.7c-.2,0-.3-.1-.2-.4l7-23.8a7.6,7.6,0,0,0,.3-2.1c0-.2.1-.2.2-.2h5.2c.2,0,.2,0,.3.2l7.9,26c.1.2,0,.3-.2.3h-4.1c-.2,0-.4-.1-.4-.3l-2-7Zm6.9-4.1c-.7-2.8-2.3-8.3-2.9-11.2h-.1c-.5,2.8-1.8,7.4-2.8,11.2Z"/><path d="M497.3,24.1a.3.3,0,0,1,.3-.3h6.5c8.3,0,12.5,5.3,12.5,12.8,0,10.6-7.2,13.9-12.8,13.9h-6.2a.3.3,0,0,1-.3-.3Zm4.5,22.3h2.1c4.5,0,8-3.2,8-9.8s-3.4-9-7.8-9h-2.3Z"/><path d="M547.9,50c0,.2-.1.3-.4.3h-14a.3.3,0,0,1-.3-.3V24.1c0-.3.1-.3.3-.3H547c.3,0,.4,0,.4.2l.4,3.5c0,.2,0,.3-.3.3h-9.9v6.9h8.9a.3.3,0,0,1,.3.3v3.5a.3.3,0,0,1-.3.3h-8.9v7.4h10.6c.2,0,.3.1.2.3Z"/><path d="M565.9,23.8h5.8c.2,0,.3,0,.3.2,1.1,3.8,4,15.5,4.7,19.6h.1c.7-3.7,4.2-15.5,5.2-19.6.1-.2.2-.2.4-.2H588c.2,0,.2,0,.3.2l1,26a.3.3,0,0,1-.3.3h-4a.3.3,0,0,1-.3-.3c-.2-8.8-.2-20.3-.1-22.5h-.1c-.7,3.5-4.3,16.6-5.9,22.5a.3.3,0,0,1-.3.3h-3.6c-.2,0-.3-.1-.4-.3-1.5-6.1-4.3-17.9-5.2-22.5H569c0,3.3-.3,13.6-.6,22.5a.3.3,0,0,1-.3.3h-3.6c-.3,0-.4-.1-.4-.3l1.5-26C565.6,23.8,565.7,23.8,565.9,23.8Z"/><path d="M603.3,24.1c-.1-.2,0-.3.2-.3h4.4c.2,0,.3,0,.3.2,3.6,7.6,4.8,10.6,5.4,12.1.6-1.7,1.8-4.5,5.2-12.1.1-.2.1-.2.3-.2h4.1c.3,0,.3.1.3.3l-7.7,15.4a2.7,2.7,0,0,0-.3,1.2V50c0,.2,0,.3-.3.3h-3.8a.3.3,0,0,1-.3-.3V40.7a3.2,3.2,0,0,0-.3-1.4Z"/><path d="M662.5,43l-1.9,7a.5.5,0,0,1-.5.3h-3.6c-.2,0-.3-.1-.2-.4l7-23.8a7.6,7.6,0,0,0,.3-2.1c0-.2,0-.2.2-.2H669c.2,0,.2,0,.2.2l8,26c0,.2,0,.3-.2.3h-4.1c-.2,0-.4-.1-.4-.3l-2-7Zm6.9-4.1c-.7-2.8-2.3-8.3-2.9-11.2h-.1c-.6,2.8-1.8,7.4-2.8,11.2Z"/><path d="M693,50.3c-.3,0-.4-.1-.4-.4V24.1a.3.3,0,0,1,.3-.3h3.9c.2,0,.3,0,.3.2V46.2h10.2a.3.3,0,0,1,.3.3L707,50c-.1.2-.2.3-.4.3Z"/><path d="M726.6,41c0,3.7,1.7,5.6,4.8,5.6s4.6-1.4,4.6-5.7V24.1a.3.3,0,0,1,.3-.3h3.9c.2,0,.3,0,.3.2V41.2c0,7-4.3,9.5-9.2,9.5s-9.2-2.8-9.2-9.2V24.1a.3.3,0,0,1,.3-.3h4c.2,0,.2,0,.2.2Z"/><path d="M759,23.8h5.8c.2,0,.3,0,.3.2,1.1,3.8,4,15.5,4.7,19.6h.1c.7-3.7,4.2-15.5,5.3-19.6,0-.2.1-.2.3-.2h5.6c.2,0,.2,0,.3.2l1,26a.3.3,0,0,1-.3.3h-4a.3.3,0,0,1-.3-.3c-.1-8.8-.1-20.3-.1-22.5h-.1c-.7,3.5-4.3,16.6-5.8,22.5-.1.2-.2.3-.4.3h-3.6c-.2,0-.3-.1-.4-.3-1.5-6.1-4.3-17.9-5.2-22.5h-.1c0,3.3-.3,13.6-.6,22.5a.3.3,0,0,1-.3.3h-3.6c-.3,0-.4-.1-.4-.3l1.5-26C758.8,23.8,758.8,23.8,759,23.8Z"/><path d="M800.2,50.3a.3.3,0,0,1-.3-.3V24c0-.2.1-.2.3-.2h5c.3,0,.4,0,.5.2,2.4,5.1,7.8,17,8.9,19.7h0c-.1-1.2-.2-3.3-.2-6.6V24c0-.1.1-.2.3-.2h3.6c.2,0,.3,0,.3.3V49.9c0,.3-.1.4-.4.4h-4.5c-.3,0-.5-.1-.5-.3-1.9-4.4-8-17.1-9.3-21h0c.1,1.9.2,4.3.2,7.6V50a.3.3,0,0,1-.3.3Z"/><path d="M841,50c0,.2,0,.3-.2.3h-3.9a.3.3,0,0,1-.3-.3V24.1c0-.3.1-.3.3-.3h3.9c.2,0,.2,0,.2.2Z"/><path d="M355.4,78.1l-3.5,9.8-.3.2H350c-.1,0-.2-.1-.1-.3l9.4-25.7a2,2,0,0,0,.2-1.1.2.2,0,0,1,.2-.2h2.4c.1,0,.2,0,.2.2l9.8,26.8c0,.2,0,.3-.2.3h-1.6c-.2,0-.2-.1-.3-.2l-3.6-9.8Zm10.5-1.8c-1-2.7-4.2-11.3-4.9-14h-.1c-.7,2.6-3,8.7-4.9,14Z"/><path d="M387.8,86.8c-.2-.1-.2-.2-.2-.3V84.7c0-.1.1-.2.2-.1a12.6,12.6,0,0,0,6.8,2c4.5,0,6.6-2.2,6.6-5.3s-1.2-4.1-5.5-6.1l-1.7-.7c-5-2.2-6.1-4.8-6.1-7.2,0-4.2,3.3-6.9,8.1-6.9,2.7,0,4.8.4,5.9,1.1a.5.5,0,0,1,.2.4v1.5c0,.2-.1.3-.3.2a19.8,19.8,0,0,0-5.8-1.4c-5,0-6.2,2.9-6.2,4.9s1.2,4,5.3,5.7l1.8.8c4.8,2.2,6.3,4.6,6.3,7.5s-2.9,7.4-8.7,7.4A12,12,0,0,1,387.8,86.8Z"/><path d="M419.7,86.8a.4.4,0,0,1-.1-.3V84.7c0-.1.1-.2.2-.1a12.6,12.6,0,0,0,6.8,2c4.5,0,6.6-2.2,6.6-5.3s-1.2-4.1-5.5-6.1l-1.7-.7c-5.1-2.2-6.1-4.8-6.1-7.2,0-4.2,3.2-6.9,8.1-6.9,2.7,0,4.8.4,5.9,1.1a.5.5,0,0,1,.2.4v1.5c0,.2-.2.3-.3.2a19,19,0,0,0-5.9-1.4c-5,0-6.1,2.9-6.1,4.9s1.2,4,5.2,5.7l1.9.8c4.8,2.2,6.3,4.6,6.3,7.5s-2.9,7.4-8.7,7.4A12.5,12.5,0,0,1,419.7,86.8Z"/><path d="M475.5,74.3c0,9.1-5.2,14.2-11.9,14.2s-12.2-6-12.2-14.1,5.3-14,12.1-14S475.5,66.4,475.5,74.3ZM463.6,86.6c6.3,0,9.9-4.9,9.9-12.3s-4.1-12.1-10.1-12.1-10,4.2-10,12.1S456.9,86.6,463.6,86.6Z"/><path d="M511.3,87.4l-.2.3a14.2,14.2,0,0,1-5.4.8c-6.1,0-13.7-3.6-13.7-14.2,0-8.2,5.7-13.9,14.2-13.9,2.8,0,4.4.3,5.1.7s.2.1.2.3V63c0,.2-.1.2-.2.1a12.1,12.1,0,0,0-5.3-.9c-7,0-12,4.7-12,12,0,10,7.6,12.4,11.9,12.4a11.6,11.6,0,0,0,5.2-.8c.1,0,.2,0,.2.2Z"/><path d="M530.6,87.8c0,.2-.1.3-.2.3h-1.6c-.1,0-.2-.1-.2-.3V61c0-.1,0-.2.2-.2h1.6c.1,0,.2,0,.2.2Z"/><path d="M552.8,78.1l-3.5,9.8-.3.2h-1.5c-.2,0-.2-.1-.2-.3l9.4-25.7a2,2,0,0,0,.2-1.1.2.2,0,0,1,.2-.2h2.4c.1,0,.2,0,.2.2l9.8,26.8c.1.2,0,.3-.1.3h-1.7c-.2,0-.2-.1-.3-.2l-3.5-9.8Zm10.5-1.8c-1-2.7-4.2-11.3-4.9-14h-.1c-.7,2.6-3,8.7-4.9,14Z"/><path d="M588.5,62.6h-9.2c-.1,0-.2,0-.2-.2l.3-1.4c.1-.1.1-.2.3-.2h19.7c.2,0,.3,0,.3.2l.2,1.4c0,.2,0,.2-.2.2h-9.2V87.8c0,.2-.1.3-.2.3h-1.5a.3.3,0,0,1-.3-.3Z"/><path d="M617.7,87.8c0,.2,0,.3-.2.3H616c-.2,0-.2-.1-.2-.3V61c0-.1,0-.2.2-.2h1.5c.2,0,.2,0,.2.2Z"/><path d="M659.6,74.3c.1,9.1-5.1,14.2-11.9,14.2s-12.1-6-12.1-14.1,5.2-14,12-14S659.6,66.4,659.6,74.3ZM647.7,86.6c6.3,0,9.9-4.9,9.9-12.3s-4-12.1-10.1-12.1-9.9,4.2-9.9,12.1S641.1,86.6,647.7,86.6Z"/><path d="M677.7,88.1c-.1,0-.2-.1-.2-.3V61c0-.1,0-.2.2-.2h2.4c.1,0,.2,0,.2.2,4.2,6.6,13.5,21.6,15.4,24.9h0c-.1-1-.1-2.8-.1-6V61a.2.2,0,0,1,.2-.2h1.5c.2,0,.2.1.2.2V87.8c0,.2,0,.3-.2.3H695c-.1,0-.2,0-.3-.2-1.6-2.8-14.4-23.2-15.5-25.4h0c.1,1.1.2,3.4.2,6.8V87.8c0,.2-.1.3-.2.3Z"/><line x1="166.6" y1="0.1" x2="166.6" y2="123.1" style="fill:none;stroke:#000;stroke-miterlimit:10;stroke-width:0.9880235195159912px"/></svg>