<svg xmlns="http://www.w3.org/2000/svg" viewBox="0 0 500 296.8"><path d="M359.8,0h1.7l10.8,1a133.3,133.3,0,0,1,22.6,5.6,154.9,154.9,0,0,1,38.3,17.7,184.5,184.5,0,0,1,18.4,14.3,174.9,174.9,0,0,1,22.6,26.1,183.6,183.6,0,0,1,16.7,32,182.5,182.5,0,0,1,7.3,28.2,80.9,80.9,0,0,1,1.4,13.9c.3,3.1.4,6.3.4,9.4a147.1,147.1,0,0,1-49.4,110.6,142,142,0,0,1-27.8,19.8,145.6,145.6,0,0,1-46,16,129,129,0,0,1-35.1,1.8,123.8,123.8,0,0,1-27.1-4.5h-1.4a6.5,6.5,0,0,0-6.6.6,24.9,24.9,0,0,1-28.5-6.6,24.3,24.3,0,0,1-6.7-20.8,26.2,26.2,0,0,1,20.2-22.3,25.3,25.3,0,0,1,23.7,7.3,24.9,24.9,0,0,1,5.9,9.7c.7,1.8,1.4,2.5,2.8,2.8a141,141,0,0,0,20.5,3.2h8.7a126.9,126.9,0,0,0,43.8-9.4,118.4,118.4,0,0,0,67.2-75.2c1.6-6.2,2.8-12.4,3.8-18.8a126.5,126.5,0,0,0,.7-22.2,127.7,127.7,0,0,0-8.4-35.5,124.7,124.7,0,0,0-18.8-31.3,122.9,122.9,0,0,0-30.9-26.1,116.5,116.5,0,0,0-36.2-13.6,102.2,102.2,0,0,0-29.2-2,117.2,117.2,0,0,0-105.1,80.7,123.9,123.9,0,0,0-4.8,21.9c-.4,4.1-.7,8.7-.7,12.8a1.5,1.5,0,0,0,0,1.8,14.9,14.9,0,0,0,.3,4.2c.4,1.3,1.8,1.7,2.8,2.4a25.6,25.6,0,0,1,2.4,35.8,23.5,23.5,0,0,1-13.9,8.4A25.7,25.7,0,0,1,195,181a25.4,25.4,0,0,1,.6-14.7,22.7,22.7,0,0,1,6.3-9.8,4.5,4.5,0,0,0,1.4-4.1,78.1,78.1,0,0,1,.3-15.3,144,144,0,0,1,15.7-56,149.1,149.1,0,0,1,19.4-28.9,142.3,142.3,0,0,1,31.7-27.8A143.9,143.9,0,0,1,316.3,4.2,124.9,124.9,0,0,1,335.4,1l6.7-.7h17.7Z" style="fill:#22759f"/><path d="M156.3,0h1.4l7,.7a136.5,136.5,0,0,1,35.1,8l14.9,6.6a15.7,15.7,0,0,1-5.9,29.6,20.2,20.2,0,0,1-9-2.1,123.1,123.1,0,0,0-21.2-8,127.5,127.5,0,0,0-20.2-3.5H145.9a126.1,126.1,0,0,0-30.6,4.9,116.8,116.8,0,0,0-81.4,89,126.2,126.2,0,0,0-2.5,30.6,123.6,123.6,0,0,0,8,35.5,119,119,0,0,0,28.9,42.5A113.3,113.3,0,0,0,102.4,256a106.2,106.2,0,0,0,29.2,8.4l8.7,1H148a125.9,125.9,0,0,0,48-10.1,123.5,123.5,0,0,0,57.4-54.6A114.3,114.3,0,0,0,264.1,167c.7-3.9,1.1-7.7,1.4-11.2a72.4,72.4,0,0,0,.4-9,133.2,133.2,0,0,0-1.8-16.7,16.5,16.5,0,0,1,1.8-11.5,15.6,15.6,0,0,1,16.3-7.6,14.6,14.6,0,0,1,12.6,12.5c.6,3.5,1,6.9,1.3,10.4a141.8,141.8,0,0,1,.7,21.6c-.3,5.2-1,10.4-1.7,15.6a129.7,129.7,0,0,1-6.6,26.1,137.6,137.6,0,0,1-25.1,44.6,149,149,0,0,1-38.2,33.4,140,140,0,0,1-46.3,18,140.1,140.1,0,0,1-17,2.8,137.4,137.4,0,0,1-24,0,127.1,127.1,0,0,1-28.2-4.1,148.9,148.9,0,0,1-90.5-70.7A136.4,136.4,0,0,1,2.9,177.1,119.4,119.4,0,0,1,.5,158.3a107.4,107.4,0,0,1-.4-15c.4-5.2.7-10.4,1.4-15.6a152.8,152.8,0,0,1,4.9-22.3A145.6,145.6,0,0,1,17.5,78.3,182.5,182.5,0,0,1,33.9,53.9,154.4,154.4,0,0,1,70,22.6,144,144,0,0,1,120.5,2.8,150.8,150.8,0,0,1,138.2.3h18.1Z" style="fill:#22759f"/></svg>