<svg xmlns="http://www.w3.org/2000/svg" viewBox="0 0 185.6 171"><path d="M283.7,326.5h.5l3.1.4a42.7,42.7,0,0,1,17.5,6.5,54.3,54.3,0,0,1,5.3,4.2,41.6,41.6,0,0,1,6.5,7.4,41,41,0,0,1,4.8,9.3,37.8,37.8,0,0,1,2.1,8c.2,1.4.4,2.7.5,4s.1,1.9.1,2.8a43.8,43.8,0,0,1-3.5,16.7,41.7,41.7,0,0,1-18.8,20.9,44.1,44.1,0,0,1-13.2,4.6,41.7,41.7,0,0,1-17.8-.8h-.4a1.8,1.8,0,0,0-2,.1,7.3,7.3,0,0,1-8.2-1.8,7.6,7.6,0,0,1,.4-10.6,7.8,7.8,0,0,1,3.5-1.8,7.4,7.4,0,0,1,8.6,4.9.8.8,0,0,0,.8.7,29,29,0,0,0,5.9.9h2.5a34.3,34.3,0,0,0,12.6-2.7,33.4,33.4,0,0,0,19.2-21.6,31.2,31.2,0,0,0,1.1-5.3,34.3,34.3,0,0,0,.2-6.4,36.8,36.8,0,0,0-2.4-10.3,31.7,31.7,0,0,0-5.4-9,33.8,33.8,0,0,0-8.9-7.5,37.7,37.7,0,0,0-10.3-3.9,39.6,39.6,0,0,0-8.4-.6,32,32,0,0,0-11,2.5,33.8,33.8,0,0,0-19.2,20.7,28.2,28.2,0,0,0-1.4,6.4c-.2,1.2-.2,2.4-.3,3.6v.5a4.9,4.9,0,0,0,.1,1.2c.1.4.5.5.8.8a8.3,8.3,0,0,1,2.4,4,7.5,7.5,0,0,1-1.7,6.3,6.9,6.9,0,0,1-4,2.4,7.3,7.3,0,0,1-9-5.3,7.4,7.4,0,0,1,2-7.2,1.1,1.1,0,0,0,.5-1.2,30.9,30.9,0,0,1,0-4.3,48.1,48.1,0,0,1,1.7-9.2,47,47,0,0,1,2.9-7,38.6,38.6,0,0,1,5.5-8.3,46.2,46.2,0,0,1,9.1-8,39.8,39.8,0,0,1,13.2-5.7,34.5,34.5,0,0,1,5.6-1l1.9-.2c.1,0,.2,0,.2-.1Z" transform="translate(-159.2 -326.5)" style="fill:#02002b"/><path d="M225.3,326.5h.3l2,.2a43.7,43.7,0,0,1,10.1,2.4A33,33,0,0,1,242,331a4.5,4.5,0,0,1-1.2,8.5h-.5a4.8,4.8,0,0,1-2.6-.7,34.2,34.2,0,0,0-6.1-2.2,37,37,0,0,0-5.8-1h-3.6a28.9,28.9,0,0,0-8.8,1.4,32.8,32.8,0,0,0-15.2,9.5,33.6,33.6,0,0,0-8.2,16,33.1,33.1,0,0,0-.6,8.9,29.7,29.7,0,0,0,2.3,10.2,33.7,33.7,0,0,0,18,18.5,31,31,0,0,0,8.4,2.4,10.7,10.7,0,0,0,2.5.3h2.2a33.4,33.4,0,0,0,26.1-12.2,39.2,39.2,0,0,0,4.2-6.4,32.4,32.4,0,0,0,3.1-9.7c.2-1.1.3-2.1.4-3.2a24.4,24.4,0,0,0,.1-2.6c0-.9-.2-3.2-.4-4.8a4.5,4.5,0,0,1,6.5-5,4.3,4.3,0,0,1,2.3,3.2,28.9,28.9,0,0,1,.4,2.9,44.2,44.2,0,0,1,.1,6.3,21.2,21.2,0,0,1-.5,4.4,49.4,49.4,0,0,1-1.8,7.6,41.7,41.7,0,0,1-7.3,12.8,39.7,39.7,0,0,1-10.9,9.5,43.1,43.1,0,0,1-13.4,5.3l-4.9.7a53,53,0,0,1-6.9.1,45.8,45.8,0,0,1-8.1-1.4,43,43,0,0,1-26-20.2,45.3,45.3,0,0,1-4.7-12.7,49.9,49.9,0,0,1-.7-5.4c-.1-1.5-.1-2.9-.1-4.4a34.2,34.2,0,0,1,.4-4.5,45.6,45.6,0,0,1,4.7-14.1,40.8,40.8,0,0,1,4.7-7,42.3,42.3,0,0,1,24.8-14.8,46,46,0,0,1,5.2-.6c.2-.1.4,0,.5-.2Z" transform="translate(-159.2 -326.5)" style="fill:#02002b"/><path d="M233.3,497.5c-.1-.2-.3-.1-.5-.1a14,14,0,0,1-7.8-3.3l-2.2-2.1.7-.9,4.5-4c.1-.1.2-.1.2-.2h.4a10.9,10.9,0,0,0,1.3,1.7,5,5,0,0,0,6.1,1.7,5.9,5.9,0,0,0,2.4-2.3,10.4,10.4,0,0,0,1.4-4.2,3.8,3.8,0,0,0,.1-1.5h-.2a5.7,5.7,0,0,1-2.1,1.3,9.7,9.7,0,0,1-3.4.6,12.6,12.6,0,0,1-7.9-2.5,11.9,11.9,0,0,1-4.2-5.2,14.1,14.1,0,0,1-1.2-7.3,13,13,0,0,1,3-7.8A12.7,12.7,0,0,1,231,457a12.9,12.9,0,0,1,3.9-.4,9.1,9.1,0,0,1,4.2,1.4l.8.5c.2-.1.1-.3.1-.5v-.6c0-.3.1-.4.3-.4h7c.7,0,.7,0,.7.7v25.4A14.1,14.1,0,0,1,237.4,497l-2.4.4c-.1,0-.4-.1-.5.1Zm-4.4-27.2a10.1,10.1,0,0,0,1.2,4.8,6.3,6.3,0,0,0,2.1,2.2,4.6,4.6,0,0,0,5,.3,5.5,5.5,0,0,0,2-1.7,8.7,8.7,0,0,0,1.6-7.6,7.8,7.8,0,0,0-2.4-4.2,4.9,4.9,0,0,0-6.6-.3,8.8,8.8,0,0,0-1.9,2.4,8.6,8.6,0,0,0-1,4.1Z" transform="translate(-159.2 -326.5)" style="fill:#02002b"/><path d="M344.8,483.8h-7.6c-.4,0-.4,0-.4-.4v-1.1c-.3-.1-.3,0-.5.1a7.7,7.7,0,0,1-5,1.8,17.9,17.9,0,0,1-4.6-.4,8.2,8.2,0,0,1-4.1-2.2,7.3,7.3,0,0,1-1.7-3.1,10.2,10.2,0,0,1,0-4.9,8.7,8.7,0,0,1,4.1-5.3,12.3,12.3,0,0,1,5-1.6,25.5,25.5,0,0,1,3.9-.2h2.5c.3,0,.4-.1.3-.4a2.8,2.8,0,0,0-1.8-2.5,2.8,2.8,0,0,0-1.3-.3h-2.1a4.5,4.5,0,0,0-2.7,1.2l-.3.3h-.4l-1.2-.6-4.1-2.4c-.1-.1-.3-.1-.4-.3a17,17,0,0,1,1.9-1.9,15.4,15.4,0,0,1,7.4-2.9,15.8,15.8,0,0,1,6.5.5,8.9,8.9,0,0,1,4.5,2.6,9.2,9.2,0,0,1,1.8,3,2.8,2.8,0,0,1,.1.9c.1.2,0,.4.2.6Zm-8-9.7h0V473c-.1-.3-.1-.3-.5-.4h-4.9a3.4,3.4,0,0,0-1.9.9,2.6,2.6,0,0,0-.7,2.8,2.1,2.1,0,0,0,1.9,1.6,6.1,6.1,0,0,0,4.6-.6,3.1,3.1,0,0,0,1.5-2.6Z" transform="translate(-159.2 -326.5)" style="fill:#02002b"/><path d="M188.5,470.6a13.1,13.1,0,0,1,2.4-8.1,14.2,14.2,0,0,1,7.1-5.2,15.2,15.2,0,0,1,14.1,2.8,12.9,12.9,0,0,1,4.4,7.4,13.4,13.4,0,0,1-2.5,11.3,13.9,13.9,0,0,1-8.3,5.2,21.9,21.9,0,0,1-3.6.3,14.7,14.7,0,0,1-9-3.4,14.1,14.1,0,0,1-4.4-7.5A8.8,8.8,0,0,1,188.5,470.6Zm8-.2v.8a7.3,7.3,0,0,0,1.9,4.6,5.4,5.4,0,0,0,4.9,1.8,5.7,5.7,0,0,0,4.3-2.9,8.8,8.8,0,0,0,1.1-4.5,8.5,8.5,0,0,0-1.2-4.1,5.7,5.7,0,0,0-7.8-2,6.1,6.1,0,0,0-1.7,1.5A8.3,8.3,0,0,0,196.5,470.4Z" transform="translate(-159.2 -326.5)" style="fill:#02002b"/><path d="M262.1,459.3l.6-.4a9.6,9.6,0,0,1,5.4-2.2h2.3a9.9,9.9,0,0,1,3.8.7,7.5,7.5,0,0,1,4.1,3.9,15.8,15.8,0,0,1,1,4.3c.1,1.4.1,2.8.1,4.3v13.5c0,.4,0,.4-.5.4h-7.1c-.3,0-.4,0-.4-.4V469a19.5,19.5,0,0,0-.3-3.4,3.2,3.2,0,0,0-1.2-2,1.5,1.5,0,0,0-.9-.6,5.4,5.4,0,0,0-2.5-.3l-1,.2a4.2,4.2,0,0,0-3.3,3.4,8.2,8.2,0,0,0-.2,2.2v15.1l-.2.2h-7.2c-.6,0-.7,0-.7-.6V458.1c0-1.2-.1-1.1,1.1-1.1h6.2c.8,0,.8,0,.8.8V459A.4.4,0,0,0,262.1,459.3Z" transform="translate(-159.2 -326.5)" style="fill:#02002b"/><path d="M173.7,456.6a14.9,14.9,0,0,1,6.6,1.6,17.5,17.5,0,0,1,3.9,2.8l.3.4c.1.1.1.2,0,.4l-1,.9-3.6,3.2-.6.6c-.2.1-.3.1-.4-.1l-.3-.5a5.3,5.3,0,0,0-3.6-2.4,6.6,6.6,0,0,0-2.8-.1,7.1,7.1,0,0,0-3.4,2.3,8.4,8.4,0,0,0-1.4,4,11.1,11.1,0,0,0,.4,3.6,6.3,6.3,0,0,0,3.1,3.7,5.4,5.4,0,0,0,3.5.6,5.9,5.9,0,0,0,1.9-.5,4.9,4.9,0,0,0,2.4-2.1c.1-.2.1-.4.2-.6h.5l4.8,4.4h.1c.4.3.4.4,0,.7a14,14,0,0,1-3.3,2.7,15.1,15.1,0,0,1-5.8,1.8,14.8,14.8,0,0,1-9-1.8,12.9,12.9,0,0,1-6.6-9.1,16.5,16.5,0,0,1-.4-3.1c.4-5,2.4-8.9,6.8-11.5a11.7,11.7,0,0,1,5.4-1.9Z" transform="translate(-159.2 -326.5)" style="fill:#02002b"/><path d="M315.3,476.4a.6.6,0,0,1,.1.4v5.6a.7.7,0,0,1-.5.8,8.8,8.8,0,0,1-5.5,1,10.9,10.9,0,0,1-2.5-.4,7,7,0,0,1-5.1-4.9c-.3-1-.5-2.1-.7-3.1a20.2,20.2,0,0,1-.1-3.5v-8.1c0-.5,0-.5-.6-.5h-2.1c-.2,0-.3,0-.3-.3v-6.1l.2-.2h1.2a1.1,1.1,0,0,0,1.6-1.6v-5.8a.3.3,0,0,1,.3-.3h7.4a.3.3,0,0,1,.3.3v6.6c0,.8,0,.8.8.8H315c.3,0,.4.1.4.4v5.8c0,.4-.1.4-.4.4h-5.3c-.7,0-.7,0-.7.6v9.3a8.8,8.8,0,0,0,.2,1.6h0a2.8,2.8,0,0,0,3.2,2.4h.3a4.6,4.6,0,0,0,1.9-.8Z" transform="translate(-159.2 -326.5)" style="fill:#02002b"/><path d="M293.3,470.4v12.5c0,1,.1.9-.9.9h-6.9a.2.2,0,0,1-.2-.2h0a1.3,1.3,0,0,1-.1-.6V457.8c0-.8,0-.8.9-.8H293a.3.3,0,0,1,.3.3Z" transform="translate(-159.2 -326.5)" style="fill:#02002b"/><path d="M288.9,453.4a4.1,4.1,0,0,1-3.8-3.1,3.8,3.8,0,0,1,1-3.8,4.5,4.5,0,0,1,5.9-.2,3.7,3.7,0,0,1,.7,5.3l-.3.4A5,5,0,0,1,288.9,453.4Z" transform="translate(-159.2 -326.5)" style="fill:#02002b"/></svg>