<svg xmlns="http://www.w3.org/2000/svg" viewBox="0 0 127.5 303.4"><rect width="127.5" height="303.43" style="fill:#1e2e33"/><path d="M307,175v1.6h-2.9c-.5.4,0,1-.3,1.5h-1.4v-2.9a3.9,3.9,0,0,0-1.5-.1c-.3.4,0,1-.2,1.5h-1.4v3.1h4.4c.3.5.1.9.2,1.3s-.1.2-.2.2h-9c-.3-.4-.1-.9-.1-1.4h2.9c.3-.6.1-1.1.2-1.5s-1,0-1.5-.3v-2.8c.4-.4.9.1,1.4-.3v-2.8c-.4-.3-.8-.1-1.3-.1s0,.9-.3,1.4-.9,0-1.4.1v-3.2c-.6.2-1.1-.1-1.5.2v1.4a2.9,2.9,0,0,1-1.6-.1v-2.9h-1.5v-1.5c.6-.3,1.1.1,1.6-.3s.1-.9-.2-1.3-.9.2-1.4-.2v-2.3a7.9,7.9,0,0,1,.1-2.2h1.5v3.1h3.1a3.8,3.8,0,0,0,0,1.5c.3.4,1.1-.2,1.5.2v1.4h-1.5a3.2,3.2,0,0,0,.1,1.4h1.4v-1.5h4.7v-3.1c.6-.1,1,.1,1.5-.1s-.2-1.1.2-1.4h1.4v1.5h1.5c.1,1,.1,2,.1,3.2s1,.1,1.4-.2v-2.9h-1.5v-1.5h-1.5v-3.1c-.6,0-1.1-.2-1.6.1a2.3,2.3,0,0,1-.2,1.4c-.4-.2-.9.3-1.4-.3v-2.7c-.5-.3-1.1.1-1.5-.3v-1.4h2.9c.5.5,0,1,.3,1.5h3v3.2h1.4c.4.4,0,.9.3,1.4s.8.1,1.4.1v-2.9c-.4-.4-1,0-1.5-.3v-2.7c-.5-.5-1-.1-1.5-.3V155h2.9c.4.3,0,.9.2,1.4h2.9v3.1h-1.3v4.3c-.5.6-1.1.1-1.6.4v4.5h2.9a3.5,3.5,0,0,1,.1,1.4c-.4.4-1,0-1.5.4v2.8c-.6.2-1.1,0-1.6.1v-3c-.6-.1-1.1-.2-1.5.1v2.9c-.5.1-1-.1-1.6.1v.8c0,.2,0,.5.2.6Zm-3.1-6.1h-2.3a8.9,8.9,0,0,0-2.3,0v4.6h4.6Zm-1.5-1.5c.6-.2,1,.1,1.4-.2a2,2,0,0,0-.1-1.5c-.5.1-.9-.1-1.3.2Z" transform="translate(-187.5 -7.1)" style="fill:#283c44"/><path d="M286.8,154.9v1.5H293v4.7h-1.5v-3.2c-.6.2-1.1-.1-1.5.2s.2,1-.3,1.4h-1.4v-1.4a2.2,2.2,0,0,0-1.4,0v1.4h1.4c0,.6.2,1.1,0,1.6h-3.1V158h-3a2.4,2.4,0,0,0,.1,1.5c.2.4.9-.1,1.4.2s.2.9-.2,1.5h-2.8v1.5h3a3.1,3.1,0,0,1-.1,1.4c-.2.4-1-.1-1.4.3v1.3c-.5.1-1.1-.1-1.5.2a1.7,1.7,0,0,0,.1,1.4h1.4a9.2,9.2,0,0,1-.1,1.6h-1.6c.3.5-.1,1,.3,1.4h1.3v-1.4h1.6v-1.6h1.4c.3-.6-.1-1.1.4-1.6s.8-.1,1.2.2-.1,1,.3,1.4.9-.1,1.3.1-.2,1,.3,1.5h1.3v1.3c-.5.4-1.1,0-1.5.4s-.1.8-.1,1.4h-1.5v-1.4a2.6,2.6,0,0,0-1.5,0v1.4h1.5a4.5,4.5,0,0,1-.1,1.6h-1.3c-.3.5.1,1.1-.4,1.6h-2.9c.2.5-.2,1,.3,1.5h1.3a6.1,6.1,0,0,0,.1,1.4h1.5v3.1h-1.5c-.3-.4.1-1-.3-1.5h-2.9v-1.4c-.4-.4-1,0-1.5-.3v-2.8c.4-.4.9,0,1.4-.2s0-1,.1-1.5h1.6c-.2-.6.2-1-.2-1.5h-1.3a7.6,7.6,0,0,1-.1,1.5h-1.5c-.1-1,0-2,0-3s0-2,0-3-1.1-.1-1.6-.2v-1.5c.5-.1,1,.1,1.5-.1s.2-1-.1-1.5h-1.4v-1.5h1.6v-3.2c.5,0,1,.2,1.5-.1s.2-1-.2-1.4h-1.3v-1.6h-4.7v-3H276c0,.4-.2,1,.1,1.5s2,.1,3-.1v-3h3.1a8.6,8.6,0,0,1-.1,1.6h-1.4v3h1.4v-3h3.2a7.6,7.6,0,0,1-.1,1.5h-1.6c.3.6-.1,1.1.2,1.5h1.4v-1.5Z" transform="translate(-187.5 -7.1)" style="fill:#283c44"/><path d="M297.7,156.4V155h-3.1v-2.9c-.5-.6-1-.1-1.5-.4v3a2.2,2.2,0,0,1-1.6.1v-4.4c.4-.4,1,0,1.5-.3v-3c.5,0,1,.2,1.5-.1a1.7,1.7,0,0,0-.1-1.4H293V144h3.1v-3.1h1.6v1.4c.4.4.9,0,1.4.3s0,.8.2,1.2-1.1.1-1.5.3-.1,1-.2,1.5h-1.4a2.6,2.6,0,0,0,0,1.5h1.4v-1.5h1.5a13.8,13.8,0,0,1,.1,2.9c-.4.3-.9.1-1.3.2s-.2.9-.2,1.5h2.9c.4-.4,0-1,.3-1.4s.8-.1,1.2-.1,0,1,.4,1.5h2.9v2.9c-.4.4-.9.2-1.4.2s-.1-.9-.1-1.4-1-.1-1.5-.1v3h-3c-.3.6-.1,1.1-.2,1.6Zm3-4.5h-4.5a1.7,1.7,0,0,0,.1,1.4h4.4Zm-4.6-3.2a3.5,3.5,0,0,0-1.5.1c0,.5-.2,1,.1,1.4s.9.2,1.4-.1Z" transform="translate(-187.5 -7.1)" style="fill:#283c44"/><path d="M266.9,136.3h10.5v10.7H266.9A64.9,64.9,0,0,1,266.9,136.3Zm9,9.3v-7.8h-7.6v7.7Z" transform="translate(-187.5 -7.1)" style="fill:#283c44"/><path d="M300.8,147.1V136.3h10.8v10.7Zm9.2-1.5v-7.8h-7.6v7.6Z" transform="translate(-187.5 -7.1)" style="fill:#283c44"/><path d="M277.5,170.5v10.7H266.7V170.5Zm-1.6,1.5h-7.7c0,2.6-.1,5.2.1,7.6h7.6Z" transform="translate(-187.5 -7.1)" style="fill:#283c44"/><path d="M289.9,178.1h-1.3c-.5-.5-.1-1-.3-1.5s-1,0-1.5-.1v-1.4c.6-.3,1.2.1,1.6-.4v-1.3h6.2v2.9c-.4.4-1,0-1.5.3v2.7c-.5.5-1.1.1-1.5.4s0,.8-.2,1.3-.9.1-1.5.1v-3.1h1.5a1.7,1.7,0,0,0-.1-1.4H290A6.1,6.1,0,0,1,289.9,178.1Z" transform="translate(-187.5 -7.1)" style="fill:#283c44"/><path d="M293,144h-2.9c-.4-.4,0-.9-.3-1.5h-2.7c-.5-.5-.1-1-.4-1.5h-1.3c-.3-.4,0-.9-.2-1.3s1,0,1.6-.3v-2.8a2,2,0,0,1,1.5-.1v2.8c.5.4,1.1,0,1.6.4v1.3h4.7c-.1.5.1,1.1-.1,1.5s-1.1-.2-1.5.3Z" transform="translate(-187.5 -7.1)" style="fill:#283c44"/><path d="M269.8,167.3v-2.9c.4-.4.9-.2,1.4-.2s0,.9.1,1.4.9.1,1.5.1v-2.8c.5-.5,1-.1,1.5-.3s0-1,.1-1.5h3.1v1.6a3.8,3.8,0,0,0-1.5,0c0,.6-.2,1.1.1,1.5h1.4v1.5h-2.9c-.4.4,0,1-.3,1.5s-.8,0-1.4.2.1.9-.1,1.3-.9.1-1.3.2,0-1-.3-1.5S270.3,167.4,269.8,167.3Z" transform="translate(-187.5 -7.1)" style="fill:#283c44"/><path d="M293,161.1h1.4c.4-1,0-2,.2-3s.9,0,1.3-.1,0-1,.3-1.5,1,0,1.5-.1v3c-.6.3-1.2-.1-1.6.4s-.2.8.2,1.3h2.8v3.1a2.8,2.8,0,0,1-1.3-.1c-.4-.2.1-1-.3-1.4h-1.3c-.3.5.2,1.1-.3,1.5h-1.3c-.1-.5.1-1-.1-1.5s-1.1.2-1.5-.2Z" transform="translate(-187.5 -7.1)" style="fill:#283c44"/><path d="M294.6,139.4h-1.4c-.4-.4,0-1-.3-1.5s-.8,0-1.3-.1-.1-.9-.1-1.5h7.7v4.5c-.5.3-1,.1-1.5.1v-3.1a29.1,29.1,0,0,0-3.1.1Z" transform="translate(-187.5 -7.1)" style="fill:#283c44"/><path d="M283.7,147.1h1.4c.4-.4,0-.9.2-1.4s.9-.1,1.3-.1.2.3.2.5v7.3h-1.5c-.1-.6.1-1.1-.1-1.5s-1.1.2-1.5-.3Z" transform="translate(-187.5 -7.1)" style="fill:#283c44"/><path d="M268.2,156.4v-1.3c-.4-.5-.9,0-1.5-.3a3.3,3.3,0,0,1,0-1.4h4.6v1.5c-.5.1-1-.1-1.5.1s.2,1-.2,1.4Z" transform="translate(-187.5 -7.1)" style="fill:#283c44"/><path d="M291.5,147.1v1.4c-.5.4-1,0-1.5.3v1.3a3,3,0,0,1-1.6.1v-4.5a2,2,0,0,1,1.5,0v1.4Z" transform="translate(-187.5 -7.1)" style="fill:#283c44"/><path d="M274.4,150.2v-1.5h4.7v3.1h-1.6v-1.6Z" transform="translate(-187.5 -7.1)" style="fill:#283c44"/><path d="M282.2,140.9h1.5v3c-.4.4-1,0-1.5.3v1.4h-1.6v-3.1h1.6Z" transform="translate(-187.5 -7.1)" style="fill:#283c44"/><path d="M279.1,148.7v-3.1h1.5v1.5h1.6v3.1a2.4,2.4,0,0,1-1.5-.1c-.2-.5.2-1-.3-1.4Z" transform="translate(-187.5 -7.1)" style="fill:#283c44"/><path d="M310.1,151.7v-1.3c-.4-.4-1,0-1.5-.2a3.8,3.8,0,0,1,0-1.5h2.9v3Z" transform="translate(-187.5 -7.1)" style="fill:#283c44"/><path d="M274.4,158h-3.1v-3.1c.5.1,1-.1,1.5.1s-.2,1,.3,1.4h1.3Z" transform="translate(-187.5 -7.1)" style="fill:#283c44"/><path d="M271.3,151.8h-1.5v-3h3.1v1.4h-1.6Z" transform="translate(-187.5 -7.1)" style="fill:#283c44"/><path d="M280.7,139.3h-1.6v-2.9h3c.2.4,0,.8.1,1.3s-1,0-1.5.2Z" transform="translate(-187.5 -7.1)" style="fill:#283c44"/><ellipse cx="89.2" cy="151.7" rx="3.3" ry="1.1" style="fill:#283c44"/><path d="M286.8,153.4h2.9c.4.4.2.9.2,1.5h-3.1Z" transform="translate(-187.5 -7.1)" style="fill:#283c44"/><path d="M271.3,158v1.5c-1,.2-2,0-3,.1s0-1.1-.1-1.6Z" transform="translate(-187.5 -7.1)" style="fill:#283c44"/><path d="M266.7,162.6v-1.4h2.9c.3.3.1.8.1,1.4Z" transform="translate(-187.5 -7.1)" style="fill:#283c44"/><path d="M310.1,178.1v-3h1.4v3Z" transform="translate(-187.5 -7.1)" style="fill:#283c44"/><path d="M310.1,153.4h-2.9c-.4-.5-.2-1-.2-1.6h3.1Z" transform="translate(-187.5 -7.1)" style="fill:#283c44"/><path d="M310.1,178.2v2.9c-.5.3-1,.1-1.6.1v-3Z" transform="translate(-187.5 -7.1)" style="fill:#283c44"/><path d="M280.6,140.9v-1.5h1.6v1.5Z" transform="translate(-187.5 -7.1)" style="fill:#283c44"/><path d="M280.6,142.5h-1.3c-.5-.4-.1-1-.3-1.4s1.1-.1,1.6-.2Z" transform="translate(-187.5 -7.1)" style="fill:#283c44"/><path d="M274.4,161.1H273c-.3-.5-.1-.9-.1-1.4s1-.1,1.5-.2Z" transform="translate(-187.5 -7.1)" style="fill:#283c44"/><path d="M282.2,145.6h1.5v1.5h-1.5Z" transform="translate(-187.5 -7.1)" style="fill:#283c44"/><path d="M293,147.1h-1.5v-1.5H293Z" transform="translate(-187.5 -7.1)" style="fill:#283c44"/><path d="M268.2,164.1v1.5c-.5.3-.9,0-1.3.2a1.3,1.3,0,0,1-.2-1.3C266.8,164.2,267.6,164.3,268.2,164.1Z" transform="translate(-187.5 -7.1)" style="fill:#283c44"/><path d="M268.2,148.7v1.4c-.5.3-.9.1-1.4.1s-.1-.9-.1-1.4A3.5,3.5,0,0,1,268.2,148.7Z" transform="translate(-187.5 -7.1)" style="fill:#283c44"/><path d="M269.7,167.4v1.4h-1.4a2.2,2.2,0,0,1,0-1.4Z" transform="translate(-187.5 -7.1)" style="fill:#283c44"/><path d="M305.5,150.2v-1.5h1.4a2.6,2.6,0,0,1,0,1.5Z" transform="translate(-187.5 -7.1)" style="fill:#283c44"/><path d="M272.9,150.2h1.5v1.6h-1.5Z" transform="translate(-187.5 -7.1)" style="fill:#283c44"/><path d="M271.3,153.4v-1.6h1.6v1.6Z" transform="translate(-187.5 -7.1)" style="fill:#283c44"/><path d="M310.1,153.4h1.5v1.4a2.6,2.6,0,0,1-1.5,0Z" transform="translate(-187.5 -7.1)" style="fill:#283c44"/><path d="M277.5,167.4v1.4h-1.4c-.4-.4,0-.9-.2-1.4Z" transform="translate(-187.5 -7.1)" style="fill:#283c44"/><path d="M308.5,173.5V175H307v-1.5Z" transform="translate(-187.5 -7.1)" style="fill:#283c44"/><path d="M294.6,140.9v-1.5h1.5v1.5Z" transform="translate(-187.5 -7.1)" style="fill:#283c44"/><circle cx="98.5" cy="170.3" r="1.1" style="fill:#283c44"/><path d="M307,178.2v-1.6h1.5v1.6Z" transform="translate(-187.5 -7.1)" style="fill:#283c44"/><path d="M306.9,178.2v1.5h-1.4a2.6,2.6,0,0,1,0-1.5Z" transform="translate(-187.5 -7.1)" style="fill:#283c44"/><path d="M268.2,158h-1.3c-.5-.4-.1-1-.3-1.4s1.1-.1,1.6-.2Z" transform="translate(-187.5 -7.1)" style="fill:#283c44"/><path d="M285.2,136.2v1.5c-.4.3-.8.1-1.3.1a.9.9,0,0,1-.1-1.2C283.9,136.3,284.6,136.4,285.2,136.2Z" transform="translate(-187.5 -7.1)" style="fill:#283c44"/><path d="M280.6,179.8v1.4h-1.4c-.3-.4,0-.9-.2-1.4Z" transform="translate(-187.5 -7.1)" style="fill:#283c44"/><path d="M288.5,181.2H287c-.3-.4-.1-.9-.2-1.3a1.7,1.7,0,0,1,1.4-.1C288.5,180.2,288.3,180.6,288.5,181.2Z" transform="translate(-187.5 -7.1)" style="fill:#283c44"/><path d="M288.4,164.2H287c-.3-.5-.1-.9-.2-1.4s1-.1,1.4-.1S288.3,163.6,288.4,164.2Z" transform="translate(-187.5 -7.1)" style="fill:#283c44"/><path d="M283.7,167.3h-1.5v-1.6h1.5Z" transform="translate(-187.5 -7.1)" style="fill:#283c44"/><path d="M300.6,170.4h1.6a3.3,3.3,0,0,1,.1,1.4c-.4.3-.9.1-1.4.1S300.9,171,300.6,170.4Z" transform="translate(-187.5 -7.1)" style="fill:#283c44"/><circle cx="89.2" cy="145.5" r="1.1" style="fill:#283c44"/><path d="M274.4,139.5V144h-4.6v-4.5Z" transform="translate(-187.5 -7.1)" style="fill:#283c44"/><path d="M308.5,144h-4.6v-4.5h4.6Z" transform="translate(-187.5 -7.1)" style="fill:#283c44"/><path d="M274.4,173.6v4.5h-4.6v-4.5Z" transform="translate(-187.5 -7.1)" style="fill:#283c44"/><path d="M232.6,150.5c1.6.8,2.4,1.9,2.3,3.5a3.9,3.9,0,0,1-3.1,3.3l1.2.6a3.5,3.5,0,0,1,1.1,3.6,3.2,3.2,0,0,1-2.9,2.3c-.6.1-.6,0-.6.7v6.6a5.1,5.1,0,0,1-3.9,4.9l-.8.2h-1.7a.7.7,0,0,0-.8.4h0a13.8,13.8,0,0,1-3.9,4.1,30.6,30.6,0,0,1-5.7,2.9,9,9,0,0,0-2.4,1.2,1,1,0,0,1-1.2-.3,1.1,1.1,0,0,1,0-.8c.1-.3.3-.3.5-.5a17.7,17.7,0,0,1,3.1-1.5l3.9-1.8a13.3,13.3,0,0,0,3.7-3.4c.1,0,.2-.2.2-.3H206a5.4,5.4,0,0,1-5.1-4.3V144.3a6.3,6.3,0,0,1,0-1.4v-1.3a3.2,3.2,0,0,0-.3-1.4,1.6,1.6,0,0,0-1.5-.9,1.5,1.5,0,0,0-1.3,1.2,6.9,6.9,0,0,0-.2,1.3,29,29,0,0,1-.9,5.9c-.1.3-.3.6-.2.9s-.1.3-.2.4l-.2.2c-.8,2.6-2,5.1-2.8,7.6a9.5,9.5,0,0,0-.5,2.3,7.2,7.2,0,0,0,.6,2.9,56.2,56.2,0,0,1,1.5,5.5,14.3,14.3,0,0,1,.3,2.9c0,.2.1.3.3.4l1.5,1.7,3.6,3.9,7.6,8.2,2.2,2.4c.7.6.6,1.1,0,1.6l-2.6,2.5a1,1,0,0,1-1.3,0h0a.9.9,0,0,1,.1-1.3h0a15.4,15.4,0,0,1,1.9-1.7c.2-.2.2-.4,0-.7l-4.6-4.9-5.2-5.7-3-3.2-1.2-1.3q-.3-.5-.6,0l-5,4.4a.9.9,0,0,1-1.2-.1.9.9,0,0,1,.1-1.3h0l3.3-2.9,2.2-1.9a.8.8,0,0,0,.2-.6,16.9,16.9,0,0,0-.7-3.8c-.4-1.6-.9-3.1-1.4-4.6a7.7,7.7,0,0,1,.1-4.5,31.3,31.3,0,0,1,1.9-5.1,40.6,40.6,0,0,0,1.9-5.9,16.6,16.6,0,0,0,.7-4.9,3.6,3.6,0,0,1,1.4-2.9,3.1,3.1,0,0,1,3.2-.3c.3.2.3.2.3-.3v-6.3a5,5,0,0,1,4.9-5h19.7a5.1,5.1,0,0,1,5.1,4.5v2.1c0,.3,0,.4.3.2a3.5,3.5,0,0,1,3.6,6l-3.6,2.3a.6.6,0,0,0-.3.6v1.2c0,.4,0,.4.4.3a3.3,3.3,0,0,1,4.4,1.7.1.1,0,0,1,.1.1,3.6,3.6,0,0,1-1.6,4.5Zm-4.8.9h-.2a3.4,3.4,0,0,1-.9-4.8l.3-.5a4.2,4.2,0,0,1,1.2-.8,1.1,1.1,0,0,0,.7-1.2V133.2c0-.5,0-.5-.5-.5H203c-.4,0-.4,0-.4.5v31.9c0,.5,0,.5.5.5h25.5a.3.3,0,0,0,.3-.3v-1a.6.6,0,0,0-.4-.7,2.7,2.7,0,0,1-1.8-1.5q-.3-.4-.6-.3h-2.7a.9.9,0,0,1-.8-.8.9.9,0,0,1,.7-1h2.5c.3,0,.5,0,.6-.3a3.1,3.1,0,0,1,.5-1.2c.3-.3.3-.3-.2-.6a3.4,3.4,0,0,1-1.5-4.6,1.6,1.6,0,0,1,.6-.8A3.6,3.6,0,0,1,227.8,151.4Zm-12.1,15.9H203c-.3,0-.4.1-.4.5v3a4.7,4.7,0,0,0,.3,1.7,3.2,3.2,0,0,0,3.1,1.9h19.5a3.4,3.4,0,0,0,3.4-3.4c-.1-1.1,0-2.2-.1-3.2s0-.6-.5-.6Zm0-36.4h12.8c.4,0,.4,0,.3-.4a3.5,3.5,0,0,0-3.3-2.6H206a3.4,3.4,0,0,0-3.3,2.5c-.1.5-.1.5.5.5Zm18.4,15.9a1.8,1.8,0,0,0-1.7-1.9l-.9.2-3,1.8a1.9,1.9,0,0,0-.7,1.7,1.7,1.7,0,0,0,1.9,1.6l.7-.3,3-1.9a1.9,1.9,0,0,0,.7-1.2Zm-2.7,5.3h-.3a20.8,20.8,0,0,0-3.5,1.1,1.7,1.7,0,0,0,.9,3.2l3.6-1a1.9,1.9,0,0,0,1.2-2.2,1.8,1.8,0,0,0-1.9-1.2Zm-.8-14.7v1.8c0,.3,0,.3.3.2l2.7-1.7a1.9,1.9,0,0,0,.6-2.4.1.1,0,0,1-.1-.1,1.8,1.8,0,0,0-2.4-.6h-.2l-.6.4c-.3.1-.3.3-.3.6Zm-.4,24.7h.8a1.6,1.6,0,0,0,0-3.2h-1.6a1.5,1.5,0,0,0-1.5,1.4,1.9,1.9,0,0,0,1.2,1.8Z" transform="translate(-187.5 -7.1)" style="fill:#283c44"/><path d="M193.7,176.4a1.5,1.5,0,0,1,1.4,1.5,1.5,1.5,0,0,1-1.4,1.3,1.3,1.3,0,0,1-1.4-1.4,1.4,1.4,0,0,1,1.4-1.4Z" transform="translate(-187.5 -7.1)" style="fill:#283c44"/><path d="M221.9,147.6h-2.2c-.3,0-.4-.1-.4-.4v-4.4c-.1-.3.1-.5.4-.5h4.6c.2,0,.2.2.2.3V147c0,.5,0,.5-.5.5Zm0-3.7h-.8a.3.3,0,0,0-.3.3v1.6c0,.1.1.2.3.2h1.6a.2.2,0,0,0,.2-.2v-1.6a.3.3,0,0,0-.3-.3Z" transform="translate(-187.5 -7.1)" style="fill:#283c44"/><path d="M213.1,145v2.2c0,.3-.1.4-.4.4h-4.4c-.3,0-.4-.1-.4-.4v-4.5c0-.4.2-.4.4-.4h4.4a.5.5,0,0,1,.4.5Zm-2.6-1.1c-1,0-1,0-1,1.1s0,1,1,1,1,0,1-1.1S211.5,143.9,210.5,143.9Z" transform="translate(-187.5 -7.1)" style="fill:#283c44"/><path d="M210.5,152.5h2.1c.3,0,.5,0,.5.4v4.4c0,.3-.2.3-.5.3h-4.3c-.3,0-.4,0-.4-.3v-4.5c0-.3.1-.3.4-.3Zm-1,2.6v.6c-.1.3.1.4.4.4h.6c1.2,0,1,.1,1-1s0-1.1-1-1.1-1,0-1,1.1Z" transform="translate(-187.5 -7.1)" style="fill:#283c44"/><path d="M217.9,144.4v1.8c0,.3-.1.4-.4.3h-1.1c-.3,0-.4.2-.4.5v3.2c0,.5,0,.5-.5.5h-2.9c-.3,0-.4,0-.4-.4a1.1,1.1,0,0,0,0-.8c0-.3.1-.3.4-.3h1.5c.3,0,.3-.1.3-.4v-3.3c0-.5,0-.5.5-.5H216a.3.3,0,0,0,.3-.3v-2c0-.3.1-.4.4-.4h.8c.3,0,.4.1.4.3Z" transform="translate(-187.5 -7.1)" style="fill:#283c44"/><path d="M206.4,161.8h-1.6a.9.9,0,0,1-.9-.9h0v-3.4a.8.8,0,0,1,.7-.8h.2a.8.8,0,0,1,.8.8h0v1.9c0,.5,0,.5.5.5H208a1,1,0,0,1,1,.8c0,.4-.3.9-.7.9h-1.9Z" transform="translate(-187.5 -7.1)" style="fill:#283c44"/><path d="M203.9,140.8v-1.5a.8.8,0,0,1,.8-.9h3.2c.8,0,1.1.4,1,.9a.8.8,0,0,1-.8.7H206c-.3,0-.4.2-.4.5v1.9c0,.6-.3.9-.8.9a.8.8,0,0,1-.9-.7h0v-1.7Z" transform="translate(-187.5 -7.1)" style="fill:#283c44"/><path d="M227.3,140.8v1.7a.8.8,0,0,1-.9.7.8.8,0,0,1-.8-.7v-2c0-.3-.1-.5-.4-.5h-1.8c-.4.1-.8-.3-.9-.7h0a.8.8,0,0,1,.8-.9h3.1a.8.8,0,0,1,.9.9v1.5Z" transform="translate(-187.5 -7.1)" style="fill:#283c44"/><path d="M214.7,156.2v-1.4c0-.3.1-.4.4-.4h2c.3,0,.4-.1.4-.4v-.9l.2-.2h1.2l.2.2v2.6c0,.2-.2.3-.4.3h-2c-.3-.1-.5.1-.5.4a5.3,5.3,0,0,0,.1,1.2c.1.5-.1.4-.4.4h-.8c-.3,0-.4-.1-.4-.4Z" transform="translate(-187.5 -7.1)" style="fill:#283c44"/><path d="M221.6,152.2h-1.4a.4.4,0,0,1-.4-.4v-1c0-.2,0-.4-.3-.4h-1.8c-.3,0-.3,0-.3-.3v-.9c0-.2,0-.3.3-.3h3.4a.3.3,0,0,1,.3.3v1c-.1.3.1.4.4.4h1.1c.2,0,.4.1.4.3s.2,1.2-1.2,1.3Z" transform="translate(-187.5 -7.1)" style="fill:#283c44"/><path d="M222.6,157.7h-1.4c-.3,0-.4-.1-.4-.3v-1a.3.3,0,0,1,.3-.3h1.4c.3,0,.3,0,.3-.3v-1.1a.4.4,0,0,1,.4-.4h.9a.3.3,0,0,1,.3.3v2.8a.3.3,0,0,1-.3.3Z" transform="translate(-187.5 -7.1)" style="fill:#283c44"/><path d="M208.7,150.7c-1.1,0-.9.1-.9-.9v-.2c0-.5,0-.5.4-.5h.9c.3,0,.5.1.5.4a1.1,1.1,0,0,0,0,.8c0,.3-.2.4-.5.4Z" transform="translate(-187.5 -7.1)" style="fill:#283c44"/><path d="M216.2,168.7a1.8,1.8,0,0,1,1.8,1.7v.2a1.9,1.9,0,0,1-1.8,1.8,1.8,1.8,0,0,1-1.8-1.8h0a1.7,1.7,0,0,1,1.6-1.8Z" transform="translate(-187.5 -7.1)" style="fill:#283c44"/><path d="M255.7,157.1l-1.9-1.6-.5-.5a1.7,1.7,0,0,1-.3-2.4,1.7,1.7,0,0,1,2.4-.2l2.5,2.2,4.3,3.7c.4.4.4.6,0,1l-6.7,5.8a1.7,1.7,0,1,1-2.2-2.5l2.2-2H239a1.7,1.7,0,0,1,.1-3.4h16.6Z" transform="translate(-187.5 -7.1)" style="fill:#283c44"/></svg>