<svg xmlns="http://www.w3.org/2000/svg" viewBox="0 0 500 500"><path d="M499.5,254.7c0,138.7-113.4,250.3-250.7,249.9C113.2,504.3-.6,394.3-.5,254.5S113.4,4.4,249.8,4.6,499.6,116.8,499.5,254.7Zm-3,0c0-136-110.4-246.4-245.7-247S3.2,117.7,2.5,253.3s110,247.1,244.7,248.3C383.7,502.8,496.4,392.1,496.5,254.7Z" transform="translate(0.5 -4.6)" style="fill:#1a68b3"/><path d="M441.4,254.5c0,106.5-87,192.9-193.5,192C142,443.4,58.6,355,61.7,249.1A192,192,0,0,1,251,62.8C356.5,63.5,441.4,149.6,441.4,254.5Zm-380.7-.2c0,103.6,83.5,188.2,187.2,189,105.9.9,189.3-84.8,190.3-186.8C439.2,152,354.5,66.2,250,65.9S61.2,149.5,60.7,253.6v.7Z" transform="translate(0.5 -4.6)" style="fill:#1a67b3"/><path d="M44.2,300.6a5.7,5.7,0,0,1,5.5,3.5,16.9,16.9,0,0,1,1.2,2.8l4.5,14.2c.4,1.5.8,2.9,1.1,4.4a15.1,15.1,0,0,1,.2,3,6.5,6.5,0,0,1-2.7,5.3,7.6,7.6,0,0,1-1.9,1.2,44.9,44.9,0,0,1-13.4,3.9c-4.3.4-6.3-.7-8.3-4.5l-.8-1.8c-2.1-5.7-4-11.5-5.5-17.3a19.3,19.3,0,0,1-.4-4.2,5.5,5.5,0,0,1,2.8-5,12.6,12.6,0,0,1,3.3-1.6c.7-.2.9-.1,1.1.6l1.8,5.5c.6,1.8.3,1.7-.8,2.2a1.7,1.7,0,0,0-.7,1.7,5.8,5.8,0,0,0,.3,1.9l3,10c1.2,3.8,2.3,4.5,6.1,3.5a36.8,36.8,0,0,0,4.7-1.5,7.8,7.8,0,0,0,2.1-.9,3.3,3.3,0,0,0,1.7-4,10.5,10.5,0,0,0-.6-2.4l-2.4-7.8a10.2,10.2,0,0,0-1.3-2.8,2.9,2.9,0,0,0-3-1.1c-1.1.3-1.1.6-.9,1.4.9,2.7,1.7,5.4,2.6,8.1.3.9.2,1.1-.6,1.3-4.9,1.6-3.8,2.1-5.3-2.5s-2.7-8.4-4-12.6l-.3-1.2a.9.9,0,0,1,.3-.6C36.9,302.2,40.2,300.7,44.2,300.6Z" transform="translate(0.5 -4.6)" style="fill:#ed1f24"/><path d="M145.4,44.3l3.6-1.4,7.2-2.9a3.2,3.2,0,0,1,3,.3l16,9.1L180,52c.6-.4.2-.7.1-1.1-2.1-5.1-4.1-10.3-6.2-15.5l-.7-1.8c.4-.6,1-.7,1.5-1l4.6-1.8c1-.4,1.2-.3,1.7.8l.3.7c2.9,7.2,5.8,14.5,8.6,21.8l.6,1.4a.6.6,0,0,1-.3.8h-.1l-.9.4-9.7,3.9a2.5,2.5,0,0,1-2.5-.2L159.2,50.3l-3.4-1.9c-.4.7,0,1.1.2,1.6,1.9,4.9,3.9,9.8,5.8,14.8a14.6,14.6,0,0,1,.7,1.9.6.6,0,0,1-.3.8h0L155.9,70c-.3.1-.6-.1-.8-.5a5,5,0,0,1-.5-1.3c-3-7.4-5.9-14.7-8.8-22.1A3.4,3.4,0,0,1,145.4,44.3Z" transform="translate(0.5 -4.6)" style="fill:#ed1f24"/><path d="M342.6,39.7l10.7,5.8a1.5,1.5,0,0,1,1.1,1.5c.4,2.4.9,4.8,1.3,7.1,1.1,5.7,2.1,11.3,3.2,17h.1c.7.1.8-.6,1-1l7.7-14.2c1.3-2.4,1-2.2,3.2-1l4,2.1c.9.5.9.6.4,1.5-2.2,4.2-4.4,8.4-6.7,12.6s-3.5,6.6-5.3,9.8c-.5.9-.7,1-1.6.5L352,76.2a2.2,2.2,0,0,1-1.4-1.9c-.7-4.4-1.6-8.8-2.4-13.2s-1.3-7.2-2-10.8c-.8-.1-.8.5-1,.9l-7.6,14a7.7,7.7,0,0,1-1,1.8.8.8,0,0,1-.7.5l-.3-.2-6-3.2c-.1-.3-.2-.3-.2-.4s0-.2.1-.2c4.1-7.7,8.2-15.4,12.4-23.1l.4-.6Z" transform="translate(0.5 -4.6)" style="fill:#ed1f24"/><path d="M60.9,153.2l-2.2-1.1-13.3-6.3-1.8-.9a.6.6,0,0,1-.4-.7V144h0a14.2,14.2,0,0,1,.8-1.8l1.5-3.2c.7-1.5.8-1.5,2.2-.8l8.5,4,12.9,6.1.9.4c1.2.6,1.3.7.7,1.9s-.1.4-.3.6c-1.3,2.9-2.7,5.7-4,8.6a3.3,3.3,0,0,1-2.7,2.2l-19.1,4.6-4.4,1a38.9,38.9,0,0,0,6.1,3.1l5.9,2.8,6,2.8c.2.9-.4,1.5-.6,2.2a31.3,31.3,0,0,1-2.2,4.5.8.8,0,0,1-.7.5l-.3-.2-.9-.4L31.5,172.5l-1-.5a.9.9,0,0,1,0-1c1.6-3.3,3.2-6.6,4.7-10a3,3,0,0,1,2.2-1.7l22-5.3C59.9,153.9,60.6,153.9,60.9,153.2Z" transform="translate(0.5 -4.6)" style="fill:#ed1f24"/><path d="M481,275a29.6,29.6,0,0,1-.5,5.2c-.4,4.6-1.2,9.2-2,13.8a16.8,16.8,0,0,1-1.7,4.9,6.6,6.6,0,0,1-4.6,3.5,29.7,29.7,0,0,1-4.2.3,64.1,64.1,0,0,1-10.5-1.8l-2.1-.7a6.2,6.2,0,0,1-4.4-6,38.9,38.9,0,0,1,.2-6.8c.5-4.8,1.1-9.7,1.9-14.5.3-1.3.6-2.6,1-3.9,1.4-3.5,3.9-5.3,7.7-5.1a55.8,55.8,0,0,1,13.5,2c4.3,1.3,5.6,3.1,5.7,7.6Zm-23,13.2v2a3,3,0,0,0,1.8,2.5l1.5.4a31.9,31.9,0,0,0,6.1.8h1.8a2.5,2.5,0,0,0,2.4-1.8,15.8,15.8,0,0,0,.9-3.1c.5-3.4.9-6.7,1.3-10.1a8.2,8.2,0,0,0-.1-2.7,2.7,2.7,0,0,0-2-2.3,27,27,0,0,0-8.9-1.2,3,3,0,0,0-2.9,2.2,5.3,5.3,0,0,0-.4,1.7c-.4,2.1-.7,4.3-.9,6.4A23.1,23.1,0,0,0,458,288.2Z" transform="translate(0.5 -4.6)" style="fill:#ed1f24"/><path d="M318.9,59.7a14.9,14.9,0,0,1-5.1-.6c-5.6-1.5-11.3-3-16.8-4.9a16.2,16.2,0,0,1-3.5-1.7,7,7,0,0,1-3.4-7.7A70.2,70.2,0,0,1,294,32a11.9,11.9,0,0,1,.8-1.6c1.4-2.8,3.7-3.8,6.8-3.5a45.9,45.9,0,0,1,5.1,1l13.9,4a25.3,25.3,0,0,1,4.8,1.9c3.1,1.7,4.8,4.1,4.4,7.7A39.9,39.9,0,0,1,325,56.6,5.6,5.6,0,0,1,318.9,59.7Zm-3.7-7.5c2,.1,2.9-.4,3.5-2a37.1,37.1,0,0,0,2.2-7.4c0-.4.1-.9.1-1.3a2.7,2.7,0,0,0-1.4-2.4,13.9,13.9,0,0,0-2.8-1.2c-3.3-1.1-6.6-2-10-2.9a7.8,7.8,0,0,0-2.2-.3,2.9,2.9,0,0,0-3.3,2,44.4,44.4,0,0,0-1.9,6.2l-.3,2.5a2.5,2.5,0,0,0,1.5,2.6l2.5,1.1,8.6,2.5a21.4,21.4,0,0,0,3.5.6Z" transform="translate(0.5 -4.6)" style="fill:#ed1f24"/><path d="M443.1,175.2a5.3,5.3,0,0,1-3.9-1.5,14.6,14.6,0,0,1-2.6-3.4c-2.9-5.4-5.9-10.8-8.4-16.4a19.7,19.7,0,0,1-1.4-4.3,4.9,4.9,0,0,1,1.5-4.3,16.5,16.5,0,0,1,3.6-2.2c.6-.3.9,0,1.2.5s1.6,3.4,2.6,5.1a1.5,1.5,0,0,1,0,2l-.5.3a1.5,1.5,0,0,0-.5,2,18.6,18.6,0,0,0,1,2.5l4.6,8.9.8,1.2a1.9,1.9,0,0,0,2.5.8h0a2.1,2.1,0,0,0,1.4-2.4,6.3,6.3,0,0,0-.9-2.5l-6.2-13.1a20,20,0,0,1-1-2.6,5,5,0,0,1,1.4-5.4,14.2,14.2,0,0,1,7.2-3.7,5.1,5.1,0,0,1,5,1.5A20.9,20.9,0,0,1,454,143c2.3,4.2,4.5,8.5,6.6,12.8a15.2,15.2,0,0,1,1.6,4.5,4.9,4.9,0,0,1-1,4.4,9.6,9.6,0,0,1-2.6,2.3c-1.7,1-1.7,1-2.5-.7l-2.5-4.9a1.1,1.1,0,0,1,.2-1.4c1.1-.9.9-2,.4-3.1-1.6-3.5-3.4-6.9-5.3-10.2,0-.2-.2-.3-.3-.4s-1.6-1.3-2.5-.9a2,2,0,0,0-1.4,2.3h0c0,.2,0,.3.1.4a18.9,18.9,0,0,0,1.1,2.5L451,161a17.2,17.2,0,0,1,1.8,5.4,5,5,0,0,1-1.2,4.7A14,14,0,0,1,443.1,175.2Z" transform="translate(0.5 -4.6)" style="fill:#ed1f24"/><path d="M457,347.3a10,10,0,0,1-3.4-.5,57.6,57.6,0,0,1-9.8-3.6l-2.8-1.7a6,6,0,0,1-2.7-6.2,28.4,28.4,0,0,1,1-4.9c1.8-5.6,3.7-11.2,5.9-16.7a12.4,12.4,0,0,1,1.6-3c2.1-2.9,4.9-4.1,8.3-3.2a61.2,61.2,0,0,1,12.6,4.6,20,20,0,0,1,2.8,2,4.6,4.6,0,0,1,1.7,3.5,12.9,12.9,0,0,1-.4,4.4c-.7,2.3-1.4,4.6-2.2,6.9s-2.6,7-3.9,10.5a17.4,17.4,0,0,1-2.5,4.9A6.4,6.4,0,0,1,457,347.3Zm-11-14.9c0,1.7.3,2.5,1.7,3.2a34.8,34.8,0,0,0,8.2,2.9,3,3,0,0,0,3.2-1.5,25.9,25.9,0,0,0,1.4-2.9c1.1-2.9,2.1-5.8,3.1-8.7a11,11,0,0,0,.6-2.6c.3-1.9-.1-2.8-1.8-3.6a50.3,50.3,0,0,0-6.8-2.6c-3-.8-4.1.1-5.3,2.7a.5.5,0,0,1-.2.4l-3.4,9.6a11.6,11.6,0,0,0-.7,3.1Z" transform="translate(0.5 -4.6)" style="fill:#ed1f24"/><path d="M140.6,66.5a4,4,0,0,0,1.9-.2,4,4,0,0,1,4.1,1.4c1.2,1.5,2.2,3.2,3.3,4.9a.5.5,0,0,1,0,.7h-.2l-6,4a.6.6,0,0,1-.8,0h-.1l-1.3-1.8-.9-1.2c-1.2-1.6-2-1.8-3.6-.8l-12.4,8.1,1.5,2.4c.5.9,1.2,1.8,1.7,2.7s.4,1-.3,1.5l-3.7,2.4-2.5,1.6c-5.1-7.6-10.1-15.3-15.1-22.8a2,2,0,0,1,1.1-1.1l20.4-13.5,2.4-1.4c3.5-1.6,6.1-1,8.7,1.9a20.4,20.4,0,0,1,2.6,3.9c1.1,2.2,1.3,4.3-.3,6.3ZM120.8,76,133,67.9l1.1-1a2.2,2.2,0,0,0,.5-2.3,13.2,13.2,0,0,0-1.9-2.9,1.7,1.7,0,0,0-1.8-.5,11.5,11.5,0,0,0-2.5,1.2L118.5,69l-1.1.7a.8.8,0,0,0-.1,1.1Z" transform="translate(0.5 -4.6)" style="fill:#ed1f24"/><path d="M98.3,75.8l3.7,3.7c1.2,1.3.6.7-.1,1.4l-6.8,6.6-7,6.8-1.4,1.5a18.2,18.2,0,0,0,3.1,3.1l2.5-2.2c.9-.8,1.7-1.7,2.5-2.5l2.5-2.4c.8-.8,1.6-1.5,2.3-2.3l2.6-2.4,2.6-2.5c1.4,1.2,2.5,2.5,3.7,3.7s-.6,1-1,1.4L95.3,101.5l-1,1.1a.8.8,0,0,0-.1,1h.1l2.7,2.6a6.7,6.7,0,0,0,2.2-1.9l12.4-12,.9-.8c.4-.5.8-.5,1.2-.1l3.7,3.8c-1.2,1.6-18.4,18.4-21.9,21.5-.7-.1-1-.6-1.4-1L76.9,98.1l-.3-.4a.8.8,0,0,1-.2-1h.1L78.3,95,96.2,77.5A8.7,8.7,0,0,1,98.3,75.8Z" transform="translate(0.5 -4.6)" style="fill:#ed1f24"/><path d="M459.4,205.5c.7,2.5,1.4,4.9,2,7.3a.6.6,0,0,1-.3.8H461a13.3,13.3,0,0,1-7.1.7,4.2,4.2,0,0,1-2.9-2.1,12.2,12.2,0,0,1-1.8-3.6,144.8,144.8,0,0,1-4.8-18.3,11.4,11.4,0,0,1-.3-3.7,5.9,5.9,0,0,1,2.6-4.8,13,13,0,0,1,3.1-1.6l6.2-1.9a28.5,28.5,0,0,1,5.8-1.2c5.5-.4,7.6,1.5,9.2,5.9s2.1,6.9,3.1,10.4a73.7,73.7,0,0,1,2.2,9,8.3,8.3,0,0,1,.1,2.2,5.2,5.2,0,0,1-2,3.9,14.9,14.9,0,0,1-4.9,2.4c-.6.2-.9.1-1.1-.6l-1.8-6.2c-.1-.4,0-.9.4-1,1.9-.8,2-2.3,1.6-4-.9-3.3-1.8-6.7-2.8-10.1-.1-.4-.3-.7-.4-1.1a3.3,3.3,0,0,0-3.4-2.1,28.6,28.6,0,0,0-8.5,2.5,2.8,2.8,0,0,0-1.8,3.2c.1,1,.3,2,.5,3l2.1,7.4a18,18,0,0,0,.8,2.1,2.4,2.4,0,0,0,2.9,1.7Z" transform="translate(0.5 -4.6)" style="fill:#ed1f24"/><path d="M452.5,225.2c0-.9-.1-1.9-.1-2.9s.3-.9.9-1l4.2-.3,20.9-1.5h.7a.8.8,0,0,1,.9.7h0c.1,2.3.3,4.5.5,6.7s-.2,1-1.1,1.1l-6.4.4h-1c-1.4.1-1.5.2-1.4,1.7a20.1,20.1,0,0,0,.1,2.5l.9,12.9a3.1,3.1,0,0,0,.1,1c0,.6.4.9,1,.9l6.2-.4c3.4-.3,2.9-.4,3.1,2.9.1,1.5.3,3,.4,4.4s-.3,1-.9,1l-2.4.3-18.7,1.2-4.5.4c-1,0-1.2-.2-1.2-1.1s-.4-4.3-.5-6.5c0-.6.2-.9.9-.9l7.2-.5,1.7-.2c.4,0,.7-.2.7-.6v-1c-.4-5.4-.8-10.8-1.1-16.2-.1-.9-.3-1.1-1.3-1l-6.7.4c-2.8.2-2.8.4-3-2.5Z" transform="translate(0.5 -4.6)" style="fill:#ed1f24"/><path d="M43.8,263.7c.1,2.6.4,2.5-2.2,2.7l-6.9.8c-1.2.2-1.2.2-1.1,1.5s.5,4.9.7,7.4.6,5.8,1,8.7.2,1.4,1.7,1.3l7-.8h1.4c.4,0,.7.2.7.6.2,2.2.5,4.4.7,6.7,0,.7-.2,1-1,1.1l-4.3.4-16.6,1.7-4.7.5c-.6.1-.9-.2-1-.8l-.6-6.5c-.1-.8.1-1,.9-1.1l6.4-.7c2.8-.2,2.6-.3,2.3-2.6-.5-5.1-1-10.2-1.6-15.3-.1-1-.3-1.2-1.3-1.1l-6.7.7H17.1c-.3,0-.7-.1-.7-.5-.3-2.4-.5-4.8-.7-7.2a1.3,1.3,0,0,1,.6-.7h1.2c7.6-.8,15.2-1.7,22.8-2.4,3.2-.3,2.8-.6,3.1,2.3C43.5,261.4,43.6,262.6,43.8,263.7Z" transform="translate(0.5 -4.6)" style="fill:#ed1f24"/><path d="M397.5,110.9l-6.3-5.4a1.1,1.1,0,0,1-.3-1.3c.2-1.1.5-2.3.8-3.4a2,2,0,0,0-.7-2L379.1,88.6a1.5,1.5,0,0,0-1.6-.3l-3.3,1.3a1.7,1.7,0,0,1-2-.2l-5.7-4.9c-.1-.1-.1-.3-.2-.5s.7-.5,1.2-.7l26.3-9.8.5-.2a2.1,2.1,0,0,1,2.3.3c1.5,1.4,3,2.6,4.5,3.9l3,2.7a14.2,14.2,0,0,1-.7,4.2c-1.7,8.3-3.5,16.7-5.2,25.1A2.3,2.3,0,0,1,397.5,110.9Zm-1.9-29.7-10.2,3.9c-.6.3-.7.6-.2,1.1l7.2,6.1c.6.5,1,.4,1.2-.4.7-3.2,1.4-6.4,2-9.7C395.7,82,395.6,81.8,395.6,81.2Z" transform="translate(0.5 -4.6)" style="fill:#ed1f24"/><path d="M235.2,48l-8.3,1.5a1.1,1.1,0,0,1-1-.6,14.6,14.6,0,0,1-2.1-2.8,2.4,2.4,0,0,0-2.1-.9l-15.2,2.6a1.6,1.6,0,0,0-1.5,1.1l-1.2,3.6a1.3,1.3,0,0,1-1.2,1.1l-6.9,1.1a1.7,1.7,0,0,1-1.2-.2,3.5,3.5,0,0,1,.3-1.4c3.1-8.8,6.3-17.5,9.4-26.3a1.4,1.4,0,0,0,.2-.7,2,2,0,0,1,1.4-1.3l9.3-1.5a1.4,1.4,0,0,1,1.6.6l.6.7L234,46A4.7,4.7,0,0,1,235.2,48Zm-27.8-6.5h1.1l9.3-1.6c.6-.1.8-.5.4-1-2-2.7-4.1-5.3-6.2-8-.4-.5-.8-.4-1,.3Z" transform="translate(0.5 -4.6)" style="fill:#ed1f24"/><path d="M69,117.4l8.3,6.1,8.4,6.1-4.6,6.1a.7.7,0,0,1-1.1.3h-.1l-7.1-5.2L64.7,125c-.7-.6-.9-.5-1.4.1l-5.1,7.1a16.3,16.3,0,0,1-1.7,2c-1.7-1.2-3.4-2.4-5-3.7s-.3-.5-.1-.9l.8-1.2,16.9-23.1.7-1c.6-.8.9-.8,1.7-.2l4.3,3.3c-.4,1.8-1.9,3-2.9,4.5l-3,4.2C68.9,117.4,69.4,116.9,69,117.4Z" transform="translate(0.5 -4.6)" style="fill:#ed1f24"/><path d="M21.9,219.4c.7.2,2.2-.5,2.9.5s0,2.1,0,3.2-.4,4.9-.5,7.4,0,1.3,1.1,1.4l11.5.9,6.9.6c.6,0,1,.3.9.9-.2,2.3-.3,4.7-.5,7-.1.4-.4.5-.8.5H42.2l-15.4-1.2-2.2-.2c-1,0-1.2.2-1.3,1.2l-.6,8.4a7.6,7.6,0,0,1-.1,1.5c0,.8-.3,1.1-1,1.1l-4.8-.4c-.9,0-1.2-.2-1.1-1.2s.1-2.6.2-4c.5-6.1,1-12.2,1.4-18.4l.6-7.4c0-.3.1-.7.1-1a1.3,1.3,0,0,1,1.3-1.1h0Z" transform="translate(0.5 -4.6)" style="fill:#ed1f24"/><path d="M254,21l14.2.3c2.1,0,2.4-.3,2.3,2.4s-.1,2.4-.1,3.7-.4.9-1,.9l-8.7-.2c-3,0-2.6-.2-2.7,2.7l-.3,15.7V48a1,1,0,0,1-.9.7h-6.9c-.4,0-.6-.3-.6-.7V45.8c0-5.2.1-10.3.2-15.5V29c0-.9-.2-1.1-1.2-1.2h-8.7c-2.4-.1-2.3.1-2.3-2.4s.1-2.5.1-3.7.3-.9.9-.9h4.3L254,21Z" transform="translate(0.5 -4.6)" style="fill:#ed1f24"/><path d="M105.5,436.8l4.7-6.1-5.8-5.2a1.4,1.4,0,0,0-1.4-.1l-5.5,2.4a2,2,0,0,1-2.5-.3,38.4,38.4,0,0,0-2.9-2.7,1.9,1.9,0,0,1-.7-1.2l8.1-3.2,20.8-8.4a1.9,1.9,0,0,1,2.6.4l4.2,3.9c.7.6.7.7.1,1.5a2.2,2.2,0,0,1-.5.8l-15,21.1-.8,1a.8.8,0,0,1-1,.2h-.1Zm14.4-18.9c-.2-.2-.5-.1-.7,0l-9.3,4.2-.6.3a.5.5,0,0,0-.1.7h0a19.5,19.5,0,0,0,4.1,3.5C114.7,425,118.9,419.5,119.9,417.9Z" transform="translate(0.5 -4.6)" style="fill:#1967b3"/><path d="M57.9,387.2c-1.4-2-2.8-4.1-4-6.2a.5.5,0,0,1-.1-.7.1.1,0,0,0,.1-.1.2.2,0,0,1,.2-.2h0l1.7-1.1,13.3-8.4,1.4-.9a.6.6,0,0,0,.2-.7l-.9-1.5c-2.4-4-4.9-7.9-7.4-11.9l-.9-1.5c-.4-.8-.4-.9.3-1.4H62c1.5-1,3.1-1.9,4.7-2.8,1.5,1.1,2.1,2.9,3.1,4.4,3.5,5.5,7,11.1,10.4,16.7l.9,1.5c.2.3.1.6-.2.9l-1,.7c-6.9,4.2-13.7,8.5-20.5,12.8C58.9,386.9,58.6,387.3,57.9,387.2Z" transform="translate(0.5 -4.6)" style="fill:#ed1f24"/><path d="M422.7,131.3a53,53,0,0,1-5.2,4.2,4,4,0,0,1-1.5-1.4l-14.8-18.2a2.7,2.7,0,0,1-.9-1.2c-.2-.1-.2-.4,0-.6h0a4.6,4.6,0,0,1,.7-.7l19.1-15.6.4-.3c.8-.6,1-.6,1.5.1l4.5,5.5c-.2.8-.8,1.1-1.3,1.5l-12.5,10.3-1.4,1.1a.8.8,0,0,0-.1,1.1,7.6,7.6,0,0,0,1.1,1.4l8.8,10.8Z" transform="translate(0.5 -4.6)" style="fill:#ed1f24"/><path d="M424.9,372.5l-.5-.2-4.5-2.6c-.7-.4-.7-.7-.3-1.4l5.1-8.9c2.4-4,4.7-8,7-12l.9-1.5a.8.8,0,0,1,.9-.2l1.1.6,20.7,11.9,1,.7a.8.8,0,0,1,.3.9l-3.5,6c-.1.4-.5.5-.9.4H452l-1.7-.9-13.6-7.9-1.3-.7a.6.6,0,0,0-.7-.1h-.1l-.2.2h0l-.8,1.3-7.3,12.7-1,1.5Z" transform="translate(0.5 -4.6)" style="fill:#ed1f24"/><path d="M275,489.1a11.9,11.9,0,0,1-4.9-.7.8.8,0,0,1-.5-1l.8-3.2c.4-1.5.4-1.6,2-1.1a12.6,12.6,0,0,0,5.1.4,5.7,5.7,0,0,0,3.1-1c2.1-1.5,2.2-3.9,0-5.3a11.5,11.5,0,0,0-2.5-1.2l-3.6-1.6c-5.6-3-5-9.5-2-12.8a13.4,13.4,0,0,1,7.3-3.9,24.1,24.1,0,0,1,6-.2l1.2.3a.9.9,0,0,1,.7,1.1h0c-.2.7-.3,1.5-.5,2.2a4.8,4.8,0,0,1-.7,2.1c-.6.7-1.4-.1-2.1-.1a17,17,0,0,0-3.9.1l-2.1.8c-2,1.3-2,3.4-.1,4.7L281,470l3.2,1.4c6.2,2.9,5.5,10.4,2.2,13.7A14,14,0,0,1,278,489Z" transform="translate(0.5 -4.6)" style="fill:#1967b3"/><path d="M257.4,477.7c-.2,5.3-2.3,9.6-7.4,12a11.6,11.6,0,0,1-8,.8c-3.5-.9-5.8-3-6.4-6.6-1.1-5.9,2-13.2,9.2-15.2a14,14,0,0,1,6.1-.1,8.1,8.1,0,0,1,6.5,7.6A3.8,3.8,0,0,1,257.4,477.7Zm-6.5-.4a4.4,4.4,0,0,0-.2-1.6,3.2,3.2,0,0,0-3.7-2.6l-1.2.5a5,5,0,0,0-1.9,1.9,12.5,12.5,0,0,0-1.9,6.1,6.1,6.1,0,0,0,.4,2.4,3.2,3.2,0,0,0,4.2,1.7,5.6,5.6,0,0,0,2.5-2.3A12.8,12.8,0,0,0,250.9,477.3Z" transform="translate(0.5 -4.6)" style="fill:#1967b3"/><path d="M311.7,459.1c.2,1.6.3,2.9.4,4.2.5,5.3.9,10.6,1.3,15.9v.8a1,1,0,0,1-.7,1.2h-.2l-1.7.5c-3.2.9-2.6.8-3.1-1.8h-.3c-.7.3-.8,1.1-1.3,1.7a8.8,8.8,0,0,1-4.9,3.3c-2.9.7-5.1-.3-6.3-3.1a15.2,15.2,0,0,1-1-4.8l-.9-11.2a1.7,1.7,0,0,1,0-1,.8.8,0,0,1,.5-.7l1.2-.4c1.4-.3,2.8-1.1,4.3-.8a19.9,19.9,0,0,1,.4,4.2c.3,2.9.5,5.8.8,8.7a8.5,8.5,0,0,0,.4,1.7,2.1,2.1,0,0,0,2.4,1.6,2.1,2.1,0,0,0,1-.6,3.6,3.6,0,0,0,1.6-2.2,7.3,7.3,0,0,0,.7-3.6c0-1.8-.2-3.7-.3-5.5l-.3-5.5c0-.7.3-1,1-1.2Z" transform="translate(0.5 -4.6)" style="fill:#1967b3"/><path d="M166,450.6a11.4,11.4,0,0,1,6.3,2.6,6.3,6.3,0,0,1,1.7,7.7,5.8,5.8,0,0,1-5.4,3.5,11.1,11.1,0,0,1-5.1-.7l-4.4-1.7c-.6-.2-1,0-1.1.6a3.2,3.2,0,0,0,.8,2.8,9.5,9.5,0,0,0,2,1.5,14.2,14.2,0,0,0,3.5,1.1c.8.2,2-.1,2.4.5s-.4,1.9-.6,2.8-.7,1.4-2,1.3a15.6,15.6,0,0,1-9-3.2,7.4,7.4,0,0,1-3.1-8.1C153.1,455.4,158.8,450.6,166,450.6Zm.3,8.8a2.3,2.3,0,0,0,2.3-1.4,2,2,0,0,0-1.2-2.2l-.7-.3a5.1,5.1,0,0,0-5.2,1.3c-.5.4-.4.9.2,1.1A19,19,0,0,0,166.3,459.4Z" transform="translate(0.5 -4.6)" style="fill:#1967b3"/><path d="M359.3,451.3a3.5,3.5,0,0,0,4.4,1.4,12.2,12.2,0,0,0,4.8-3.6c1.3-1.4,1.3-1.4,2.6.2a6.1,6.1,0,0,1,.7,1c.7.9.7,1.1,0,1.9a16.7,16.7,0,0,1-7.5,5.9,7.5,7.5,0,0,1-9.3-2.2,13.4,13.4,0,0,1-2.6-13.8,11,11,0,0,1,7.9-7.2,6.2,6.2,0,0,1,7.6,4.4,5.8,5.8,0,0,1-.4,4.3,10,10,0,0,1-2,2.9,27.2,27.2,0,0,1-4.2,3.4Zm-2.5-6.4a1.5,1.5,0,0,0,.1.7c.1.9.6,1.2,1.3.7a15.8,15.8,0,0,0,3.4-2.9,2,2,0,0,0,.2-2.8.1.1,0,0,1-.1-.1h0a2.1,2.1,0,0,0-2.7.2,5.2,5.2,0,0,0-2.2,4.2Z" transform="translate(0.5 -4.6)" style="fill:#1967b3"/><path d="M40.4,357.4l-3.2-6.6a.9.9,0,0,1,.5-1.2h0l3-1.4,18.8-9a5.8,5.8,0,0,1,2.5-.9c1,2.2,2.1,4.4,3.2,6.6a.9.9,0,0,1-.4,1.2h-.1l-.9.5L42.2,356.9A3.7,3.7,0,0,1,40.4,357.4Z" transform="translate(0.5 -4.6)" style="fill:#ed1f24"/><path d="M28.1,181.9l.9.2,23.3,7.2.9.3a.7.7,0,0,1,.5.8h0v.3c-.5,1.5-1,3-1.4,4.5-.9,3.1-.6,2.6-2.8,2L45,195.8l-17.6-5.2-1.6-.6a.5.5,0,0,1-.6-.5v-.3h0c.7-2.2,1.4-4.5,2-6.7A1.5,1.5,0,0,1,28.1,181.9Z" transform="translate(0.5 -4.6)" style="fill:#ed1f24"/><path d="M285.8,25.2c-.3,2.7-.7,5.3-1,7.9l-2.4,16.6c0,.2-.1.3-.1.5a1,1,0,0,1-1.1.9l-2.2-.3c-1.7-.3-3.5-.2-5.1-1a20.5,20.5,0,0,1,.6-4.9c.9-6.9,1.9-13.7,2.9-20.5a2.5,2.5,0,0,1,.1-.8c.1-.7.4-.9,1.2-.8l6.4.9a.9.9,0,0,1,.8,1h0A.7.7,0,0,1,285.8,25.2Z" transform="translate(0.5 -4.6)" style="fill:#ed1f24"/><path d="M191.6,477.1l3.6,2a6.2,6.2,0,0,0,2.3.7,1.9,1.9,0,0,0,2.4-1.1,1.8,1.8,0,0,0-.5-2.1l-1.2-1.2c-.7-.7-1.4-1.2-2-1.9a6.1,6.1,0,0,1,.6-8.3,6.9,6.9,0,0,1,4.5-2,14.2,14.2,0,0,1,8.8,2c.8.4.8.8.4,1.6l-1.1,1.7c-.8,1.3-.9,1.5-2.3.6l-2.2-1a5.9,5.9,0,0,0-2.3-.1,1.7,1.7,0,0,0-1.1,2c0,.1.1.2.1.3l1.4,1.5,2.1,2.1a6.3,6.3,0,0,1-.4,8.8l-1,.7a11.5,11.5,0,0,1-3.1,1.1,14.8,14.8,0,0,1-9.8-2.1l-1-.8a.8.8,0,0,1-.2-1.2h0Z" transform="translate(0.5 -4.6)" style="fill:#1a67b3"/><path d="M383.2,419.6a8,8,0,0,1,1.1-4,15.9,15.9,0,0,1,6.1-5.7c1-.5,1.2-.4,1.8.7l.4.9c.3.7.8,1.4.7,2s-1.1.9-1.7,1.3a17.3,17.3,0,0,0-2.1,1.7,8.3,8.3,0,0,0-.7,1.3,1.4,1.4,0,0,0,.8,1.8h.5l2.2-.2,2.2-.6c5.5-1.3,8.8,4.1,7.4,8.4l-.3.7a14.8,14.8,0,0,1-8.3,7.8c-.7.3-1.1.2-1.4-.6l-1.2-2.7c-.3-.6,0-.9.5-1.1l3.1-1.6a4.3,4.3,0,0,0,2-2.2,1.6,1.6,0,0,0-.5-2.2h-.2l-.5-.2a5.5,5.5,0,0,0-2.2.2,9,9,0,0,1-2.7.7C386.1,426.5,383.1,423.8,383.2,419.6Z" transform="translate(0.5 -4.6)" style="fill:#1a67b3"/><path d="M173.1,471c1.3.9,2.3,1.7,3.5,2.4a5.8,5.8,0,0,0,2.5.9,1.7,1.7,0,0,0,1.9-.9,1.7,1.7,0,0,0,0-1.9l-1.2-1.6a19.6,19.6,0,0,1-1.8-2.1c-2.3-3.2-.9-7.3,2.5-9a9.6,9.6,0,0,1,4.4-.8,15.6,15.6,0,0,1,7.6,2.8c.8.5.8.9.3,1.6l-.9,1.2c-1.3,1.7-1.3,1.7-3,.6a7.2,7.2,0,0,0-3.8-1.3,1.6,1.6,0,0,0-1.7,1.5h0a1.7,1.7,0,0,0,.3,1c.4.6,1,1.1,1.4,1.7l1.9,2.3a5.8,5.8,0,0,1-1.4,8.2l-.3.2a4.5,4.5,0,0,1-2.9,1.2,14.7,14.7,0,0,1-11.2-3.3l-.3-.3a1.1,1.1,0,0,1-.2-1.4C171.4,473,172.2,472.1,173.1,471Z" transform="translate(0.5 -4.6)" style="fill:#1a67b3"/><path d="M369,432.1a8.2,8.2,0,0,1,1.2-4.3,15.8,15.8,0,0,1,6.9-5.6c.7-.3,1.5-.4,1.8,1v.2c.2.9.9,1.7.7,2.6s-1.5.9-2.2,1.4a8.2,8.2,0,0,0-2.5,2,1.6,1.6,0,0,0,.2,2.3h0a2.7,2.7,0,0,0,1.2.3,4.4,4.4,0,0,0,2-.2,14.3,14.3,0,0,1,2.9-.3,6.1,6.1,0,0,1,6.3,5.9h0a4,4,0,0,1-.2,1.9,12.5,12.5,0,0,1-9.6,8.9c-.9.2-1.2.1-1.5-.8l-.6-1.7c-.6-1.7-.6-1.7,1.2-2.3a17.7,17.7,0,0,0,3.1-1.5l1.4-1.4a2,2,0,0,0-.7-2.6h0l-.4-.2a8.1,8.1,0,0,0-2.2.1c-1,.1-2,.3-3,.3C371.3,438.4,369,435.4,369,432.1Z" transform="translate(0.5 -4.6)" style="fill:#1a67b3"/><path d="M231.6,467.9l3.9.7a4.6,4.6,0,0,1-.4,2.1c-.3.7-.5,1.3-.7,1.9s-.4.5-.8.5l-2.7-.2c-1-.1-1.2,0-1.5.9s-1.5,4.8-2.2,7.2l-.3,1.2a2,2,0,0,0,1.6,2.2h.8c.5.1.7.3.7.8a1.1,1.1,0,0,1-.2.8c-.8,3.7-1.1,3.9-5,3.4l-1.9-.5a4.3,4.3,0,0,1-2.9-4.5,15.3,15.3,0,0,1,.7-3.6l2.4-7.6c.1-.4.1-.7.2-1a.9.9,0,0,0-.7-.3c-1.8-.4-1.8-.4-1.2-2.2l.3-1.2c.5-1.5.5-1.5,2.1-1.5s1.2-.1,1.6-1.1l.3-1.2c.2-1.7,1.3-2.2,2.8-2.2l3.5-.4c.6-.1.9.2.7.8s-.7,2.4-1.1,3.6A1.2,1.2,0,0,0,231.6,467.9Z" transform="translate(0.5 -4.6)" style="fill:#1a67b3"/><path d="M142.1,438l-3.8,2.8c-.9-.3-1.2-1-1.8-1.5-4.7-3.8-9.9-.8-11.6,2.6a3.7,3.7,0,0,0,1,4.8,7.9,7.9,0,0,0,2.3,1.4c.5.3,1.3.3,1.8,1a20.3,20.3,0,0,1-2.3,3.4.7.7,0,0,1-.9.2,13.5,13.5,0,0,1-7.8-5.4,7.7,7.7,0,0,1-.5-7.9,13.2,13.2,0,0,1,9.8-7.3,14.3,14.3,0,0,1,13.2,4.9C141.7,437.3,141.8,437.6,142.1,438Z" transform="translate(0.5 -4.6)" style="fill:#1a67b3"/><path d="M154.4,450.6a6.5,6.5,0,0,0-1.8-1.5c-4.9-3.4-10,.1-11.3,4a3.7,3.7,0,0,0,.9,3.9,7.9,7.9,0,0,0,2.3,1.4l2.6.8a14.7,14.7,0,0,1-2.1,3.9c-.1.3-.5.3-.9.3a14.5,14.5,0,0,1-7.9-4.4,7.7,7.7,0,0,1-1.3-8.4,13.2,13.2,0,0,1,9.3-8,14.5,14.5,0,0,1,12.9,3.5c1,.9,1,1.1.1,1.9Z" transform="translate(0.5 -4.6)" style="fill:#1a67b3"/><path d="M334.8,457.3c0-7.5,5.8-12.5,11.4-13.7.6-.1.9.1,1,.8s.4,2.1.5,3.2a.9.9,0,0,1-.6,1.1l-1.7.6c-5.1,2.3-5.1,8.2-2.7,11.4a3.8,3.8,0,0,0,4.9,1.2,10.2,10.2,0,0,0,3-2.1c.4-.4.8-.3,1,.1a8.3,8.3,0,0,1,.7,1.3c1.4,2.6,1.4,2.6-1.1,4.4a14.3,14.3,0,0,1-5.1,2.5,7.8,7.8,0,0,1-8.9-3.3A14.2,14.2,0,0,1,334.8,457.3Z" transform="translate(0.5 -4.6)" style="fill:#1a67b3"/><path d="M330.7,456.8l-2.2.6c-4.8,1.5-6.3,6.9-4,11a3.8,3.8,0,0,0,4.9,1.8,7.5,7.5,0,0,0,2-1,6.6,6.6,0,0,0,1.7-1.2c1,1.2,1.2,2.6,1.8,3.9s-.1.6-.3.9l-.7.6a16.6,16.6,0,0,1-5.9,2.7,7.9,7.9,0,0,1-9.6-4.6,13.5,13.5,0,0,1,4-16.6A14.6,14.6,0,0,1,329,452c1.4-.2,1.6,0,1.7,1.3Z" transform="translate(0.5 -4.6)" style="fill:#1a67b3"/><path d="M420.9,404.7c-1.3,0-2.5-.3-3.5.1s-1.5,1.5-2.3,2.3h-.2l-.3-.4c-.3-1-.2-2.3-.9-3a8.4,8.4,0,0,0-2.7-1.3c-.3-.1-.3-.6-.1-.8h.2a3.9,3.9,0,0,0,2.7-4.5c-.1-.3.1-.5.4-.6s.4,0,.5.2l1.5,1.3a1.4,1.4,0,0,0,1.8.4l2.2-.4h.3c.2.7-.3,1.3-.5,1.8a2.5,2.5,0,0,0,.2,3A2.6,2.6,0,0,1,420.9,404.7Z" transform="translate(0.5 -4.6)" style="fill:#1d69b4"/><path d="M88.5,404.6c-.7.4-1.4.1-2.1,0a3.1,3.1,0,0,0-2.4,1,14.6,14.6,0,0,1-1.6,1.9,18.2,18.2,0,0,1-.7-2.5,1.8,1.8,0,0,0-1.5-1.8,3.4,3.4,0,0,1-1.9-.9c-.1-.6.4-.7.7-.9,2.5-1.6,2.1-1,2.3-3.7a2,2,0,0,1,.1-.7.4.4,0,0,1,.4-.4h.3c.9.6,1.5,1.7,2.6,1.8a9.2,9.2,0,0,0,2.9-.4c.1-.1.3.1.4.2a2.2,2.2,0,0,1-.5,1.6,2.7,2.7,0,0,0,.3,3.2C88.1,403.5,88.6,403.9,88.5,404.6Z" transform="translate(0.5 -4.6)" style="fill:#1d69b4"/><path d="M390.8,172.6l-1.9,2.1-5.6,6a145.6,145.6,0,0,0-18.5,27.5,216.3,216.3,0,0,0-16.6,44,226.8,226.8,0,0,0-4.7,22.9c-.7,4.5-1.2,8.9-1.8,13.4-1.6,14.3-4.5,28.4-9.8,41.8a110.2,110.2,0,0,1-29,41.9,117.1,117.1,0,0,1-32.1,20.3,99,99,0,0,1-10.7,4.2,3.4,3.4,0,0,1-2.2.4.7.7,0,0,1,.1-.6h.1c8.1-6.8,13.9-15.4,18.7-24.7a132.2,132.2,0,0,0,11-30.7,203.7,203.7,0,0,0,4.1-25.8,260.9,260.9,0,0,0,1.1-31.9c-.1-4.4-.2-8.7-.1-13a97.4,97.4,0,0,1,7.6-36.9c6-14.1,15.4-25.6,27.4-35a127.7,127.7,0,0,1,37.7-20,182.7,182.7,0,0,1,24-5.9Z" transform="translate(0.5 -4.6)" style="fill:#ed1f24"/><path d="M241.7,397a1.7,1.7,0,0,1-1.7-.1c-1.8-.6-3.5-1.1-5.2-1.8a122.6,122.6,0,0,1-32.2-17.9,107.4,107.4,0,0,1-32.1-40.4,127.1,127.1,0,0,1-10.3-31.4c-.9-5.2-1.5-10.4-2.2-15.6a262.6,262.6,0,0,0-12.4-56.6,184.8,184.8,0,0,0-19.1-38.9,107.1,107.1,0,0,0-17-20.4c-.4-.3-.9-.6-.9-1.1s.5-.3.8-.3a140.4,140.4,0,0,1,52.1,19,98.4,98.4,0,0,1,23.4,19.7c10,11.4,16.3,24.7,19.6,39.6a113.6,113.6,0,0,1,2,26c-.1,7.5-.2,15,0,22.5a211.8,211.8,0,0,0,6,44.9,131.1,131.1,0,0,0,12,31,79.2,79.2,0,0,0,9.2,13.6,57.9,57.9,0,0,0,6.5,6.6C240.7,395.9,241.4,396.3,241.7,397Z" transform="translate(0.5 -4.6)" style="fill:#ed1f24"/><path d="M202.3,198.6c.7-.2,1.3.3,1.8.6,6,2.6,12,4.9,18.2,6.9a84.1,84.1,0,0,0,21.7,4.1,70.1,70.1,0,0,0,15.2-.5c12-1.6,23.3-5.6,34.2-10.6l2.3-1c.1-.1.3,0,.4.1a.5.5,0,0,1,0,.6h0a6.9,6.9,0,0,1-1.1,1.3,96.1,96.1,0,0,0-20.9,41.8,115.4,115.4,0,0,0-2.1,28.7,103.3,103.3,0,0,0,1.6,12.6,121.6,121.6,0,0,1,1.6,27.6,190,190,0,0,1-8,44.3,236.4,236.4,0,0,1-16,39.8,6,6,0,0,1-1.6,2.5,7.4,7.4,0,0,1-1.3-2.1,224.1,224.1,0,0,1-19.8-52.6,162.1,162.1,0,0,1-3.9-22.1,152.2,152.2,0,0,1-.7-23.4,161.2,161.2,0,0,1,1.7-16.9,120.9,120.9,0,0,0,1-23.3,97.9,97.9,0,0,0-5.2-25.6,95.6,95.6,0,0,0-18.2-31.3A3.8,3.8,0,0,1,202.3,198.6Z" transform="translate(0.5 -4.6)" style="fill:#1967b3"/><path d="M249.7,159.8c10.6-.2,21,9.1,20.6,20.8a20.7,20.7,0,0,1-18,20c-9.6,1.2-19.5-4.5-22.5-14.1A20.4,20.4,0,0,1,243,160.9h.1l.9-.3,2.7-.7Z" transform="translate(0.5 -4.6)" style="fill:#1967b3"/></svg>