<svg xmlns="http://www.w3.org/2000/svg" viewBox="0 0 500 135.4"><path d="M139.3,19.4h15.8V63.6H183V73.9H139.3Z" style="fill:#ec2227"/><path d="M223.4,19.4V73.9H207.6V19.4Z" style="fill:#ec2227"/><path d="M310.8,71.5a101.2,101.2,0,0,1-23.3,3c-12.8,0-21.9-2.6-28.4-7.4a23.7,23.7,0,0,1-9.9-19.9c.1-18,17-28.4,40-28.4,9,0,15.9,1.4,19.4,2.7l-3.3,9.8A53.1,53.1,0,0,0,289,29c-13.2,0-23.3,5.8-23.3,17.6s9.2,17.9,22.1,17.9a24.9,24.9,0,0,0,7.7-.7V52.2H284.8V42.7h26Z" style="fill:#ec2227"/><path d="M354.3,19.4V40.3h26.1V19.4h15.8V73.9H380.4V51.2H354.3V73.9H338.5V19.4Z" style="fill:#ec2227"/><path d="M438.7,29.8H419.9V19.4h53.9V29.8H454.7V73.9h-16Z" style="fill:#ec2227"/><path d="M12,19.1c25.2,2.7,40.1,19.3,39.8,44.2-.3,20.5,2.1,29.4,12.6,45.6-17.9-6.6-28-18.6-31.3-36.2-2.3-12.2-3.2-24.7-8.9-36-3.1-6-5.4-12.8-12.2-16.1Z" style="fill:#eb2227"/><path d="M75.4,106.5C83.8,96,85.9,84,86.8,71.3c.2-3.6,0-7.4,0-11.1.2-22.3,15.5-38.7,38.7-40.6-12.5,14-17.2,30.7-19.3,48.6-1.8,15.5-8.7,28.2-22.7,36.5C81.1,106.1,79,107.9,75.4,106.5Z" style="fill:#eb2227"/><path d="M69.4,109.5C61.5,95.1,57.2,80.9,59.1,65.9c1.7-12.8.3-24.2-8.8-36.3,12.6,4.9,23.6,6.4,36.1-.1-2.7,6-5,9.9-6.4,14.1a41.2,41.2,0,0,0-1.2,19.1C81.5,79,77.2,93.9,69.4,109.5Z" style="fill:#1768b1"/><path d="M60.9,22.3c.3-5.1,3-8.3,7.9-8.5s8.8,3.1,8.8,8.2a7.6,7.6,0,0,1-7.1,8.1H68.9C64.1,29.9,61.2,27.1,60.9,22.3Z" style="fill:#1b6ab3"/><path d="M131.5,85.8v22.8h-2.9V85.8Z" style="fill:#1768b2"/><path d="M136.6,108.6V85.8h3.3l7.2,11.5a67.9,67.9,0,0,1,4.3,7.4h0a75.4,75.4,0,0,1-.3-9.5V85.8h2.7v22.8h-2.9L143.5,97c-1.5-2.5-3-5.2-4.2-7.6h-.1c.1,2.8.3,5.7.3,9.5v9.7Z" style="fill:#1768b2"/><path d="M163.2,88.2h-6.9V85.8h16.9v2.4h-6.9v20.4h-3.1Z" style="fill:#1768b2"/><path d="M187.6,97.8h-8.9v8.3h10v2.5h-13V85.8h12.4v2.4h-9.4v7.2h8.9Z" style="fill:#1768b2"/><path d="M192.4,86.1a28.4,28.4,0,0,1,5.8-.5c3.1,0,5.1.6,6.4,1.8a5.5,5.5,0,0,1,1.8,4.4,5.7,5.7,0,0,1-4.2,5.8h0c1.8.6,2.7,2.3,3.3,4.7s1.1,4.2,1.8,6.3h-3a34.7,34.7,0,0,1-1.6-5.5c-.6-3.2-1.8-4.4-4.5-4.4h-2.8v9.9h-3Zm3,10.3h3.1c3.1,0,5.1-1.8,5.1-4.3s-2.1-4.2-5.3-4.2a7,7,0,0,0-2.9.3Z" style="fill:#1768b2"/><path d="M210.6,108.6V85.8h3.2l7.4,11.5a65.8,65.8,0,0,1,4,7.4h.2c-.3-3.1-.5-6.3-.5-9.5V85.8h2.9v22.8h-3L217.6,97a70.7,70.7,0,0,1-4.3-7.6h-.1c.1,2.8.3,5.7.3,9.5v9.7Z" style="fill:#1768b2"/><path d="M236.7,101.4l-2.4,7.2h-3l7.6-22.8h3.6l7.9,22.8h-3.2l-2.6-7.2Zm7.3-2.2-2.1-6.7a33.1,33.1,0,0,1-1.2-4.2h-.1c-.3,1.4-.8,2.7-1.1,4.2l-2.2,6.7Z" style="fill:#1768b2"/><path d="M255.3,88.2h-6.9V85.8h16.9v2.4h-7v20.4h-3Z" style="fill:#1768b2"/><path d="M270.8,85.8v22.8h-3V85.8Z" style="fill:#1768b2"/><path d="M295.5,96.9c0,7.8-4.8,12-10.7,12s-10.2-4.6-10.2-11.6,4.5-12,10.7-12S295.5,90.1,295.5,96.9Zm-17.8.4c0,4.9,2.8,9.2,7.3,9.2s7.3-4.3,7.3-9.5-2.4-9.3-7.2-9.3-7.4,4.5-7.4,9.6Z" style="fill:#1768b2"/><path d="M299.3,108.6V85.8h3.1l7.4,11.5a76.8,76.8,0,0,1,4.1,7.4h.1a75.4,75.4,0,0,1-.3-9.5V85.8h2.7v22.8h-3L306.2,97a56.3,56.3,0,0,1-4.2-7.6h-.2c.2,2.8.3,5.7.3,9.5v9.7Z" style="fill:#1768b2"/><path d="M325.3,101.4l-2.4,7.2h-3l7.6-22.8h3.7l7.8,22.8h-3.2l-2.5-7.2Zm7.4-2.2-2.1-6.7a14.5,14.5,0,0,1-1.2-4.2h-.2c-.3,1.4-.8,2.7-1.1,4.2l-2.2,6.7Z" style="fill:#1768b2"/><path d="M342.3,85.8h2.8v20.3h9.8v2.5H342.3Z" style="fill:#1768b2"/><path d="M365,105a10.8,10.8,0,0,0,5.3,1.5c3,0,4.8-1.6,4.8-3.9s-1.2-3.4-4.4-4.5-6-3.3-6-6.5,3-6.3,7.4-6.3a11.3,11.3,0,0,1,5.1,1.2l-.9,2.4a7.7,7.7,0,0,0-4.2-1c-3.2,0-4.4,1.8-4.4,3.3s1.4,3.1,4.5,4.5,5.9,3.3,5.9,6.6-2.6,6.6-8,6.6a9.9,9.9,0,0,1-5.8-1.5Z" style="fill:#1768b2"/><path d="M398.1,107.9a17.6,17.6,0,0,1-6,1c-6.5,0-11.3-4-11.3-11.6a12.2,12.2,0,0,1,12.4-12,11.7,11.7,0,0,1,4.9,1.1l-.7,2.4a9,9,0,0,0-4.6-.9c-5.4,0-9,3.4-9,9.3s3.3,9.2,8.9,9.2a13.2,13.2,0,0,0,4.8-.9Z" style="fill:#1768b2"/><path d="M404.7,85.8v9.4h11V85.8h3v22.8h-3V97.8h-11v10.8h-3V85.8Z" style="fill:#1768b2"/><path d="M443.2,96.9c0,7.8-4.6,12-10.5,12s-10.2-4.6-10.2-11.6,4.5-12,10.5-12S443.2,90.1,443.2,96.9Zm-17.6.4c0,4.9,2.6,9.2,7.3,9.2s7.3-4.3,7.3-9.5-2.4-9.3-7.3-9.3S425.6,92.2,425.6,97.3Z" style="fill:#1768b2"/><path d="M466.7,96.9c0,7.8-4.8,12-10.7,12s-10.2-4.6-10.2-11.6,4.5-12,10.5-12S466.7,90.1,466.7,96.9Zm-17.7.4c0,4.9,2.5,9.2,7.2,9.2s7.4-4.3,7.4-9.5-2.4-9.3-7.4-9.3S449,92.2,449,97.3Z" style="fill:#1768b2"/><path d="M470.5,85.8h2.8v20.3h9.8v2.5H470.5Z" style="fill:#1768b2"/></svg>